/* XPM */
static char * back_archive_xpm[] = {
"52 52 196 2",
"  	c None",
". 	c #474945",
"+ 	c #3E3F4E",
"@ 	c #62645F",
"# 	c #AFB0AF",
"$ 	c #8A8B89",
"% 	c #727370",
"& 	c #555668",
"* 	c #747599",
"= 	c #636561",
"- 	c #F6F6F6",
"; 	c #D8D8D8",
"> 	c #D9D9D9",
", 	c #DADADA",
"' 	c #DFDFDF",
") 	c #BABAB9",
"! 	c #777875",
"~ 	c #404252",
"{ 	c #8A8AB9",
"] 	c #E7E7FE",
"^ 	c #A4A5D2",
"/ 	c #F3F3F3",
"( 	c #D4D4D4",
"_ 	c #787A77",
": 	c #3B3B46",
"< 	c #5E5F77",
"[ 	c #C9C9F3",
"} 	c #B2B2FF",
"| 	c #9F9FFF",
"1 	c #F4F4F4",
"2 	c #454656",
"3 	c #9999CC",
"4 	c #D7D7FE",
"5 	c #9292FF",
"6 	c #9494FF",
"7 	c #A2A2FF",
"8 	c #636562",
"9 	c #D7D7D7",
"0 	c #3D3E4B",
"a 	c #696A88",
"b 	c #D3D3F9",
"c 	c #ABABFF",
"d 	c #A1A1FF",
"e 	c #7A7C79",
"f 	c #4B4C5D",
"g 	c #A8A8DC",
"h 	c #D0D0FF",
"i 	c #9696FF",
"j 	c #414150",
"k 	c #78789E",
"l 	c #DBDBFC",
"m 	c #A9A9FF",
"n 	c #9595FF",
"o 	c #9E9EFF",
"p 	c #7B7C79",
"q 	c #535366",
"r 	c #B6B6E9",
"s 	c #CBCBFF",
"t 	c #9A9AFF",
"u 	c #9D9DFF",
"v 	c #646562",
"w 	c #F5F5F5",
"x 	c #7C7E7B",
"y 	c #444455",
"z 	c #8686B4",
"A 	c #DFDFFD",
"B 	c #9B9BFF",
"C 	c #484850",
"D 	c #5C5D73",
"E 	c #C6C6F3",
"F 	c #BEBEFF",
"G 	c #A5A5D2",
"H 	c #656764",
"I 	c #D6D6D6",
"J 	c #BABBBA",
"K 	c #80817E",
"L 	c #474859",
"M 	c #9494C8",
"N 	c #D8D8FE",
"O 	c #6161FF",
"P 	c #2A2AFF",
"Q 	c #2E2EFF",
"R 	c #4141FF",
"S 	c #5555FF",
"T 	c #6969FF",
"U 	c #7D7DFF",
"V 	c #9090FF",
"W 	c #9999FF",
"X 	c #6B6C69",
"Y 	c #BDBDBC",
"Z 	c #838481",
"` 	c #5B5C6D",
" .	c #CCCCF3",
"..	c #ADADFF",
"+.	c #3636FF",
"@.	c #2B2BFF",
"#.	c #3737FF",
"$.	c #4A4AFF",
"%.	c #5252FF",
"&.	c #5A5AFF",
"*.	c #7A7AFF",
"=.	c #6F726D",
"-.	c #D3D3D3",
";.	c #D1D1D1",
">.	c #CFCFCF",
",.	c #CDCDCD",
"'.	c #CBCBCB",
").	c #D0D0D0",
"!.	c #BFBFBE",
"~.	c #888886",
"{.	c #4D4E60",
"].	c #8E8EB9",
"^.	c #DBDBFD",
"/.	c #6B6BFF",
"(.	c #5959FF",
"_.	c #A6A6D3",
":.	c #747773",
"<.	c #F2F2F2",
"[.	c #AAAAAA",
"}.	c #BFBFBF",
"|.	c #C1C2C0",
"1.	c #8B8E89",
"2.	c #5F5F71",
"3.	c #BDBDEB",
"4.	c #B9B9FF",
"5.	c #3E3EFF",
"6.	c #A7A7D4",
"7.	c #797B77",
"8.	c #C3C4C2",
"9.	c #90918E",
"0.	c #585869",
"a.	c #8384A7",
"b.	c #DADAFC",
"c.	c #7E7EFF",
"d.	c #A7A8D5",
"e.	c #7E807B",
"f.	c #C5C6C4",
"g.	c #949693",
"h.	c #5F5F70",
"i.	c #AEAFE1",
"j.	c #C8C8FF",
"k.	c #A8A9D6",
"l.	c #838580",
"m.	c #C7C8C6",
"n.	c #989A97",
"o.	c #656674",
"p.	c #7C7D97",
"q.	c #D5D5F9",
"r.	c #AAAAD7",
"s.	c #878985",
"t.	c #C9CAC8",
"u.	c #9D9E9A",
"v.	c #616373",
"w.	c #A3A4D5",
"x.	c #D3D3FE",
"y.	c #5757FF",
"z.	c #ABABD8",
"A.	c #8B8D89",
"B.	c #CBCCCA",
"C.	c #A0A19E",
"D.	c #767881",
"E.	c #78798F",
"F.	c #CDCDF6",
"G.	c #3333FF",
"H.	c #ACACD9",
"I.	c #91938D",
"J.	c #CDCECC",
"K.	c #A4A6A1",
"L.	c #686A79",
"M.	c #999AC7",
"N.	c #6767FF",
"O.	c #ADADDA",
"P.	c #959792",
"Q.	c #CFD1CE",
"R.	c #A8AAA5",
"S.	c #777A89",
"T.	c #C1C2F0",
"U.	c #AEAEDB",
"V.	c #999C96",
"W.	c #D1D3D0",
"X.	c #ACAFAA",
"Y.	c #707381",
"Z.	c #9293B9",
"`.	c #9FA0CC",
" +	c #9FA19B",
".+	c #F8F8F8",
"++	c #DBDBDB",
"@+	c #D4D5D2",
"#+	c #B3B4B0",
"$+	c #72757C",
"%+	c #A2A49F",
"&+	c #E0E0DF",
"*+	c #C2C3BF",
"=+	c #B3B5B0",
"-+	c #A1A49D",
";+	c #000000",
"                                                                                                        ",
"                                                                                                        ",
"                                                                                                        ",
"                                                                                                        ",
"                                                                                                        ",
"                                                                                                        ",
"                                                              . . . . . . . . .                         ",
"                                                      +     @ # # # # # # # # $ %                       ",
"                                                    & *     = - ; ; > > > , ' ) !                       ",
"                                                ~ { ] ^     = / ( ( ( ( ( ( ; ) _                       ",
"                                            : < [ } | ^     = 1 ( ( ( ( ( ( ; ) _                       ",
"                                          2 3 4 5 6 7 ^     8 1 ( ( ( ( ( ( 9 ) _                       ",
"                                      0 a b c 5 6 6 d ^     8 1 ( ( ( ( ( ( 9 ) e                       ",
"                                    f g h i 6 6 6 6 | ^     8 1 ( ( ( ( ( ( 9 ) e                       ",
"                                j k l m n 6 6 6 6 6 o ^     8 1 ( ( ( ( ( ( 9 ) p                       ",
"                              q r s t 6 6 6 6 6 6 6 u ^     v w ( ( ( ( ( ( 9 ) x                       ",
"                          y z A m 6 6 6 6 6 6 6 6 6 B ^     v w ( ( ( ( ( ( 9 ) x                       ",
"                      C D E F t 6 6 6 6 6 6 6 6 6 6 t G     H w ( ( ( ( ( ( I J K                       ",
"                    L M N O P Q R S T U V 6 6 6 6 6 W G     X w ( ( ( ( ( ( I Y Z                       ",
"                    `  ...+.P P P P P P @.#.R $.%.&.*.G     =.w ( -.;.>.,.'.).!.~.                      ",
"                      {.].^./.P P P P P P P P P P P (._.    :.<.[.[.[.[.[.[.}.|.1.                      ",
"                          2.3.4.5.P P P P P P P P P (.6.    7.<.[.[.[.[.[.[.}.8.9.                      ",
"                            0.a.b.c.@.P P P P P P P (.d.    e.<.[.[.[.[.[.[.}.f.g.                      ",
"                                h.i.j.$.P P P P P P (.k.    l.<.[.[.[.[.[.[.}.m.n.                      ",
"                                  o.p.q.V Q P P P P (.r.    s.<.[.[.[.[.[.[.}.t.u.                      ",
"                                      v.w.x.y.P P P (.z.    A.<.[.[.[.[.[.[.}.B.C.                      ",
"                                        D.E.F.7 G.P (.H.    I.<.[.[.[.[.[.[.}.J.K.                      ",
"                                            L.M.N N.(.O.    P.<.[.[.[.[.[.[.}.Q.R.                      ",
"                                                S.T.h U.    V.<.[.[.[.[.[.[.}.W.X.                      ",
"                                                  Y.Z.`.     +.+>.>.>.>.>.>.++@+#+                      ",
"                                                      $+    %+&+&+&+&+&+&+&+&+*+=+                      ",
"                                                              -+-+-+-+-+-+-+-+-+                        ",
"                                                                                                        ",
"                                                                                                        ",
"            ;+;+;+      ;+;+;+;+          ;+;+;+;+  ;+;+      ;+;+  ;+;+;+;+      ;+;+  ;+;+;+;+;+      ",
"            ;+;+;+      ;+;+  ;+;+      ;+;+    ;+  ;+;+      ;+;+  ;+;+  ;+      ;+    ;+;+            ",
"            ;+;+;+      ;+;+  ;+;+    ;+;+          ;+;+      ;+;+  ;+;+  ;+;+  ;+;+    ;+;+            ",
"          ;+;+;+;+;+    ;+;+;+;+      ;+;+          ;+;+;+;+;+;+;+  ;+;+  ;+;+  ;+;+    ;+;+;+;+;+      ",
"          ;+;+  ;+;+    ;+;+  ;+;+    ;+;+          ;+;+      ;+;+  ;+;+    ;+;+;+      ;+;+            ",
"          ;+;+;+;+;+    ;+;+  ;+;+      ;+;+    ;+  ;+;+      ;+;+  ;+;+    ;+;+;+      ;+;+            ",
"        ;+;+      ;+;+  ;+;+    ;+;+      ;+;+;+;+  ;+;+      ;+;+  ;+;+    ;+;+;+      ;+;+;+;+;+      ",
"                                                                                                        ",
"                                                                                                        ",
"                                                                                                        ",
"                                                                                                        ",
"                                                                                                        ",
"                                                                                                        ",
"                                                                                                        ",
"                                                                                                        ",
"                                                                                                        ",
"                                                                                                        ",
"                                                                                                        "};
