/* XPM */
static const char * back_on_xpm[] = {
"28 32 153 2",
"  	c None",
". 	c #3B3B3F",
"+ 	c #47484C",
"@ 	c #464744",
"# 	c #43444A",
"$ 	c #797A9F",
"% 	c #DFDFFA",
"& 	c #41424C",
"* 	c #64647A",
"= 	c #C8C8F1",
"- 	c #DBDBFF",
"; 	c #FFFFFF",
"> 	c #404047",
", 	c #54555D",
"' 	c #ADADDF",
") 	c #EBEBFE",
"! 	c #9D9DFF",
"~ 	c #8D8DFF",
"{ 	c #3B3D40",
"] 	c #48494D",
"^ 	c #9495C6",
"/ 	c #EEEEFE",
"( 	c #AFAFFF",
"_ 	c #8E8EFF",
": 	c #9494FF",
"< 	c #44454B",
"[ 	c #7C7DA5",
"} 	c #E3E3FB",
"| 	c #C5C5FF",
"1 	c #9191FF",
"2 	c #42434C",
"3 	c #66677D",
"4 	c #CCCCF3",
"5 	c #9A9AFF",
"6 	c #404048",
"7 	c #555660",
"8 	c #B1B1E2",
"9 	c #A6A6FF",
"0 	c #3F3F44",
"a 	c #4A4B4F",
"b 	c #9898C9",
"c 	c #EFEFFE",
"d 	c #B7B7FF",
"e 	c #9797FF",
"f 	c #8081A9",
"g 	c #E5E5FC",
"h 	c #C9C9FF",
"i 	c #9C9CFF",
"j 	c #44454D",
"k 	c #696A82",
"l 	c #CFCFF4",
"m 	c #DCDCFF",
"n 	c #A4A4FF",
"o 	c #46464E",
"p 	c #585963",
"q 	c #B5B5E5",
"r 	c #ECECFE",
"s 	c #B1B1FF",
"t 	c #49494E",
"u 	c #4C4D51",
"v 	c #9C9CCD",
"w 	c #9898FF",
"x 	c #3C3CFF",
"y 	c #4444FF",
"z 	c #5757FF",
"A 	c #6969FF",
"B 	c #7B7BFF",
"C 	c #46474F",
"D 	c #606175",
"E 	c #E7E7FC",
"F 	c #E0E0FF",
"G 	c #4343FF",
"H 	c #2A2AFF",
"I 	c #3434FF",
"J 	c #4646FF",
"K 	c #6A6AFF",
"L 	c #7575FF",
"M 	c #7C7CFF",
"N 	c #8484FF",
"O 	c #8A8AFF",
"P 	c #9292FF",
"Q 	c #494951",
"R 	c #71728F",
"S 	c #D7D7F7",
"T 	c #CECEFF",
"U 	c #5656FF",
"V 	c #2F2FFF",
"W 	c #3636FF",
"X 	c #484946",
"Y 	c #4C4E52",
"Z 	c #8A8BB6",
"` 	c #E9E9FD",
" .	c #B0B0FF",
"..	c #4040FF",
"+.	c #4B4C49",
"@.	c #58585E",
"#.	c #56575C",
"$.	c #A3A3D5",
"%.	c #3131FF",
"&.	c #4F504D",
"*.	c #57585F",
"=.	c #666772",
"-.	c #BCBDEA",
";.	c #E5E5FF",
">.	c #7474FF",
",.	c #525450",
"'.	c #575860",
").	c #797995",
"!.	c #D6D6F7",
"~.	c #CFCFFF",
"{.	c #565754",
"].	c #595B5F",
"^.	c #8E8EBA",
"/.	c #E8E8FD",
"(.	c #B2B2FF",
"_.	c #4141FF",
":.	c #5A5B57",
"<.	c #6D6F71",
"[.	c #636468",
"}.	c #A4A4D7",
"|.	c #3232FF",
"1.	c #5D5F5B",
"2.	c #676870",
"3.	c #70717D",
"4.	c #BCBCEB",
"5.	c #E6E6FF",
"6.	c #7676FF",
"7.	c #61625E",
"8.	c #65676E",
"9.	c #80819C",
"0.	c #D5D5F7",
"a.	c #D1D1FF",
"b.	c #5858FF",
"c.	c #656662",
"d.	c #66676C",
"e.	c #9293BE",
"f.	c #B3B3FF",
"g.	c #4242FF",
"h.	c #686A65",
"i.	c #7B7C7E",
"j.	c #707174",
"k.	c #A6A7D9",
"l.	c #9595FF",
"m.	c #6C6D69",
"n.	c #73747B",
"o.	c #7A7C87",
"p.	c #BCBCEC",
"q.	c #FEFEFE",
"r.	c #6F716C",
"s.	c #72737A",
"t.	c #8889A3",
"u.	c #737570",
"v.	c #7C7D85",
"                                                        ",
"                                                        ",
"                                                . + @   ",
"                                              # $ % @   ",
"                                          & * = - ; @   ",
"                                      > , ' ) ! ~ ; @   ",
"                                  { ] ^ / ( _ : : ; @   ",
"                                < [ } | 1 : : : : ; @   ",
"                            2 3 4 - 5 : : : : : : ; @   ",
"                        6 7 8 ) 9 : : : : : : : : ; @   ",
"                    0 a b c d e : : : : : : : : : ; @   ",
"                  < f g h i : : : : : : : : : : : ; @   ",
"              j k l m n : : : : : : : : : : : : : ; @   ",
"          o p q r s : : : : : : : : : : : : : : : ; @   ",
"      t u v c w x y z A B ~ : : : : : : : : : : : ; @   ",
"    C D E F G H H H H H H H I J z K L M N O P : P ; @   ",
"      Q R S T U H H H H H H H H H H H H H H H V W ; X   ",
"          Y Z `  ...H H H H H H H H H H H H H H H ; +.  ",
"            @.#.$.c P %.H H H H H H H H H H H H H ; &.  ",
"                *.=.-.;.>.H H H H H H H H H H H H ; ,.  ",
"                    '.).!.~.z H H H H H H H H H H ; {.  ",
"                        ].^./.(._.H H H H H H H H ; :.  ",
"                          <.[.}.c : |.H H H H H H ; 1.  ",
"                              2.3.4.5.6.H H H H H ; 7.  ",
"                                  8.9.0.a.b.H H H ; c.  ",
"                                      d.e./.f.g.H ; h.  ",
"                                        i.j.k.c l.; m.  ",
"                                            n.o.p.q.r.  ",
"                                                s.t.u.  ",
"                                                    v.  ",
"                                                        ",
"                                                        "};
