/* XPM */
static const char * back_off_xpm[] = {
"28 32 122 2",
"  	c None",
". 	c #3F3F3D",
"+ 	c #4B4C49",
"@ 	c #464744",
"# 	c #494A47",
"$ 	c #91918F",
"% 	c #EFF0EF",
"& 	c #484A47",
"* 	c #727270",
"= 	c #E1E1E0",
"- 	c #F0F0F0",
"; 	c #FFFFFF",
"> 	c #464643",
", 	c #5A5B59",
"' 	c #CCCCCB",
") 	c #F7F7F7",
"! 	c #D7D7D7",
"~ 	c #D1D1D1",
"{ 	c #3F413D",
"] 	c #4D4E4A",
"^ 	c #B2B3B2",
"/ 	c #DFDFDF",
"( 	c #D4D4D4",
"_ 	c #959695",
": 	c #F1F1F1",
"< 	c #E8E8E8",
"[ 	c #D3D3D3",
"} 	c #494A48",
"| 	c #757674",
"1 	c #E3E3E3",
"2 	c #D6D6D6",
"3 	c #474744",
"4 	c #5C5D5B",
"5 	c #CECFCE",
"6 	c #F6F6F6",
"7 	c #DBDBDB",
"8 	c #444442",
"9 	c #4E4F4C",
"0 	c #B6B7B6",
"a 	c #F8F8F8",
"b 	c #E1E1E1",
"c 	c #D5D5D5",
"d 	c #9A9A99",
"e 	c #F3F3F3",
"f 	c #E9E9E9",
"g 	c #4B4C48",
"h 	c #797A78",
"i 	c #E6E6E5",
"j 	c #DADADA",
"k 	c #4C4C49",
"l 	c #5F605D",
"m 	c #D1D2D1",
"n 	c #4D4D4B",
"o 	c #50514E",
"p 	c #B9BAB9",
"q 	c #B1B1B1",
"r 	c #B4B4B4",
"s 	c #BCBCBC",
"t 	c #C3C3C3",
"u 	c #CACACA",
"v 	c #6E6F6C",
"w 	c #F4F4F4",
"x 	c #AAAAAA",
"y 	c #AEAEAE",
"z 	c #B5B5B5",
"A 	c #C8C8C8",
"B 	c #CBCBCB",
"C 	c #CECECE",
"D 	c #D0D0D0",
"E 	c #4F4F4D",
"F 	c #848483",
"G 	c #EAEAEA",
"H 	c #EBEBEB",
"I 	c #BBBBBB",
"J 	c #ACACAC",
"K 	c #AFAFAF",
"L 	c #484946",
"M 	c #51534F",
"N 	c #A5A6A5",
"O 	c #F5F5F5",
"P 	c #B3B3B3",
"Q 	c #5D5D5B",
"R 	c #5B5C59",
"S 	c #C1C1C0",
"T 	c #ADADAD",
"U 	c #4F504D",
"V 	c #5E5F5B",
"W 	c #70716D",
"X 	c #D8D8D8",
"Y 	c #C7C7C7",
"Z 	c #525450",
"` 	c #8B8B88",
" .	c #ECECEC",
"..	c #565754",
"+.	c #5E605C",
"@.	c #A9AAA8",
"#.	c #E0E0E0",
"$.	c #5A5B57",
"%.	c #71736E",
"&.	c #686865",
"*.	c #C3C3C2",
"=.	c #5D5F5B",
"-.	c #6D6E6C",
";.	c #797A77",
">.	c #61625E",
",.	c #6B6E69",
"'.	c #929390",
").	c #656662",
"!.	c #6C6D69",
"~.	c #ADAEAC",
"{.	c #686A65",
"].	c #7F807B",
"^.	c #747571",
"/.	c #C5C6C4",
"(.	c #797B77",
"_.	c #838581",
":.	c #D9D9D9",
"<.	c #FEFEFE",
"[.	c #6F716C",
"}.	c #787A75",
"|.	c #999B97",
"1.	c #737570",
"                                                        ",
"                                                        ",
"                                                . + @   ",
"                                              # $ % @   ",
"                                          & * = - ; @   ",
"                                      > , ' ) ! ~ ; @   ",
"                                  { ] ^ ) / ~ ( ( ; @   ",
"                                # _ : < [ ( ( ( ( ; @   ",
"                            } | 1 - 2 ( ( ( ( ( ( ; @   ",
"                        3 4 5 6 7 ( ( ( ( ( ( ( ( ; @   ",
"                    8 9 0 a b c ( ( ( ( ( ( ( ( ( ; @   ",
"                  } d e f ! ( ( ( ( ( ( ( ( ( ( ( ; @   ",
"              g h i : j ( ( ( ( ( ( ( ( ( ( ( ( ( ; @   ",
"          k l m ) / ( ( ( ( ( ( ( ( ( ( ( ( ( ( ( ; @   ",
"      n o p a 2 q r s t u ~ ( ( ( ( ( ( ( ( ( ( ( ; @   ",
"    ] v w e r x x x x x x x y z s t A B C D [ ( [ ; @   ",
"      E F G H I x x x x x x x x x x x x x x x J K ; L   ",
"          M N O / P x x x x x x x x x x x x x x x ; +   ",
"            Q R S a [ T x x x x x x x x x x x x x ; U   ",
"                V W X O Y x x x x x x x x x x x x ; Z   ",
"                    V ` G  .s x x x x x x x x x x ; ..  ",
"                        +.@.O #.P x x x x x x x x ; $.  ",
"                          %.&.*.a ( T x x x x x x ; =.  ",
"                              -.;.X O A x x x x x ; >.  ",
"                                  ,.'.G  .s x x x ; ).  ",
"                                      !.~.w b P x ; {.  ",
"                                        ].^./.a c ; !.  ",
"                                            (._.:.<.[.  ",
"                                                }.|.1.  ",
"                                                    _.  ",
"                                                        ",
"                                                        "};
