/* XPM */
static const char * fastback_on_xpm[] = {
"50 32 278 2",
"  	c None",
". 	c #42444C",
"+ 	c #4A4B4C",
"@ 	c #43444D",
"# 	c #454644",
"$ 	c #404049",
"% 	c #606070",
"& 	c #C4C4EF",
"* 	c #7C7CA1",
"= 	c #41424D",
"- 	c #62637A",
"; 	c #C7C7F3",
"> 	c #4F5054",
", 	c #3D3D42",
"' 	c #4E4F56",
") 	c #A4A4D7",
"! 	c #EDEDFE",
"~ 	c #E6E6FF",
"{ 	c #3D3E46",
"] 	c #50505B",
"^ 	c #A8A8DE",
"/ 	c #ECECFE",
"( 	c #F9F9FF",
"_ 	c #44454B",
": 	c #8787B3",
"< 	c #E9E9FD",
"[ 	c #BDBDFF",
"} 	c #9696FF",
"| 	c #C4C4FF",
"1 	c #45464D",
"2 	c #8A8ABD",
"3 	c #EBEBFD",
"4 	c #B9B9FF",
"5 	c #ECECFF",
"6 	c #42424B",
"7 	c #6A6A85",
"8 	c #D3D3F6",
"9 	c #D4D4FF",
"0 	c #9B9BFF",
"a 	c #9494FF",
"b 	c #42434D",
"c 	c #6E6E91",
"d 	c #D7D7F9",
"e 	c #D0D0FF",
"f 	c #9A9AFF",
"g 	c #3E4047",
"h 	c #555760",
"i 	c #B2B3E4",
"j 	c #E8E8FE",
"k 	c #A5A5FF",
"l 	c #3F404A",
"m 	c #585969",
"n 	c #B9B9EA",
"o 	c #A2A2FF",
"p 	c #3A3C3B",
"q 	c #47484D",
"r 	c #9494C5",
"s 	c #B4B4FF",
"t 	c #3B3C41",
"u 	c #4A4B51",
"v 	c #9A9AD0",
"w 	c #EEEEFE",
"x 	c #B0B0FF",
"y 	c #9595FF",
"z 	c #43444C",
"A 	c #77779B",
"B 	c #DFDFFA",
"C 	c #C9C9FF",
"D 	c #7D7DA9",
"E 	c #E4E4FC",
"F 	c #9797FF",
"G 	c #5F606F",
"H 	c #C2C2EE",
"I 	c #DDDDFF",
"J 	c #9292FF",
"K 	c #62637B",
"L 	c #CACAF3",
"M 	c #DBDBFF",
"N 	c #9D9DFF",
"O 	c #424247",
"P 	c #4D4E54",
"Q 	c #A2A3D5",
"R 	c #8989FF",
"S 	c #2E2EFF",
"T 	c #2A2AFF",
"U 	c #4444FF",
"V 	c #5D5DFF",
"W 	c #7676FF",
"X 	c #8E8EFF",
"Y 	c #42434A",
"Z 	c #51525A",
"` 	c #A9A9DE",
" .	c #A8A8FF",
"..	c #8585B1",
"+.	c #E8E8FD",
"@.	c #ADADFF",
"#.	c #3C3CFF",
"$.	c #3939FF",
"%.	c #4646FF",
"&.	c #5151FF",
"*.	c #5C5CFF",
"=.	c #BEBEFF",
"-.	c #7C7DA1",
";.	c #434445",
">.	c #46474D",
",.	c #8C8CBF",
"'.	c #505055",
").	c #44454E",
"!.	c #696A84",
"~.	c #D1D1F5",
"{.	c #5555FF",
"].	c #B6B6FF",
"^.	c #4B4B49",
"/.	c #707093",
"(.	c #D9D9F9",
"_.	c #505155",
":.	c #47474F",
"<.	c #55565F",
"[.	c #B1B1E3",
"}.	c #7777FF",
"|.	c #49494C",
"1.	c #595A68",
"2.	c #BABBEB",
"3.	c #E2E2FF",
"4.	c #7171FF",
"5.	c #5050FF",
"6.	c #6060FF",
"7.	c #8080FF",
"8.	c #9090FF",
"9.	c #45474C",
"0.	c #6B6B8D",
"a.	c #F3F3FE",
"b.	c #3434FF",
"c.	c #7A7B9E",
"d.	c #72728F",
"e.	c #F1F1F8",
"f.	c #A3A3FF",
"g.	c #3030FF",
"h.	c #3636FF",
"i.	c #4747FF",
"j.	c #5757FF",
"k.	c #6767FF",
"l.	c #7474FF",
"m.	c #7B7BFF",
"n.	c #8585FF",
"o.	c #8B8BFF",
"p.	c #9191FF",
"q.	c #484952",
"r.	c #DEDEFA",
"s.	c #BFBFFF",
"t.	c #4848FF",
"u.	c #535457",
"v.	c #9FA0D1",
"w.	c #8C8CFF",
"x.	c #2F2FFF",
"y.	c #2C2CFF",
"z.	c #EBEBFF",
"A.	c #525356",
"B.	c #5A5A5C",
"C.	c #4E4F55",
"D.	c #9595C6",
"E.	c #9C9CFF",
"F.	c #7F80A4",
"G.	c #656562",
"H.	c #51535C",
"I.	c #616273",
"J.	c #BFBFEE",
"K.	c #E0E0FF",
"L.	c #6969FF",
"M.	c #55565A",
"N.	c #56575F",
"O.	c #5D5E67",
"P.	c #B2B2E3",
"Q.	c #E9E9FE",
"R.	c #7979FF",
"S.	c #8181A6",
"T.	c #4F505A",
"U.	c #78799D",
"V.	c #DCDCFA",
"W.	c #C2C2FF",
"X.	c #4A4AFF",
"Y.	c #595A5D",
"Z.	c #56565F",
"`.	c #71728A",
" +	c #D0D0F5",
".+	c #D1D1FF",
"++	c #8384A7",
"@+	c #656667",
"#+	c #53555B",
"$+	c #9394C7",
"%+	c #9F9FFF",
"&+	c #3535FF",
"*+	c #5C5E60",
"=+	c #55575F",
"-+	c #8A8BB6",
";+	c #AFAFFF",
">+	c #3E3EFF",
",+	c #8486AA",
"'+	c #5F5F68",
")+	c #61626C",
"!+	c #B0B0E4",
"~+	c #EAEAFE",
"{+	c #7C7CFF",
"]+	c #2B2BFF",
"^+	c #5F5F63",
"/+	c #6A6A6E",
"(+	c #606167",
"_+	c #A5A6D8",
":+	c #8687AB",
"<+	c #5B5D67",
"[+	c #73748F",
"}+	c #CECEF6",
"|+	c #D3D3FF",
"1+	c #5959FF",
"2+	c #626366",
"3+	c #63646E",
"4+	c #6F717F",
"5+	c #C1C1EF",
"6+	c #898AAE",
"7+	c #5C5D65",
"8+	c #8B8CB9",
"9+	c #E7E7FD",
"0+	c #B2B2FF",
"a+	c #3F3FFF",
"b+	c #656769",
"c+	c #61626B",
"d+	c #8384A6",
"e+	c #8A8BB0",
"f+	c #727478",
"g+	c #64666D",
"h+	c #A3A4DA",
"i+	c #8F8FFF",
"j+	c #696A6D",
"k+	c #7E8080",
"l+	c #65676B",
"m+	c #9B9BCB",
"n+	c #9E9EFF",
"o+	c #8C8CB2",
"p+	c #696B74",
"q+	c #727385",
"r+	c #BFBFEF",
"s+	c #E1E1FF",
"t+	c #6B6BFF",
"u+	c #6C6D70",
"v+	c #737479",
"w+	c #72737B",
"x+	c #B5B5E6",
"y+	c #8E8EB3",
"z+	c #666871",
"A+	c #8485AA",
"B+	c #DBDBFB",
"C+	c #C5C5FF",
"D+	c #4D4DFF",
"E+	c #6F7173",
"F+	c #6C6E76",
"G+	c #808298",
"H+	c #D0D0F6",
"I+	c #9090B4",
"J+	c #6A6C72",
"K+	c #9A9BCE",
"L+	c #EFEFFF",
"M+	c #737476",
"N+	c #6D6F74",
"O+	c #9495BE",
"P+	c #9192B6",
"Q+	c #76787F",
"R+	c #757780",
"S+	c #B2B2E7",
"T+	c #FCFCFE",
"U+	c #76787A",
"V+	c #7F8184",
"W+	c #75787C",
"X+	c #7B7D88",
"Y+	c #71737D",
"Z+	c #83849E",
"`+	c #757674",
" @	c #808285",
".@	c #7A7C85",
"                                                                                                    ",
"                                                                                                    ",
"                                                . +                                           @ #   ",
"                                            $ % & *                                       = - ; >   ",
"                                        , ' ) ! ~ *                                   { ] ^ / ( >   ",
"                                      _ : < [ } | *                                 1 2 3 4 } 5 >   ",
"                                  6 7 8 9 0 a a | *                             b c d e f a a 5 >   ",
"                              g h i j k a a a a | *                         l m n ~ o a a a a 5 >   ",
"                          p q r ! s } a a a a a | *                     t u v w x y a a a a a 5 >   ",
"                        z A B C f a a a a a a a | *                   z D E | F a a a a a a a 5 >   ",
"                    6 G H I J J a a a a a a a a | *               b K L M N a a a a a a a a a 5 >   ",
"                O P Q ! R S T S U V W X a a a a | *           Y Z ` /  .a a a a a a a a a a a 5 >   ",
"              _ ..+.@.#.T T T T T T T T $.%.&.*.=.-.      ;.>.,.3 4 F a a a a a a a a a a a a 5 '.  ",
"          ).!.~.e {.T T T T T T T T T T T T T T ].-.^.  )./.(.e f a a a a a a a a a a a a a a 5 _.  ",
"      :.<.[.j }.T T T T T T T T T T T T T T T T ].* |.1.2.3.4.5.6.4.7.8.a a a a a a a a a a a 5 _.  ",
"    9.0.a.C b.T T T T T T T T T T T T T T T T T ].c.d.e.f.g.T T T T T T h.i.j.k.l.m.7.n.o.p.a 5 _.  ",
"      q.A r.s.t.T T T T T T T T T T T T T T T T ].* u.v.! w.x.T T T T T T T T T T T T T T T y.z.A.  ",
"        B.C.D.! E.b.T T T T T T T T T T T T T T ].F.G.H.I.J.K.L.T T T T T T T T T T T T T T T z.M.  ",
"            N.O.P.Q.R.T T T T T T T T T T T T T ].S.      T.U.V.W.X.T T T T T T T T T T T T T z.Y.  ",
"                Z.`. +.+j.T T T T T T T T T T T ].++        @+#+$+/ %+&+T T T T T T T T T T T z.*+  ",
"                    =+-++.;+>+T T T T T T T T T ].,+            '+)+!+~+{+]+T T T T T T T T T z.^+  ",
"                      /+(+_+w w.x.T T T T T T T ].:+                <+[+}+|+1+T T T T T T T T z.2+  ",
"                          3+4+5+K.L.T T T T T T ].6+                    7+8+9+0+a+T T T T T T z.b+  ",
"                              c+d+r.W.X.T T T T ].e+                      f+g+h+w i+x.T T T T z.j+  ",
"                                k+l+m+! n+&+T T ].o+                          p+q+r+s+t+T T T z.u+  ",
"                                    v+w+x+~+m.T ].y+                              z+A+B+C+D+T z.E+  ",
"                                        F+G+H+|+9 I+                                  J+K+/ o L+M+  ",
"                                            N+O++.P+                                    Q+R+S+T+U+  ",
"                                              V+W+X+                                        Y+Z+`+  ",
"                                                   @                                            .@  ",
"                                                                                                    ",
"                                                                                                    "};
