/* XPM */
static const char * fastfwd_off_xpm[] = {
"51 32 216 2",
"  	c None",
". 	c #474845",
"+ 	c #484946",
"@ 	c #444441",
"# 	c #4D4E4B",
"$ 	c #494A47",
"% 	c #4B4C49",
"& 	c #C2C3C2",
"* 	c #545552",
"= 	c #434341",
"- 	c #C8C8C8",
"; 	c #C7C7C7",
"> 	c #585955",
", 	c #444643",
"' 	c #4C4D4A",
") 	c #FEFEFE",
"! 	c #F5F5F5",
"~ 	c #A6A6A4",
"{ 	c #4A4B48",
"] 	c #CCCCCB",
"^ 	c #F0F0F0",
"/ 	c #ACADAC",
"( 	c #3C3C3A",
"_ 	c #FAFAFA",
": 	c #D6D6D6",
"< 	c #ECECEC",
"[ 	c #EBEBEB",
"} 	c #858683",
"| 	c #494A48",
"1 	c #DCDCDC",
"2 	c #D5D5D5",
"3 	c #E9E9E9",
"4 	c #EDEEED",
"5 	c #8C8D8C",
"6 	c #D4D4D4",
"7 	c #D9D9D9",
"8 	c #F3F3F3",
"9 	c #676865",
"0 	c #474846",
"a 	c #D8D8D8",
"b 	c #F1F1F1",
"c 	c #DDDDDD",
"d 	c #6C6D6B",
"e 	c #494A46",
"f 	c #DEDEDE",
"g 	c #F7F7F7",
"h 	c #C0C0BF",
"i 	c #535451",
"j 	c #424340",
"k 	c #F6F6F6",
"l 	c #C6C7C6",
"m 	c #555654",
"n 	c #454543",
"o 	c #E4E4E4",
"p 	c #A3A4A3",
"q 	c #E2E2E2",
"r 	c #ABABAB",
"s 	c #3D3D3B",
"t 	c #D7D7D7",
"u 	c #EDEDED",
"v 	c #EAEAEA",
"w 	c #838481",
"x 	c #454542",
"y 	c #8A8B8A",
"z 	c #4A4A48",
"A 	c #F4F4F4",
"B 	c #646563",
"C 	c #494947",
"D 	c #474744",
"E 	c #D1D1D1",
"F 	c #D0D0D0",
"G 	c #DDDDDC",
"H 	c #6B6C6A",
"I 	c #DFDFDF",
"J 	c #BEBFBE",
"K 	c #525350",
"L 	c #464744",
"M 	c #494946",
"N 	c #CCCCCC",
"O 	c #C3C3C3",
"P 	c #B9B9B9",
"Q 	c #B0B0B0",
"R 	c #AAAAAA",
"S 	c #CECECE",
"T 	c #C5C6C5",
"U 	c #565754",
"V 	c #474946",
"W 	c #E5E5E5",
"X 	c #A2A2A1",
"Y 	c #4A4A47",
"Z 	c #D3D3D3",
"` 	c #B4B4B4",
" .	c #DBDBDB",
"..	c #AAAAA9",
"+.	c #464844",
"@.	c #EAEAE9",
"#.	c #81827F",
"$.	c #4C4C49",
"%.	c #B8B8B8",
"&.	c #E7E7E7",
"*.	c #898A88",
"=.	c #4B4C4A",
"-.	c #C6C6C6",
";.	c #BFBFBF",
">.	c #CACACA",
",.	c #646562",
"'.	c #4F4F4E",
").	c #4E4E4C",
"!.	c #F2F2F2",
"~.	c #DCDCDB",
"{.	c #6B6B69",
"].	c #4C4E4B",
"^.	c #D2D2D2",
"/.	c #CFCFCF",
"(.	c #CDCDCD",
"_.	c #C2C2C2",
":.	c #BBBBBB",
"<.	c #B5B5B5",
"[.	c #AFAFAF",
"}.	c #ACACAC",
"|.	c #FBFBFB",
"1.	c #B8B8B7",
"2.	c #ADADAD",
"3.	c #EEEEEE",
"4.	c #7A7B78",
"5.	c #AEAEAE",
"6.	c #BDBDBD",
"7.	c #E6E6E6",
"8.	c #7C7D7B",
"9.	c #515250",
"0.	c #6D6E6B",
"a.	c #545451",
"b.	c #51524F",
"c.	c #E1E1E1",
"d.	c #9E9E9D",
"e.	c #5C5C5B",
"f.	c #E8E8E8",
"g.	c #8D8E8C",
"h.	c #555552",
"i.	c #545652",
"j.	c #F8F8F8",
"k.	c #BCBCBB",
"l.	c #595B57",
"m.	c #5F605C",
"n.	c #5D5E5A",
"o.	c #CDCDCC",
"p.	c #AEAEAD",
"q.	c #575854",
"r.	c #585956",
"s.	c #C9C9C9",
"t.	c #5E5F5D",
"u.	c #61625F",
"v.	c #CECECD",
"w.	c #C8C9C8",
"x.	c #636461",
"y.	c #636562",
"z.	c #5C5D59",
"A.	c #878885",
"B.	c #666763",
"C.	c #797A77",
"D.	c #626460",
"E.	c #5F615D",
"F.	c #A6A6A5",
"G.	c #6B6C69",
"H.	c #CFCFCE",
"I.	c #969795",
"J.	c #626360",
"K.	c #636460",
"L.	c #C1C1C0",
"M.	c #676864",
"N.	c #737470",
"O.	c #6F716C",
"P.	c #CFD0CF",
"Q.	c #B4B4B2",
"R.	c #646561",
"S.	c #666764",
"T.	c #787975",
"U.	c #6E706C",
"V.	c #737471",
"W.	c #6F716F",
"X.	c #757773",
"Y.	c #696B66",
"Z.	c #91928F",
"`.	c #6C6D69",
" +	c #767873",
".+	c #D1D1D0",
"++	c #E0E0DF",
"@+	c #848681",
"#+	c #70726E",
"$+	c #6D6F6A",
"%+	c #797B78",
"&+	c #D1D2D1",
"*+	c #9FA09E",
"=+	c #70726D",
"-+	c #C6C6C5",
";+	c #757672",
">+	c #7E807C",
",+	c #7E7E7B",
"'+	c #D2D2D1",
")+	c #B9BAB8",
"!+	c #71736E",
"~+	c #747671",
"{+	c #FFFFFF",
"]+	c #DADADA",
"^+	c #848582",
"/+	c #797B77",
"(+	c #7F817E",
"_+	c #7D7E7A",
":+	c #7E7F7B",
"<+	c #757771",
"[+	c #9B9C99",
"}+	c #787A74",
"|+	c #838580",
"1+	c #787A76",
"2+	c #7C7D79",
"3+	c #81837F",
"                                                                                                      ",
"                                                                                                      ",
"  . +                                           @ # $                                                 ",
"  % & * =                                       @ - ; > ,                                             ",
"  ' ) ! ~ {                                     @ ] ^ ! / ' (                                         ",
"  ' _ : < [ } |                                 @ ] 1 2 3 4 5 {                                       ",
"  ' _ 6 6 7 8 7 9 0                             @ ] 1 6 6 a b c d e                                   ",
"  ' _ 6 6 6 6 f g h i j                         @ ] 1 6 6 6 6 1 k l m n                               ",
"  ' _ 6 6 6 6 6 2 o ! p {                       @ ] 1 6 6 6 6 6 2 q k r % s                           ",
"  ' _ 6 6 6 6 6 6 6 t u v w |                   x ] 1 6 6 6 6 6 6 6 : v u y z                         ",
"  ' _ 6 6 6 6 6 6 6 6 6 7 A t B C               D ] 1 6 6 6 6 6 6 6 6 E F b G H z                     ",
"  ' _ 6 6 6 6 6 6 6 6 6 6 2 I g J K L           M ] 1 6 6 6 6 N O P Q R R r S g T U V                 ",
"  ' _ 6 6 6 6 6 6 6 6 6 6 6 6 2 W A X z         Y ] Z P ` Q r R R R R R R R R Q  .k ..' +.            ",
"  ' _ 6 6 6 6 6 6 6 6 6 6 6 6 6 6 t u @.#.%     $.] N R R R R R R R R R R R R R R %.&.u *.=.          ",
"  ' _ 6 6 6 6 6 6 6 6 6 6 6 6 Z N -.;.>.A : ,.'.).] N R R R R R R R R R R R R R R R R O !.~.{.].      ",
"  ' _ 6 6 6 6 ^./.(.- _.:.<.[.R R R R R }.Z |.1.' ] N R R R R R R R R R R R R R R R R R 2.3.|.4.=.    ",
"  # _ Q 5.}.R R R R R R R R R R R R R R 6.u 7.8.9.N N R R R R R R R R R R R R R R R R O !.1 0.a.      ",
"  b._ R R R R R R R R R R R R R R R ` c.8 d.b.  e.N N R R R R R R R R R R R R R R %.f.u g.h.          ",
"  i._ R R R R R R R R R R R R R 2.2 j.k.l.m.    n.o.N R R R R R R R R R R R R Q 1 k p.q.              ",
"  r._ R R R R R R R R R R R R s.! 6 H t.        u.v.N R R R R R R R R R R r /.g w.x.y.                ",
"  z._ R R R R R R R R R R 6.u f.A.m.            B.S N R R R R R R R R R O !.f C.D.                    ",
"  E._ R R R R R R R R ` c.A F.m.                G.H.N R R R R R R R %.f.3.I.J.                        ",
"  K._ R R R R R R 2.2 j.L.M.N.                  O.P.N R R R R R Q 1 k Q.R.                            ",
"  S._ R R R R R s.! t T.U.                      V.F N R R R r /.g ] W.X.                              ",
"  Y._ R R R 6.u 3 Z.`.                           +.+N R R O !.++@+#+                                  ",
"  $+_ R ` c.A p.`.                              %+&+N %.f.3.*+U.                                      ",
"  =+|.2 j.-+;+>+                                ,+'+^ k )+!+                                          ",
"  ~+{+]+^+/+                                    (+P.H._+:+                                            ",
"  <+[+}+                                        |+1+2+                                                ",
"  3+                                                                                                  ",
"                                                                                                      ",
"                                                                                                      "};
