/* XPM */
static const char * fastfwd_on_xpm[] = {
"50 32 278 2",
"  	c None",
". 	c #454644",
"+ 	c #43444D",
"@ 	c #4A4B4C",
"# 	c #42444C",
"$ 	c #4F5054",
"% 	c #C7C7F3",
"& 	c #62637A",
"* 	c #41424D",
"= 	c #7C7CA1",
"- 	c #C4C4EF",
"; 	c #606070",
"> 	c #404049",
", 	c #F9F9FF",
"' 	c #ECECFE",
") 	c #A8A8DE",
"! 	c #50505B",
"~ 	c #3D3E46",
"{ 	c #E6E6FF",
"] 	c #EDEDFE",
"^ 	c #A4A4D7",
"/ 	c #4E4F56",
"( 	c #3D3D42",
"_ 	c #ECECFF",
": 	c #9696FF",
"< 	c #B9B9FF",
"[ 	c #EBEBFD",
"} 	c #8A8ABD",
"| 	c #45464D",
"1 	c #C4C4FF",
"2 	c #BDBDFF",
"3 	c #E9E9FD",
"4 	c #8787B3",
"5 	c #44454B",
"6 	c #9494FF",
"7 	c #9A9AFF",
"8 	c #D0D0FF",
"9 	c #D7D7F9",
"0 	c #6E6E91",
"a 	c #42434D",
"b 	c #9B9BFF",
"c 	c #D4D4FF",
"d 	c #D3D3F6",
"e 	c #6A6A85",
"f 	c #42424B",
"g 	c #A2A2FF",
"h 	c #B9B9EA",
"i 	c #585969",
"j 	c #3F404A",
"k 	c #A5A5FF",
"l 	c #E8E8FE",
"m 	c #B2B3E4",
"n 	c #555760",
"o 	c #3E4047",
"p 	c #9595FF",
"q 	c #B0B0FF",
"r 	c #EEEEFE",
"s 	c #9A9AD0",
"t 	c #4A4B51",
"u 	c #3B3C41",
"v 	c #B4B4FF",
"w 	c #9494C5",
"x 	c #47484D",
"y 	c #3A3C3B",
"z 	c #9797FF",
"A 	c #E4E4FC",
"B 	c #7D7DA9",
"C 	c #43444C",
"D 	c #C9C9FF",
"E 	c #DFDFFA",
"F 	c #77779B",
"G 	c #9D9DFF",
"H 	c #DBDBFF",
"I 	c #CACAF3",
"J 	c #62637B",
"K 	c #9292FF",
"L 	c #DDDDFF",
"M 	c #C2C2EE",
"N 	c #5F606F",
"O 	c #A8A8FF",
"P 	c #A9A9DE",
"Q 	c #51525A",
"R 	c #42434A",
"S 	c #8E8EFF",
"T 	c #7676FF",
"U 	c #5D5DFF",
"V 	c #4444FF",
"W 	c #2E2EFF",
"X 	c #2A2AFF",
"Y 	c #8989FF",
"Z 	c #A2A3D5",
"` 	c #4D4E54",
" .	c #424247",
"..	c #505055",
"+.	c #8C8CBF",
"@.	c #46474D",
"#.	c #434445",
"$.	c #7C7DA1",
"%.	c #BEBEFF",
"&.	c #5C5CFF",
"*.	c #5151FF",
"=.	c #4646FF",
"-.	c #3939FF",
";.	c #3C3CFF",
">.	c #ADADFF",
",.	c #E8E8FD",
"'.	c #8585B1",
").	c #505155",
"!.	c #D9D9F9",
"~.	c #707093",
"{.	c #44454E",
"].	c #4B4B49",
"^.	c #B6B6FF",
"/.	c #5555FF",
"(.	c #D1D1F5",
"_.	c #696A84",
":.	c #9090FF",
"<.	c #8080FF",
"[.	c #7171FF",
"}.	c #6060FF",
"|.	c #5050FF",
"1.	c #E2E2FF",
"2.	c #BABBEB",
"3.	c #595A68",
"4.	c #49494C",
"5.	c #7777FF",
"6.	c #B1B1E3",
"7.	c #55565F",
"8.	c #47474F",
"9.	c #9191FF",
"0.	c #8B8BFF",
"a.	c #8585FF",
"b.	c #7B7BFF",
"c.	c #7474FF",
"d.	c #6767FF",
"e.	c #5757FF",
"f.	c #4747FF",
"g.	c #3636FF",
"h.	c #3030FF",
"i.	c #A3A3FF",
"j.	c #F1F1F8",
"k.	c #72728F",
"l.	c #7A7B9E",
"m.	c #3434FF",
"n.	c #F3F3FE",
"o.	c #6B6B8D",
"p.	c #45474C",
"q.	c #525356",
"r.	c #EBEBFF",
"s.	c #2C2CFF",
"t.	c #2F2FFF",
"u.	c #8C8CFF",
"v.	c #9FA0D1",
"w.	c #535457",
"x.	c #4848FF",
"y.	c #BFBFFF",
"z.	c #DEDEFA",
"A.	c #484952",
"B.	c #55565A",
"C.	c #6969FF",
"D.	c #E0E0FF",
"E.	c #BFBFEE",
"F.	c #616273",
"G.	c #51535C",
"H.	c #656562",
"I.	c #7F80A4",
"J.	c #9C9CFF",
"K.	c #9595C6",
"L.	c #4E4F55",
"M.	c #5A5A5C",
"N.	c #595A5D",
"O.	c #4A4AFF",
"P.	c #C2C2FF",
"Q.	c #DCDCFA",
"R.	c #78799D",
"S.	c #4F505A",
"T.	c #8181A6",
"U.	c #7979FF",
"V.	c #E9E9FE",
"W.	c #B2B2E3",
"X.	c #5D5E67",
"Y.	c #56575F",
"Z.	c #5C5E60",
"`.	c #3535FF",
" +	c #9F9FFF",
".+	c #9394C7",
"++	c #53555B",
"@+	c #656667",
"#+	c #8384A7",
"$+	c #D1D1FF",
"%+	c #D0D0F5",
"&+	c #71728A",
"*+	c #56565F",
"=+	c #5F5F63",
"-+	c #2B2BFF",
";+	c #7C7CFF",
">+	c #EAEAFE",
",+	c #B0B0E4",
"'+	c #61626C",
")+	c #5F5F68",
"!+	c #8486AA",
"~+	c #3E3EFF",
"{+	c #AFAFFF",
"]+	c #8A8BB6",
"^+	c #55575F",
"/+	c #626366",
"(+	c #5959FF",
"_+	c #D3D3FF",
":+	c #CECEF6",
"<+	c #73748F",
"[+	c #5B5D67",
"}+	c #8687AB",
"|+	c #A5A6D8",
"1+	c #606167",
"2+	c #6A6A6E",
"3+	c #656769",
"4+	c #3F3FFF",
"5+	c #B2B2FF",
"6+	c #E7E7FD",
"7+	c #8B8CB9",
"8+	c #5C5D65",
"9+	c #898AAE",
"0+	c #C1C1EF",
"a+	c #6F717F",
"b+	c #63646E",
"c+	c #696A6D",
"d+	c #8F8FFF",
"e+	c #A3A4DA",
"f+	c #64666D",
"g+	c #727478",
"h+	c #8A8BB0",
"i+	c #8384A6",
"j+	c #61626B",
"k+	c #6C6D70",
"l+	c #6B6BFF",
"m+	c #E1E1FF",
"n+	c #BFBFEF",
"o+	c #727385",
"p+	c #696B74",
"q+	c #8C8CB2",
"r+	c #9E9EFF",
"s+	c #9B9BCB",
"t+	c #65676B",
"u+	c #7E8080",
"v+	c #6F7173",
"w+	c #4D4DFF",
"x+	c #C5C5FF",
"y+	c #DBDBFB",
"z+	c #8485AA",
"A+	c #666871",
"B+	c #8E8EB3",
"C+	c #B5B5E6",
"D+	c #72737B",
"E+	c #737479",
"F+	c #737476",
"G+	c #EFEFFF",
"H+	c #9A9BCE",
"I+	c #6A6C72",
"J+	c #9090B4",
"K+	c #D0D0F6",
"L+	c #808298",
"M+	c #6C6E76",
"N+	c #76787A",
"O+	c #FCFCFE",
"P+	c #B2B2E7",
"Q+	c #757780",
"R+	c #76787F",
"S+	c #9192B6",
"T+	c #9495BE",
"U+	c #6D6F74",
"V+	c #757674",
"W+	c #83849E",
"X+	c #71737D",
"Y+	c #7B7D88",
"Z+	c #75787C",
"`+	c #7F8184",
" @	c #7A7C85",
".@	c #808285",
"                                                                                                    ",
"                                                                                                    ",
"  . +                                           @ #                                                 ",
"  $ % & *                                       = - ; >                                             ",
"  $ , ' ) ! ~                                   = { ] ^ / (                                         ",
"  $ _ : < [ } |                                 = 1 : 2 3 4 5                                       ",
"  $ _ 6 6 7 8 9 0 a                             = 1 6 6 b c d e f                                   ",
"  $ _ 6 6 6 6 g { h i j                         = 1 6 6 6 6 k l m n o                               ",
"  $ _ 6 6 6 6 6 p q r s t u                     = 1 6 6 6 6 6 : v ] w x y                           ",
"  $ _ 6 6 6 6 6 6 6 z 1 A B C                   = 1 6 6 6 6 6 6 6 7 D E F C                         ",
"  $ _ 6 6 6 6 6 6 6 6 6 G H I J a               = 1 6 6 6 6 6 6 6 6 K K L M N f                     ",
"  $ _ 6 6 6 6 6 6 6 6 6 6 6 O ' P Q R           = 1 6 6 6 6 S T U V W X W Y ] Z `  .                ",
"  .._ 6 6 6 6 6 6 6 6 6 6 6 6 z < [ +.@.#.      $.%.&.*.=.-.X X X X X X X X ;.>.,.'.5               ",
"  )._ 6 6 6 6 6 6 6 6 6 6 6 6 6 6 7 8 !.~.{.  ].$.^.X X X X X X X X X X X X X X /.8 (._.{.          ",
"  )._ 6 6 6 6 6 6 6 6 6 6 6 :.<.[.}.|.[.1.2.3.4.= ^.X X X X X X X X X X X X X X X X 5.l 6.7.8.      ",
"  )._ 6 9.0.a.<.b.c.d.e.f.g.X X X X X X h.i.j.k.l.^.X X X X X X X X X X X X X X X X X m.D n.o.p.    ",
"  q.r.s.X X X X X X X X X X X X X X X t.u.] v.w.= ^.X X X X X X X X X X X X X X X X x.y.z.F A.      ",
"  B.r.X X X X X X X X X X X X X X X C.D.E.F.G.H.I.^.X X X X X X X X X X X X X X m.J.] K.L.M.        ",
"  N.r.X X X X X X X X X X X X X O.P.Q.R.S.      T.^.X X X X X X X X X X X X X U.V.W.X.Y.            ",
"  Z.r.X X X X X X X X X X X `. +' .+++@+        #+^.X X X X X X X X X X X e.$+%+&+*+                ",
"  =+r.X X X X X X X X X -+;+>+,+'+)+            !+^.X X X X X X X X X ~+{+,.]+^+                    ",
"  /+r.X X X X X X X X (+_+:+<+[+                }+^.X X X X X X X t.u.r |+1+2+                      ",
"  3+r.X X X X X X 4+5+6+7+8+                    9+^.X X X X X X C.D.0+a+b+                          ",
"  c+r.X X X X t.d+r e+f+g+                      h+^.X X X X O.P.z.i+j+                              ",
"  k+r.X X X l+m+n+o+p+                          q+^.X X `.r+] s+t+u+                                ",
"  v+r.X w+x+y+z+A+                              B+^.X b.>+C+D+E+                                    ",
"  F+G+g ' H+I+                                  J+c _+K+L+M+                                        ",
"  N+O+P+Q+R+                                    S+,.T+U+                                            ",
"  V+W+X+                                        Y+Z+`+                                              ",
"   @                                            .@                                                  ",
"                                                                                                    ",
"                                                                                                    "};
