/* XPM */
static char * fastfwd_archive_xpm[] = {
"52 52 218 2",
"  	c None",
". 	c #41414F",
"+ 	c #404155",
"@ 	c #64647D",
"# 	c #3C3D4D",
"$ 	c #6D6E8B",
"% 	c #717192",
"& 	c #3C3E4E",
"* 	c #EFEFFE",
"= 	c #A3A4DB",
"- 	c #49495C",
"; 	c #8484A8",
"> 	c #EFEFFF",
", 	c #ADADE1",
"' 	c #4C4D5F",
") 	c #D1D1FB",
"! 	c #AAAAFF",
"~ 	c #D7D7FB",
"{ 	c #717195",
"] 	c #3E3E50",
"^ 	c #A6A6FF",
"/ 	c #DDDDFC",
"( 	c #77789E",
"_ 	c #3E3F4F",
": 	c #9494FF",
"< 	c #9898FF",
"[ 	c #CBCBFF",
"} 	c #ADADE3",
"| 	c #4D4E61",
"1 	c #9999FF",
"2 	c #CDCDFF",
"3 	c #B4B4E7",
"4 	c #4F5163",
"5 	c #DADAFC",
"6 	c #7A7AA3",
"7 	c #3F3F52",
"8 	c #A8A8FF",
"9 	c #DEDEFD",
"0 	c #7F7FA9",
"a 	c #3F4051",
"b 	c #9696FF",
"c 	c #C5C5FF",
"d 	c #B8B8EA",
"e 	c #525368",
"f 	c #C7C7FF",
"g 	c #BCBCED",
"h 	c #555569",
"i 	c #414156",
"j 	c #A2A2FF",
"k 	c #DBDBFD",
"l 	c #8383B0",
"m 	c #414255",
"n 	c #A5A5FF",
"o 	c #DCDCFD",
"p 	c #8787B6",
"q 	c #414253",
"r 	c #414356",
"s 	c #BEBEFF",
"t 	c #C1C1EF",
"u 	c #58596F",
"v 	c #9393FF",
"w 	c #8080FF",
"x 	c #6464FF",
"y 	c #4A4AFF",
"z 	c #3030FF",
"A 	c #3737FF",
"B 	c #AEAEFF",
"C 	c #C5C5F2",
"D 	c #595A6F",
"E 	c #434457",
"F 	c #9E9EFF",
"G 	c #DBDBFE",
"H 	c #8C8CBD",
"I 	c #444558",
"J 	c #8485A8",
"K 	c #8B8BFF",
"L 	c #4B4BFF",
"M 	c #3E3EFF",
"N 	c #2A2AFF",
"O 	c #DADAFE",
"P 	c #8E8EC1",
"Q 	c #454656",
"R 	c #444559",
"S 	c #9595FF",
"T 	c #B8B8FF",
"U 	c #C9CAF4",
"V 	c #5F5F79",
"W 	c #454553",
"X 	c #8585A8",
"Y 	c #7A7AFF",
"Z 	c #3333FF",
"` 	c #A3A3FF",
" .	c #CBCBF5",
"..	c #5F6079",
"+.	c #464651",
"@.	c #44455A",
"#.	c #8787FF",
"$.	c #7474FF",
"%.	c #6363FF",
"&.	c #5050FF",
"*.	c #3F3FFF",
"=.	c #5C5CFF",
"-.	c #D5D5FE",
";.	c #9797C8",
">.	c #484958",
",.	c #8484A7",
"'.	c #5A5AFF",
").	c #9797CC",
"!.	c #474858",
"~.	c #45465B",
"{.	c #CECEFB",
"].	c #5E5EFF",
"^.	c #5858FF",
"/.	c #5151FF",
"(.	c #2E2EFF",
"_.	c #F1F1FF",
":.	c #727397",
"<.	c #8484A6",
"[.	c #D0D0FE",
"}.	c #A2A2D2",
"|.	c #4D4D5E",
"1.	c #4A4A5F",
"2.	c #CBCBFB",
"3.	c #3535FF",
"4.	c #C9C9F4",
"5.	c #606276",
"6.	c #5A5A60",
"7.	c #8787AB",
"8.	c #2F2FFF",
"9.	c #D2D2F7",
"0.	c #6C6C83",
"a.	c #535462",
"b.	c #4E4F63",
"c.	c #6868FF",
"d.	c #DADAFD",
"e.	c #8D8DBC",
"f.	c #4F5061",
"g.	c #8A8BAC",
"h.	c #9C9CCB",
"i.	c #525364",
"j.	c #535467",
"k.	c #3A3AFF",
"l.	c #B2B2FF",
"m.	c #C1C1F0",
"n.	c #636476",
"o.	c #8D8DAF",
"p.	c #3232FF",
"q.	c #A1A1FF",
"r.	c #CCCCF5",
"s.	c #6C6D81",
"t.	c #62636F",
"u.	c #57596B",
"v.	c #7373FF",
"w.	c #898AB5",
"x.	c #595C6A",
"y.	c #8E8EB1",
"z.	c #6161FF",
"A.	c #D8D8FE",
"B.	c #9697C4",
"C.	c #5A5B6B",
"D.	c #5B5C70",
"E.	c #CCCCFB",
"F.	c #4040FF",
"G.	c #BDBDFF",
"H.	c #B9B9EC",
"I.	c #666777",
"J.	c #9090B3",
"K.	c #ABABFF",
"L.	c #C6C6F2",
"M.	c #6D6E81",
"N.	c #606174",
"O.	c #7E7EFF",
"P.	c #8686AD",
"Q.	c #656575",
"R.	c #9292B5",
"S.	c #6B6BFF",
"T.	c #9292BD",
"U.	c #616473",
"V.	c #636577",
"W.	c #4646FF",
"X.	c #C6C6FF",
"Y.	c #B2B2E7",
"Z.	c #6A6B7A",
"`.	c #9494B7",
" +	c #3C3CFF",
".+	c #B5B5FF",
"++	c #BFBFEF",
"@+	c #6E7081",
"#+	c #67697B",
"$+	c #CCCCFC",
"%+	c #2C2CFF",
"&+	c #8888FF",
"*+	c #D8D8FC",
"=+	c #8586A8",
"-+	c #6E707D",
";+	c #9696B8",
">+	c #7676FF",
",+	c #8F90B7",
"'+	c #6A6C7C",
")+	c #6B6C7F",
"!+	c #CECEFF",
"~+	c #ACACE2",
"{+	c #6E6F7E",
"]+	c #9798BA",
"^+	c #E8E8FF",
"/+	c #B7B7EB",
"(+	c #717383",
"_+	c #6E7083",
":+	c #CFCFF6",
"<+	c #8485A3",
"[+	c #767784",
"}+	c #8C8CA8",
"|+	c #8D8DB1",
"1+	c #737483",
"2+	c #747685",
"3+	c #737481",
"4+	c #757681",
"5+	c #000000",
"                                                                                                        ",
"                                                                                                        ",
"                                                                                                        ",
"                                                                                                        ",
"                                                                                                        ",
"                                                                                                        ",
"                                                                                                        ",
"                                                                                                        ",
"                                                                                                        ",
"                                                                                                        ",
"                                                    .                                                   ",
"                + @ #                               $ % &                                               ",
"                + * = -                             ; > , '                                             ",
"                + ) ! ~ { ]                         ; ^ ! / ( _                                         ",
"                + ) : < [ } |                       ; ^ : 1 2 3 4                                       ",
"                + ) : : : ^ 5 6 7                   ; ^ : : : 8 9 0 a                                   ",
"                + ) : : : : b c d e                 ; ^ : : : : 1 f g h                                 ",
"                i ) : : : : : : j k l m             ; ^ : : : : : : n o p q                             ",
"                r ) : : : : : : : b s t u           ; ^ : : v w x y z A B C D                           ",
"                E ) : : : : : : : : : F G H I       J K L M z N N N N N N x O P Q                       ",
"                R ) : : : : : : : : : : S T U V W   X Y N N N N N N N N N N Z `  ...+.                  ",
"                @.) : : : : : : : #.$.%.&.*.=.-.;.>.,.Y N N N N N N N N N N N N '.-.).!.                ",
"                ~.{.x ].^./.L *.(.N N N N N N x _.:.<.Y N N N N N N N N N N N N &.[.}.|.                ",
"                1.2.N N N N N N N N N N N 3.8 4.5.6.7.Y N N N N N N N N N N 8.b 9.0.a.                  ",
"                b.2.N N N N N N N N N N c.d.e.f.    g.Y N N N N N N N N N ^.-.h.i.                      ",
"                j.2.N N N N N N N N k.l.m.n.        o.Y N N N N N N N p.q.r.s.t.                        ",
"                u.2.N N N N N N N v.k w.x.          y.Y N N N N N N z.A.B.C.                            ",
"                D.E.N N N N N F.G.H.I.              J.Y N N N N A K.L.M.                                ",
"                N.E.N N N N O.5 P.Q.                R.Y N N N S.d.T.U.                                  ",
"                V.E.N N W.X.Y.Z.                    `.Y N  +.+++@+                                      ",
"                #+$+%+&+*+=+-+                      ;+Y >+d.,+'+                                        ",
"                )+k !+~+{+                          ]+^+/+(+                                            ",
"                _+:+<+[+                            }+|+1+                                              ",
"                2+3+                                4+                                                  ",
"                                                                                                        ",
"            5+5+5+      5+5+5+5+          5+5+5+5+  5+5+      5+5+  5+5+5+5+      5+5+  5+5+5+5+5+      ",
"            5+5+5+      5+5+  5+5+      5+5+    5+  5+5+      5+5+  5+5+  5+      5+    5+5+            ",
"            5+5+5+      5+5+  5+5+    5+5+          5+5+      5+5+  5+5+  5+5+  5+5+    5+5+            ",
"          5+5+5+5+5+    5+5+5+5+      5+5+          5+5+5+5+5+5+5+  5+5+  5+5+  5+5+    5+5+5+5+5+      ",
"          5+5+  5+5+    5+5+  5+5+    5+5+          5+5+      5+5+  5+5+    5+5+5+      5+5+            ",
"          5+5+5+5+5+    5+5+  5+5+      5+5+    5+  5+5+      5+5+  5+5+    5+5+5+      5+5+            ",
"        5+5+      5+5+  5+5+    5+5+      5+5+5+5+  5+5+      5+5+  5+5+    5+5+5+      5+5+5+5+5+      ",
"                                                                                                        ",
"                                                                                                        ",
"                                                                                                        ",
"                                                                                                        ",
"                                                                                                        ",
"                                                                                                        ",
"                                                                                                        ",
"                                                                                                        ",
"                                                                                                        ",
"                                                                                                        "};
