/* XPM */
static char * fastback_archive_xpm[] = {
"52 52 216 2",
"  	c None",
". 	c #40414F",
"+ 	c #3D3E4D",
"@ 	c #3F3F50",
"# 	c #7A7B9D",
"$ 	c #646575",
"% 	c #4E4F60",
"& 	c #7979A2",
"* 	c #545465",
"= 	c #B9B9E7",
"- 	c #F0F0FF",
"; 	c #747489",
"> 	c #404050",
", 	c #7E7EA6",
"' 	c #E3E3FD",
") 	c #B4B4E3",
"! 	c #424354",
"~ 	c #8585AD",
"{ 	c #DDDDFC",
"] 	c #A2A2FF",
"^ 	c #B3B3FF",
"/ 	c #545567",
"( 	c #BCBCEC",
"_ 	c #C6C6FF",
": 	c #9D9DFF",
"< 	c #5A5A6E",
"[ 	c #C5C5EF",
"} 	c #C0C0FF",
"| 	c #9696FF",
"1 	c #9494FF",
"2 	c #434353",
"3 	c #8989B5",
"4 	c #DDDDFD",
"5 	c #9A9AFF",
"6 	c #454556",
"7 	c #9191BD",
"8 	c #A0A0FF",
"9 	c #44464E",
"0 	c #5B5C71",
"a 	c #C6C6F2",
"b 	c #BDBDFF",
"c 	c #9797FF",
"d 	c #484855",
"e 	c #626378",
"f 	c #CECEF4",
"g 	c #BABAFF",
"h 	c #74748A",
"i 	c #474856",
"j 	c #9394C4",
"k 	c #DBDBFE",
"l 	c #9E9EFF",
"m 	c #474959",
"n 	c #9B9BCB",
"o 	c #D8D8FE",
"p 	c #9F9FFF",
"q 	c #494B55",
"r 	c #64657D",
"s 	c #D0D0F6",
"t 	c #B6B6FF",
"u 	c #4C4C5B",
"v 	c #6B6B84",
"w 	c #D5D5F8",
"x 	c #2F2FFF",
"y 	c #3737FF",
"z 	c #5151FF",
"A 	c #6C6CFF",
"B 	c #8787FF",
"C 	c #75768B",
"D 	c #4B4D5B",
"E 	c #9E9FD1",
"F 	c #D7D7FE",
"G 	c #9C9CFF",
"H 	c #515262",
"I 	c #A7A7D7",
"J 	c #CFCFFF",
"K 	c #4F4FFF",
"L 	c #2A2AFF",
"M 	c #3535FF",
"N 	c #4444FF",
"O 	c #A3A3FF",
"P 	c #78798D",
"Q 	c #51535F",
"R 	c #71728E",
"S 	c #D6D6F9",
"T 	c #AFAFFF",
"U 	c #9595FF",
"V 	c #B5B5E4",
"W 	c #545666",
"X 	c #797A99",
"Y 	c #D9DAFA",
"Z 	c #8989FF",
"` 	c #2C2CFF",
" .	c #7C7D91",
"..	c #585966",
"+.	c #ABABDE",
"@.	c #D0D0FF",
"#.	c #9999FF",
"$.	c #B6B6E4",
"%.	c #5C5F6D",
"&.	c #B2B2E3",
"*.	c #4646FF",
"=.	c #7D7E91",
"-.	c #8889A6",
";.	c #D9D9FB",
">.	c #8282FF",
",.	c #2B2BFF",
"'.	c #3333FF",
").	c #5757FF",
"!.	c #6969FF",
"~.	c #7C7CFF",
"{.	c #8D8DFF",
"].	c #B6B6E5",
"^.	c #6B6B7D",
"/.	c #C9C9F2",
"(.	c #AEAEFF",
"_.	c #7E8094",
":.	c #B4B4E2",
"<.	c #4747FF",
"[.	c #3434FF",
"}.	c #3C3CFF",
"|.	c #4343FF",
"1.	c #4949FF",
"2.	c #5050FF",
"3.	c #6767FF",
"4.	c #B7B7E6",
"5.	c #5F5F6F",
"6.	c #9292BC",
"7.	c #DCDCFD",
"8.	c #6E6EFF",
"9.	c #848699",
"0.	c #80828E",
"a.	c #7D809E",
"b.	c #D6D6FA",
"c.	c #8A8AFF",
"d.	c #2D2DFF",
"e.	c #4545FF",
"f.	c #B8B8E6",
"g.	c #6B6D7E",
"h.	c #BFBFED",
"i.	c #3E3EFF",
"j.	c #86879C",
"k.	c #666677",
"l.	c #A6A7DA",
"m.	c #B8B9E7",
"n.	c #69697A",
"o.	c #8E8EB2",
"p.	c #DCDCFC",
"q.	c #7B7BFF",
"r.	c #898A9E",
"s.	c #767682",
"t.	c #7C7D96",
"u.	c #D0D0F8",
"v.	c #9898FF",
"w.	c #3030FF",
"x.	c #B9B9E8",
"y.	c #6F7180",
"z.	c #B7B7E7",
"A.	c #C5C5FF",
"B.	c #8B8DA0",
"C.	c #696A7B",
"D.	c #D5D5FE",
"E.	c #5B5BFF",
"F.	c #BABAE8",
"G.	c #737584",
"H.	c #8B8CA9",
"I.	c #DADAFB",
"J.	c #8888FF",
"K.	c #8D8FA3",
"L.	c #82848E",
"M.	c #7C7E92",
"N.	c #C9C9F5",
"O.	c #A6A6FF",
"P.	c #BABAE9",
"Q.	c #747683",
"R.	c #B0B0E0",
"S.	c #9091A5",
"T.	c #717383",
"U.	c #9A9AC9",
"V.	c #6868FF",
"W.	c #BBBBE9",
"X.	c #7F808C",
"Y.	c #8A8CA4",
"Z.	c #D6D7FA",
"`.	c #9495A8",
" +	c #7E8092",
".+	c #C0C1F2",
"++	c #B4B4FF",
"@+	c #3B3BFF",
"#+	c #BCBCEA",
"$+	c #787B89",
"%+	c #AAAAD9",
"&+	c #D6D6FE",
"*+	c #5959FF",
"=+	c #9697AA",
"-+	c #7B7C8B",
";+	c #9597C0",
">+	c #D9D9FD",
",+	c #7676FF",
"'+	c #BCBCEB",
")+	c #8B8D96",
"!+	c #8B8DA1",
"~+	c #D1D1F7",
"{+	c #E2E2FF",
"]+	c #999AAD",
"^+	c #818394",
"/+	c #B7B7EC",
"(+	c #BDBDEB",
"_+	c #7F8190",
":+	c #A5A7D2",
"<+	c #9798A8",
"[+	c #838594",
"}+	c #9596B9",
"|+	c #A8A9DD",
"1+	c #85878F",
"2+	c #838590",
"3+	c #000000",
"                                                                                                        ",
"                                                                                                        ",
"                                                                                                        ",
"                                                                                                        ",
"                                                                                                        ",
"                                                                                                        ",
"                                                                                                        ",
"                                                                                                        ",
"                                                                                                        ",
"                                                                                                        ",
"                                                    .                                 +                 ",
"                                                @ # $                               % &                 ",
"                                              * = - ;                           > , ' )                 ",
"                                          ! ~ { ] ^ ;                         / ( _ : )                 ",
"                                        < [ } | 1 ^ ;                     2 3 4 ] 1 5 )                 ",
"                                    6 7 4 8 1 1 1 ^ ;                 9 0 a b c 1 1 5 )                 ",
"                                d e f g | 1 1 1 1 ^ h               i j k l 1 1 1 1 5 )                 ",
"                              m n o p 1 1 1 1 1 1 ^ h           q r s t | 1 1 1 1 1 5 )                 ",
"                          u v w | x y z A B 1 1 1 ^ C         D E F G 1 1 1 1 1 1 1 5 )                 ",
"                        H I J K L L L L L L M N z O P     Q R S T U 1 1 1 1 1 1 1 1 5 V                 ",
"                    W X Y Z ` L L L L L L L L L L U  .  ..+.@.#.1 1 1 1 1 1 1 1 1 1 5 $.                ",
"                  %.&._ *.L L L L L L L L L L L L U =.-.;.>.,.'.*.).!.~.{.1 1 1 1 1 5 ].                ",
"                  ^./.(.y L L L L L L L L L L L L U _.:.J <.L L L L L L L [.}.|.1.2.3.4.                ",
"                    5.6.7.8.L L L L L L L L L L L U 9.0.a.b.c.d.L L L L L L L L L L e.f.                ",
"                        g.h.g i.L L L L L L L L L U j.    k.l.J 2.L L L L L L L L L e.m.                ",
"                          n.o.p.q.L L L L L L L L U r.      s.t.u.v.w.L L L L L L L e.x.                ",
"                              y.z.A.*.L L L L L L U B.          C.E D.E.L L L L L L e.F.                ",
"                                G.H.I.J.` L L L L U K.            L.M.N.O.M L L L L e.P.                ",
"                                    Q.R.J K L L L U S.                T.U.o V.L L L e.W.                ",
"                                      X.Y.Z.U x L U `.                     +.+++@+L e.#+                ",
"                                          $+%+&+*+U =+                      -+;+>+,+e.'+                ",
"                                            )+!+~+{+]+                          ^+/+J (+                ",
"                                                _+:+<+                            [+}+|+                ",
"                                                    1+                                2+                ",
"                                                                                                        ",
"            3+3+3+      3+3+3+3+          3+3+3+3+  3+3+      3+3+  3+3+3+3+      3+3+  3+3+3+3+3+      ",
"            3+3+3+      3+3+  3+3+      3+3+    3+  3+3+      3+3+  3+3+  3+      3+    3+3+            ",
"            3+3+3+      3+3+  3+3+    3+3+          3+3+      3+3+  3+3+  3+3+  3+3+    3+3+            ",
"          3+3+3+3+3+    3+3+3+3+      3+3+          3+3+3+3+3+3+3+  3+3+  3+3+  3+3+    3+3+3+3+3+      ",
"          3+3+  3+3+    3+3+  3+3+    3+3+          3+3+      3+3+  3+3+    3+3+3+      3+3+            ",
"          3+3+3+3+3+    3+3+  3+3+      3+3+    3+  3+3+      3+3+  3+3+    3+3+3+      3+3+            ",
"        3+3+      3+3+  3+3+    3+3+      3+3+3+3+  3+3+      3+3+  3+3+    3+3+3+      3+3+3+3+3+      ",
"                                                                                                        ",
"                                                                                                        ",
"                                                                                                        ",
"                                                                                                        ",
"                                                                                                        ",
"                                                                                                        ",
"                                                                                                        ",
"                                                                                                        ",
"                                                                                                        ",
"                                                                                                        "};
