/* XPM */
static const char * fastback_off_xpm[] = {
"50 32 219 2",
"  	c None",
". 	c #494A48",
"+ 	c #4C4D4A",
"@ 	c #4A4B48",
"# 	c #464744",
"$ 	c #474745",
"% 	c #6B6B69",
"& 	c #DEDEDE",
"* 	c #939392",
"= 	c #494A47",
"- 	c #717270",
"; 	c #E1E1E1",
"> 	c #535452",
", 	c #41413F",
"' 	c #545552",
") 	c #C3C3C3",
"! 	c #F7F7F7",
"~ 	c #F4F4F4",
"{ 	c #444442",
"] 	c #575855",
"^ 	c #C8C8C8",
"/ 	c #FCFCFC",
"( 	c #A2A2A1",
"_ 	c #F5F5F5",
": 	c #E4E4E4",
"< 	c #D5D5D5",
"[ 	c #E7E7E7",
"} 	c #4B4B49",
"| 	c #AAAAA8",
"1 	c #F6F6F6",
"2 	c #E3E3E3",
"3 	c #494947",
"4 	c #7B7B7A",
"5 	c #E8E8E8",
"6 	c #EDEDED",
"7 	c #D7D7D7",
"8 	c #D4D4D4",
"9 	c #848583",
"0 	c #EBEBEB",
"a 	c #ECECEC",
"b 	c #D6D6D6",
"c 	c #444643",
"d 	c #5D5E5B",
"e 	c #D0D0D0",
"f 	c #DBDBDB",
"g 	c #474845",
"h 	c #626361",
"i 	c #D7D7D6",
"j 	c #DADADA",
"k 	c #3C3E3A",
"l 	c #B2B3B2",
"m 	c #3F403E",
"n 	c #4F504D",
"o 	c #BABABA",
"p 	c #F8F8F8",
"q 	c #DFDFDF",
"r 	c #8D8E8C",
"s 	c #EFF0EF",
"t 	c #E9E9E9",
"u 	c #989997",
"v 	c #F2F2F2",
"w 	c #545452",
"x 	c #494946",
"y 	c #6A6B68",
"z 	c #DDDDDD",
"A 	c #F1F1F1",
"B 	c #D3D3D3",
"C 	c #939493",
"D 	c #727370",
"E 	c #F0F0F0",
"F 	c #D8D8D8",
"G 	c #464645",
"H 	c #525450",
"I 	c #C1C2C1",
"J 	c #ABABAB",
"K 	c #AAAAAA",
"L 	c #B4B4B4",
"M 	c #BEBEBE",
"N 	c #D2D2D2",
"O 	c #484946",
"P 	c #585956",
"Q 	c #C9C9C9",
"R 	c #DCDCDC",
"S 	c #4A4B47",
"T 	c #A0A19F",
"U 	c #B1B1B1",
"V 	c #B0B0B0",
"W 	c #B5B5B5",
"X 	c #B9B9B9",
"Y 	c #E5E5E5",
"Z 	c #ABABAA",
"` 	c #E2E2E2",
" .	c #4B4C4A",
"..	c #7A7B78",
"+.	c #BBBBBB",
"@.	c #939492",
"#.	c #4B4C49",
"$.	c #858684",
"%.	c #4D4D4B",
"&.	c #5B5D59",
"*.	c #CFCFCF",
"=.	c #4C4C4B",
"-.	c #636462",
";.	c #F3F3F3",
">.	c #C6C6C6",
",.	c #BFBFBF",
"'.	c #CCCCCC",
").	c #80817F",
"!.	c #FAFAFA",
"~.	c #AEAEAE",
"{.	c #919190",
"].	c #858583",
"^.	c #ACACAC",
"/.	c #AFAFAF",
"(.	c #BCBCBC",
"_.	c #C2C2C2",
":.	c #C7C7C7",
"<.	c #CACACA",
"[.	c #CECECE",
"}.	c #D1D1D1",
"|.	c #50514D",
"1.	c #8D8D8C",
"2.	c #EFEFEF",
"3.	c #B6B6B6",
"4.	c #949492",
"5.	c #BDBDBD",
"6.	c #565753",
"7.	c #5C5C5A",
"8.	c #545551",
"9.	c #B3B3B2",
"0.	c #969795",
"a.	c #656562",
"b.	c #595B58",
"c.	c #6D6E6B",
"d.	c #595A57",
"e.	c #5C5E5B",
"f.	c #656663",
"g.	c #D0D0CF",
"h.	c #999997",
"i.	c #90908E",
"j.	c #EEEEEE",
"k.	c #B7B7B7",
"l.	c #5D5E5A",
"m.	c #5D5D59",
"n.	c #818280",
"o.	c #E7E7E6",
"p.	c #9A9B99",
"q.	c #676965",
"r.	c #595B57",
"s.	c #D9D9D9",
"t.	c #5F615E",
"u.	c #5B5E5A",
"v.	c #A5A6A4",
"w.	c #B2B2B2",
"x.	c #9B9D9B",
"y.	c #666663",
"z.	c #6A6B67",
"A.	c #CBCBCB",
"B.	c #636461",
"C.	c #6F6F6B",
"D.	c #666763",
"E.	c #C4C5C4",
"F.	c #9D9F9C",
"G.	c #636562",
"H.	c #858683",
"I.	c #E6E6E6",
"J.	c #676864",
"K.	c #6A6C69",
"L.	c #7A7C78",
"M.	c #DDDDDC",
"N.	c #636460",
"O.	c #A7A7A6",
"P.	c #E0E0E0",
"Q.	c #6A6C67",
"R.	c #686966",
"S.	c #999A98",
"T.	c #A1A2A0",
"U.	c #777875",
"V.	c #6B6D69",
"W.	c #C4C5C3",
"X.	c #6D6D6B",
"Y.	c #80827E",
"Z.	c #B8B9B7",
"`.	c #A3A3A2",
" +	c #71736F",
".+	c #7F807D",
"++	c #DCDDDC",
"@+	c #C4C4C4",
"#+	c #6F716D",
"$+	c #787A75",
"%+	c #797A76",
"&+	c #D3D3D2",
"*+	c #A5A5A3",
"=+	c #6E706B",
"-+	c #9C9D9A",
";+	c #B8B8B8",
">+	c #737570",
",+	c #737671",
"'+	c #90928E",
")+	c #A7A7A5",
"!+	c #70726D",
"~+	c #BABBB9",
"{+	c #F9F9F9",
"]+	c #777873",
"^+	c #AEAFAC",
"/+	c #F4F5F4",
"(+	c #A9A9A7",
"_+	c #7D7F7B",
":+	c #D2D3D2",
"<+	c #FDFDFD",
"[+	c #7A7B77",
"}+	c #838581",
"|+	c #7B7D78",
"1+	c #848681",
"2+	c #7A7C77",
"3+	c #959592",
"4+	c #777973",
"5+	c #868782",
"6+	c #82847F",
"                                                                                                    ",
"                                                                                                    ",
"                                                . +                                           @ #   ",
"                                            $ % & *                                       = - ; >   ",
"                                        , ' ) ! ~ *                                   { ] ^ ! / >   ",
"                                      = ( _ : < [ *                                 } | 1 2 < ! >   ",
"                                  3 4 5 6 7 8 8 [ *                             @ 9 0 a b 8 8 ! >   ",
"                              c d e _ f 8 8 8 8 [ *                         g h i ~ j 8 8 8 8 ! >   ",
"                          k + l ! ; < 8 8 8 8 8 [ *                     m n o p q < 8 8 8 8 8 ! >   ",
"                        . r s t b 8 8 8 8 8 8 8 [ *                   @ u v [ < 8 8 8 8 8 8 8 ! w   ",
"                    x y z A B B 8 8 8 8 8 8 8 8 [ C               @ D 2 E F 8 8 8 8 8 8 8 8 8 ! '   ",
"                G H I ! e J K J L M ^ N 8 8 8 8 [ C           O P Q ! R 8 8 8 8 8 8 8 8 8 8 8 ! '   ",
"              S T ~ & U K K K K K K K K V W X M Y C       # + Z 1 ` < 8 8 8 8 8 8 8 8 8 8 8 8 ! '   ",
"           ...[ a +.K K K K K K K K K K K K K K ` @.}   #.$.a 0 b 8 8 8 8 8 8 8 8 8 8 8 8 8 8 ! '   ",
"      %.&.*._ Q K K K K K K K K K K K K K K K K ` * =.-.F ;.>.X ,.>.'.B 8 8 8 8 8 8 8 8 8 8 8 ! '   ",
"    #.).!.t ~.K K K K K K K K K K K K K K K K K ` {.]._ j ^.K K K K K K /.W (._.:.<.'.[.}.B 8 ! '   ",
"      |.1.2.Y 3.K K K K K K K K K K K K K K K K ` 4.] 5.! }.^.K K K K K K K K K K K K K K K J ! 6.  ",
"        7.8.9.! 7 ~.K K K K K K K K K K K K K K ` 0.a.b.c.f v ) K K K K K K K K K K K K K K K ! d.  ",
"            e.f.g.1 Q K K K K K K K K K K K K K ` h.      ] i.j.[ k.K K K K K K K K K K K K K ! l.  ",
"                m.n.o.a (.K K K K K K K K K K K ` p.        q.r.9.! s.~.K K K K K K K K K K K ! t.  ",
"                    u.v.~ q w.K K K K K K K K K ` x.            y.z.g.1 A.K K K K K K K K K K ! B.  ",
"                      C.D.E.p }.^.K K K K K K K ` F.                G.H.I.6 5.K K K K K K K K ! J.  ",
"                          K.L.M.v ) K K K K K K ` T                     N.O.~ P.w.K K K K K K ! Q.  ",
"                              R.S.2.[ k.K K K K ` T.                      U.V.W.p N ^.K K K K ! X.  ",
"                                Y.Q.Z.! F ~.K K ` `.                           +.+++;.@+K K K ! #+  ",
"                                    $+%+&+1 <.K ` *+                              =+-+j.5 ;+K ! >+  ",
"                                        ,+'+[ 6 j.)+                                  !+~+! j {+]+  ",
"                                            >+^+/+(+                                    _+_+:+<+[+  ",
"                                              }+|+1+                                        2+3+4+  ",
"                                                  5+                                            6+  ",
"                                                                                                    ",
"                                                                                                    "};
