/* XPM */
static const char * play_on_xpm[] = {
"28 32 149 2",
"  	c None",
". 	c #464744",
"+ 	c #47484C",
"@ 	c #3B3B3F",
"# 	c #DFDFFA",
"$ 	c #797A9F",
"% 	c #43444A",
"& 	c #FFFFFF",
"* 	c #DEDEFF",
"= 	c #C8C8F1",
"- 	c #64647A",
"; 	c #41424C",
"> 	c #9494FF",
", 	c #A8A8FF",
"' 	c #EBEBFE",
") 	c #ADADDF",
"! 	c #54555D",
"~ 	c #404047",
"{ 	c #9595FF",
"] 	c #B5B5FF",
"^ 	c #EEEEFE",
"/ 	c #9495C6",
"( 	c #48494D",
"_ 	c #3B3D40",
": 	c #9898FF",
"< 	c #C8C8FF",
"[ 	c #E3E3FB",
"} 	c #7C7DA5",
"| 	c #44454B",
"1 	c #9D9DFF",
"2 	c #DBDBFF",
"3 	c #CCCCF3",
"4 	c #66677D",
"5 	c #42434C",
"6 	c #A6A6FF",
"7 	c #B1B1E2",
"8 	c #555660",
"9 	c #404048",
"0 	c #B4B4FF",
"a 	c #EFEFFE",
"b 	c #9898C9",
"c 	c #4A4B4F",
"d 	c #3F3F44",
"e 	c #C5C5FF",
"f 	c #E5E5FC",
"g 	c #8081A9",
"h 	c #D9D9FF",
"i 	c #CFCFF4",
"j 	c #696A82",
"k 	c #44454D",
"l 	c #EAEAFE",
"m 	c #B5B5E5",
"n 	c #585963",
"o 	c #46464E",
"p 	c #9090FF",
"q 	c #8080FF",
"r 	c #7171FF",
"s 	c #6161FF",
"t 	c #5151FF",
"u 	c #4747FF",
"v 	c #9C9CCD",
"w 	c #4C4D51",
"x 	c #49494E",
"y 	c #9191FF",
"z 	c #8B8BFF",
"A 	c #8585FF",
"B 	c #7B7BFF",
"C 	c #7575FF",
"D 	c #6F6FFF",
"E 	c #6666FF",
"F 	c #5656FF",
"G 	c #4646FF",
"H 	c #3535FF",
"I 	c #2A2AFF",
"J 	c #4343FF",
"K 	c #E0E0FF",
"L 	c #E7E7FC",
"M 	c #606175",
"N 	c #46474F",
"O 	c #484946",
"P 	c #CECEFF",
"Q 	c #D7D7F7",
"R 	c #71728F",
"S 	c #494951",
"T 	c #4B4C49",
"U 	c #4040FF",
"V 	c #B0B0FF",
"W 	c #E9E9FD",
"X 	c #8A8BB6",
"Y 	c #4C4E52",
"Z 	c #4F504D",
"` 	c #3131FF",
" .	c #9292FF",
"..	c #A3A3D5",
"+.	c #56575C",
"@.	c #58585E",
"#.	c #525450",
"$.	c #7474FF",
"%.	c #E5E5FF",
"&.	c #BCBDEA",
"*.	c #666772",
"=.	c #57585F",
"-.	c #565754",
";.	c #5757FF",
">.	c #CFCFFF",
",.	c #D6D6F7",
"'.	c #797995",
").	c #575860",
"!.	c #5A5B57",
"~.	c #4141FF",
"{.	c #B2B2FF",
"].	c #E8E8FD",
"^.	c #8E8EBA",
"/.	c #595B5F",
"(.	c #5D5F5B",
"_.	c #3232FF",
":.	c #A4A4D7",
"<.	c #636468",
"[.	c #6D6F71",
"}.	c #61625E",
"|.	c #7676FF",
"1.	c #E6E6FF",
"2.	c #BCBCEB",
"3.	c #70717D",
"4.	c #676870",
"5.	c #656662",
"6.	c #5858FF",
"7.	c #D1D1FF",
"8.	c #D5D5F7",
"9.	c #80819C",
"0.	c #65676E",
"a.	c #686A65",
"b.	c #4242FF",
"c.	c #B3B3FF",
"d.	c #9293BE",
"e.	c #66676C",
"f.	c #6C6D69",
"g.	c #A6A7D9",
"h.	c #707174",
"i.	c #7B7C7E",
"j.	c #6F716C",
"k.	c #FEFEFE",
"l.	c #BCBCEC",
"m.	c #7A7C87",
"n.	c #73747B",
"o.	c #737570",
"p.	c #8889A3",
"q.	c #72737A",
"r.	c #7C7D85",
"                                                        ",
"                                                        ",
"  . + @                                                 ",
"  . # $ %                                               ",
"  . & * = - ;                                           ",
"  . & > , ' ) ! ~                                       ",
"  . & > > { ] ^ / ( _                                   ",
"  . & > > > > : < [ } |                                 ",
"  . & > > > > > > 1 2 3 4 5                             ",
"  . & > > > > > > > > 6 ' 7 8 9                         ",
"  . & > > > > > > > > > { 0 a b c d                     ",
"  . & > > > > > > > > > > > : e f g |                   ",
"  . & > > > > > > > > > > > > > 1 h i j k               ",
"  . & > > > > > > > > > > > > > > > 6 l m n o           ",
"  . & > > > > > > > > > > > p q r s t u : a v w x       ",
"  . & y z A q B C D E F G H I I I I I I I J K L M N     ",
"  O & I I I I I I I I I I I I I I I I I F P Q R S       ",
"  T & I I I I I I I I I I I I I I I U V W X Y           ",
"  Z & I I I I I I I I I I I I I `  .a ..+.@.            ",
"  #.& I I I I I I I I I I I I $.%.&.*.=.                ",
"  -.& I I I I I I I I I I ;.>.,.'.).                    ",
"  !.& I I I I I I I I ~.{.].^./.                        ",
"  (.& I I I I I I _.> a :.<.[.                          ",
"  }.& I I I I I |.1.2.3.4.                              ",
"  5.& I I I 6.7.8.9.0.                                  ",
"  a.& I b.c.].d.e.                                      ",
"  f.& { a g.h.i.                                        ",
"  j.k.l.m.n.                                            ",
"  o.p.q.                                                ",
"  r.                                                    ",
"                                                        ",
"                                                        "};
