/* XPM */
static const char * play_record_xpm[] = {
"52 52 228 2",
"  	c None",
". 	c #4B4C49",
"+ 	c #626360",
"@ 	c #C4C4C3",
"# 	c #C4C4C4",
"$ 	c #A4A5A3",
"% 	c #787A77",
"& 	c #434352",
"* 	c #666764",
"= 	c #EEEEEE",
"- 	c #D7D7D7",
"; 	c #D8D8D8",
"> 	c #D9D9D9",
", 	c #CFD0CE",
"' 	c #7A7C79",
") 	c #9595C8",
"! 	c #8686B3",
"~ 	c #424256",
"{ 	c #EDEDED",
"] 	c #D4D4D4",
"^ 	c #D5D5D5",
"/ 	c #A9AADA",
"( 	c #C3C3FF",
"_ 	c #CDCDF6",
": 	c #6D6E8D",
"< 	c #3D3F4F",
"[ 	c #7C7D79",
"} 	c #9B9BFF",
"| 	c #9797FF",
"1 	c #C5C5FF",
"2 	c #B7B7E9",
"3 	c #58586F",
"4 	c #373943",
"5 	c #7C7E7B",
"6 	c #9494FF",
"7 	c #9D9DFF",
"8 	c #D2D2FE",
"9 	c #9E9ED1",
"0 	c #4A4B5E",
"a 	c #666864",
"b 	c #9595FF",
"c 	c #A7A7FF",
"d 	c #D6D6FB",
"e 	c #8585AF",
"f 	c #414155",
"g 	c #9696FF",
"h 	c #B5B5FF",
"i 	c #CDCDF5",
"j 	c #6C6D8A",
"k 	c #40404F",
"l 	c #EFEFEF",
"m 	c #7C7F7B",
"n 	c #9999FF",
"o 	c #C7C7FF",
"p 	c #B6B6E7",
"q 	c #58596D",
"r 	c #7D807C",
"s 	c #9E9EFF",
"t 	c #D4D4FD",
"u 	c #9D9DCF",
"v 	c #4B4C5D",
"w 	c #686966",
"x 	c #D0D0CF",
"y 	c #80817E",
"z 	c #9393FF",
"A 	c #9F9FFF",
"B 	c #D5D5FB",
"C 	c #8485AC",
"D 	c #444558",
"E 	c #6D6F6A",
"F 	c #F0F0F0",
"G 	c #D3D3D3",
"H 	c #D1D2D0",
"I 	c #838582",
"J 	c #9191FF",
"K 	c #8B8BFF",
"L 	c #7D7DFF",
"M 	c #6C6CFF",
"N 	c #5C5CFF",
"O 	c #4B4BFF",
"P 	c #3C3CFF",
"Q 	c #2D2DFF",
"R 	c #2A2AFF",
"S 	c #3636FF",
"T 	c #6B6C84",
"U 	c #49495D",
"V 	c #727470",
"W 	c #CECECE",
"X 	c #CCCCCC",
"Y 	c #CACACA",
"Z 	c #C8C8C8",
"` 	c #C6C6C6",
" .	c #C7C7C7",
"..	c #D3D3D2",
"+.	c #898A87",
"@.	c #AAAADB",
"#.	c #5E5EFF",
"$.	c #3737FF",
"%.	c #3131FF",
"&.	c #2C2CFF",
"*.	c #4646FF",
"=.	c #B8B8FF",
"-.	c #B9B9E9",
";.	c #5E5E74",
">.	c #777975",
",.	c #EAEAEA",
"'.	c #AAAAAA",
").	c #B7B7B7",
"!.	c #D4D5D4",
"~.	c #8D8E8A",
"{.	c #AAABDC",
"].	c #5252FF",
"^.	c #3535FF",
"/.	c #CECEF6",
"(.	c #747592",
"_.	c #525365",
":.	c #7B7D7A",
"<.	c #D6D6D5",
"[.	c #91928F",
"}.	c #ACACDD",
"|.	c #8C8DB6",
"1.	c #545468",
"2.	c #82837E",
"3.	c #D7D8D7",
"4.	c #959693",
"5.	c #ACADDE",
"6.	c #5F5FFF",
"7.	c #CFCFFE",
"8.	c #A5A5D5",
"9.	c #5C5D70",
"0.	c #868884",
"a.	c #D9DAD8",
"b.	c #9A9B97",
"c.	c #ADADDE",
"d.	c #B9B9FF",
"e.	c #BDBDEC",
"f.	c #6C6C81",
"g.	c #8C8E88",
"h.	c #DBDBDA",
"i.	c #9FA09C",
"j.	c #AEAEE0",
"k.	c #9C9CFF",
"l.	c #D0D0F7",
"m.	c #7F809D",
"n.	c #696A7C",
"o.	c #91938F",
"p.	c #DCDDDB",
"q.	c #A3A4A1",
"r.	c #AFAFE0",
"s.	c #7E7EFF",
"t.	c #D7D7FC",
"u.	c #9595BE",
"v.	c #65677A",
"w.	c #959893",
"x.	c #DEDFDD",
"y.	c #A6A9A4",
"z.	c #B0B0E1",
"A.	c #D0D0FE",
"B.	c #AAAADA",
"C.	c #6C6D80",
"D.	c #9A9D98",
"E.	c #DFE0DF",
"F.	c #ACADA9",
"G.	c #B1B1E2",
"H.	c #D0D0FF",
"I.	c #C1C1EE",
"J.	c #797C8F",
"K.	c #A0A29D",
"L.	c #F3F3F3",
"M.	c #CFCFCF",
"N.	c #E1E2E0",
"O.	c #B0B1AD",
"P.	c #9899C8",
"Q.	c #8B8CA9",
"R.	c #767687",
"S.	c #A1A39E",
"T.	c #D1D2CE",
"U.	c #C0C2BE",
"V.	c #B0B3AF",
"W.	c #747788",
"X.	c #45403E",
"Y.	c #47443F",
"Z.	c #595552",
"`.	c #787976",
" +	c #B7B7B6",
".+	c #CBCDCC",
"++	c #898B88",
"@+	c #5C5D59",
"#+	c #000000",
"$+	c #66615C",
"%+	c #949692",
"&+	c #EEBABA",
"*+	c #F18E8E",
"=+	c #F18D8D",
"-+	c #EE9F9F",
";+	c #C2C5C3",
">+	c #656660",
",+	c #72726E",
"'+	c #DCDDDC",
")+	c #F08282",
"!+	c #F18282",
"~+	c #F07F7F",
"{+	c #ED6262",
"]+	c #EEC0C0",
"^+	c #7D7F7A",
"/+	c #83847D",
"(+	c #EBDEDD",
"_+	c #E61F1F",
":+	c #E51A1A",
"<+	c #E30707",
"[+	c #E20000",
"}+	c #EA9393",
"|+	c #9A9C97",
"1+	c #8E8D87",
"2+	c #C4C6C3",
"3+	c #E86060",
"4+	c #E41919",
"5+	c #E3DBDA",
"6+	c #8D8F89",
"7+	c #A4A6A0",
"8+	c #D5D7D4",
"9+	c #ECBDBD",
"0+	c #ECA3A3",
"a+	c #E1DDDB",
"b+	c #B0B3AD",
"c+	c #B0B4AC",
"d+	c #B7B9B4",
"e+	c #ABAFA6",
"                                                                                                        ",
"                                                                                                        ",
"                                                                                                        ",
"                                                                                                        ",
"                                                                                                        ",
"                                                                                                        ",
"                                                                                                        ",
"                                                                                                        ",
"                                                                                                        ",
"                      . . . . . . . . .                                                                 ",
"                    + @ @ @ @ @ @ # # $ %     &                                                         ",
"                    * = - ; ; ; ; ; > , '     ) ! ~                                                     ",
"                    * { ] ] ] ] ] ] ^ , '     / ( _ : <                                                 ",
"                    * { ] ] ] ] ] ] ^ , [     / } | 1 2 3 4                                             ",
"                    * = ] ] ] ] ] ] ^ , 5     / } 6 6 7 8 9 0                                           ",
"                    a = ] ] ] ] ] ] ] , 5     / } 6 6 6 b c d e f                                       ",
"                    a = ] ] ] ] ] ] ] , 5     / } 6 6 6 6 6 g h i j k                                   ",
"                    a l ] ] ] ] ] ] ] , m     / } 6 6 6 6 6 6 6 n o p q                                 ",
"                    a l ] ] ] ] ] ] ] , r     / } 6 6 6 6 6 6 6 6 6 s t u v                             ",
"                    w l ] ] ] ] ] ] ] x y     / } 6 6 6 6 6 6 6 6 6 6 z A B C D                         ",
"                    E F ] ] ] ] ] ] G H I     / } 6 6 6 J K L M N O P Q R S s i T U                     ",
"                    V l W X Y Z ` #  ...+.    @.#.$.%.&.R R R R R R R R R *.=.-.;.                      ",
"                    >.,.'.'.'.'.'.'.).!.~.    {.].R R R R R R R R R R ^.} /.(._.                        ",
"                    :.,.'.'.'.'.'.'.).<.[.    }.].R R R R R R R R &.L d |.1.                            ",
"                    2.,.'.'.'.'.'.'.).3.4.    5.].R R R R R R R 6.7.8.9.                                ",
"                    0.,.'.'.'.'.'.'.).a.b.    c.].R R R R R *.d.e.f.                                    ",
"                    g.,.'.'.'.'.'.'.).h.i.    j.].R R R ^.k.l.m.n.                                      ",
"                    o.,.'.'.'.'.'.'.).p.q.    r.].R &.s.t.u.v.                                          ",
"                    w.,.'.'.'.'.'.'.).x.y.    z.].6.A.B.C.                                              ",
"                    D.,.'.'.'.'.'.'.).E.F.    G.H.I.J.                                                  ",
"                    K.L.M.M.M.M.M.M.- N.O.    P.Q.R.                                                    ",
"                    S.T.T.T.T.T.T.T.T.U.V.    W.                                                        ",
"                                                                                                        ",
"                                                                                                        ",
"                            X.Y.                                                                        ",
"                        Z.`. +.+++@+        #+#+        #+#+#+#+      #+#+  #+#+#+#+#+                  ",
"                      $+%+&+*+=+-+;+>+      #+#+        #+#+  #+      #+    #+#+                        ",
"                      ,+'+)+!+~+{+]+^+      #+#+        #+#+  #+#+  #+#+    #+#+                        ",
"                      /+(+_+:+<+[+}+|+      #+#+        #+#+  #+#+  #+#+    #+#+#+#+#+                  ",
"                      1+2+3+[+[+4+5+6+      #+#+        #+#+    #+#+#+      #+#+                        ",
"                        7+8+9+0+a+b+        #+#+        #+#+    #+#+#+      #+#+                        ",
"                            c+d+e+          #+#+#+#+#+  #+#+    #+#+#+      #+#+#+#+#+                  ",
"                                                                                                        ",
"                                                                                                        ",
"                                                                                                        ",
"                                                                                                        ",
"                                                                                                        ",
"                                                                                                        ",
"                                                                                                        ",
"                                                                                                        ",
"                                                                                                        ",
"                                                                                                        "};
