/* XPM */
static char * play_archive_xpm[] = {
"52 52 186 2",
"  	c None",
". 	c #5F605D",
"+ 	c #747572",
"@ 	c #919290",
"# 	c #EEEEEE",
"$ 	c #E3E3E3",
"% 	c #E4E4E4",
"& 	c #EFEFEF",
"* 	c #8F908E",
"= 	c #404255",
"- 	c #6D6E8A",
"; 	c #3E3F4F",
"> 	c #DFDFDF",
", 	c #D4D4D4",
"' 	c #F1F1FE",
") 	c #B4B4E5",
"! 	c #515163",
"~ 	c #E0E0E0",
"{ 	c #DEDEDE",
"] 	c #D1D1FC",
"^ 	c #A6A6FF",
"/ 	c #DFDFFD",
"( 	c #8586AF",
"_ 	c #404152",
": 	c #E1E1E1",
"< 	c #9494FF",
"[ 	c #9797FF",
"} 	c #C0C0FF",
"| 	c #C8C8F1",
"1 	c #5E5E72",
"2 	c #393B44",
"3 	c #9F9FFF",
"4 	c #DDDDFE",
"5 	c #9999C9",
"6 	c #444656",
"7 	c #E2E2E2",
"8 	c #9696FF",
"9 	c #B4B4FF",
"0 	c #D6D6F8",
"a 	c #6B6D87",
"b 	c #3D3D4D",
"c 	c #424256",
"d 	c #9B9BFF",
"e 	c #D5D5FF",
"f 	c #ABABDD",
"g 	c #4D4E5E",
"h 	c #424356",
"i 	c #9595FF",
"j 	c #AAAAFF",
"k 	c #DDDDFC",
"l 	c #7D7DA2",
"m 	c #424252",
"n 	c #434457",
"o 	c #9898FF",
"p 	c #C7C7FF",
"q 	c #C0C0ED",
"r 	c #58596B",
"s 	c #919390",
"t 	c #E5E5E5",
"u 	c #8F918E",
"v 	c #444458",
"w 	c #A2A2FF",
"x 	c #DEDEFD",
"y 	c #9192BF",
"z 	c #464755",
"A 	c #959694",
"B 	c #939492",
"C 	c #444558",
"D 	c #8A8AFF",
"E 	c #7979FF",
"F 	c #6767FF",
"G 	c #5555FF",
"H 	c #4343FF",
"I 	c #3A3AFF",
"J 	c #D0D0F6",
"K 	c #66667D",
"L 	c #494954",
"M 	c #989997",
"N 	c #E6E6E6",
"O 	c #DDDDDD",
"P 	c #969895",
"Q 	c #454559",
"R 	c #CECEFC",
"S 	c #6464FF",
"T 	c #5F5FFF",
"U 	c #5959FF",
"V 	c #5252FF",
"W 	c #4C4CFF",
"X 	c #4242FF",
"Y 	c #3131FF",
"Z 	c #2A2AFF",
"` 	c #3535FF",
" .	c #C2C2FF",
"..	c #CDCDF4",
"+.	c #4D4E54",
"@.	c #9B9C9A",
"#.	c #D9D9D9",
"$.	c #B7B7B7",
"%.	c #B5B5B5",
"&.	c #B2B2B2",
"*.	c #B0B0B0",
"=.	c #AEAEAE",
"-.	c #ACACAC",
";.	c #9A9B98",
">.	c #494A5D",
",.	c #CBCBFC",
"'.	c #6C6CFF",
").	c #DBDBFD",
"!.	c #9191BE",
"~.	c #4C4C5C",
"{.	c #9EA09D",
"].	c #D2D2D2",
"^.	c #AAAAAA",
"/.	c #9D9E9C",
"(.	c #4D4D62",
"_.	c #4040FF",
":.	c #BBBBFF",
"<.	c #BDBEEC",
"[.	c #5F6071",
"}.	c #A1A3A0",
"|.	c #A0A19F",
"1.	c #515365",
"2.	c #2C2CFF",
"3.	c #8383FF",
"4.	c #DBDBFC",
"5.	c #8283A7",
"6.	c #565766",
"7.	c #A5A6A3",
"8.	c #A3A5A2",
"9.	c #57576A",
"0.	c #5050FF",
"a.	c #CECEFF",
"b.	c #ACADDE",
"c.	c #5E5F6F",
"d.	c #A8AAA6",
"e.	c #A7A9A5",
"f.	c #5B5C6E",
"g.	c #CBCBFD",
"h.	c #3232FF",
"i.	c #9A9AFF",
"j.	c #D3D3F8",
"k.	c #787993",
"l.	c #676776",
"m.	c #ABADAA",
"n.	c #ABACA9",
"o.	c #5E6172",
"p.	c #6363FF",
"q.	c #D8D8FE",
"r.	c #9C9DCE",
"s.	c #616172",
"t.	c #B0B1AD",
"u.	c #AEAFAC",
"v.	c #626476",
"w.	c #3B3BFF",
"x.	c #B1B1FF",
"y.	c #C4C4F2",
"z.	c #727386",
"A.	c #797B84",
"B.	c #B3B4B1",
"C.	c #B1B3AF",
"D.	c #66687A",
"E.	c #7A7AFF",
"F.	c #9091BA",
"G.	c #686A7B",
"H.	c #B6B8B4",
"I.	c #B5B7B3",
"J.	c #6A6B7D",
"K.	c #D9D9FD",
"L.	c #B3B3E7",
"M.	c #717283",
"N.	c #B9BBB7",
"O.	c #DBDBDB",
"P.	c #B8BAB6",
"Q.	c #6E6F81",
"R.	c #D1D1F8",
"S.	c #8788A7",
"T.	c #747585",
"U.	c #BDBEBB",
"V.	c #FFFFFF",
"W.	c #BBBDB9",
"X.	c #737584",
"Y.	c #727383",
"Z.	c #A0A39E",
"`.	c #A0A29C",
" +	c #A1A39D",
".+	c #000000",
"                                                                                                        ",
"                                                                                                        ",
"                                                                                                        ",
"                                                                                                        ",
"                                                                                                        ",
"                                                                                                        ",
"                                                                                                        ",
"                                                                                                        ",
"                                                                                                        ",
"                                                                                                        ",
"                    . + + + + + + + + .                                                                 ",
"                    @ # $ % % % % % & *     = - ;                                                       ",
"                    @ > , , , , , , > *     = ' ) !                                                     ",
"                    @ ~ , , , , , , { *     = ] ^ / ( _                                                 ",
"                    @ : , , , , , , { *     = ] < [ } | 1 2                                             ",
"                    @ : , , , , , , { *     = ] < < < 3 4 5 6                                           ",
"                    @ 7 , , , , , , { *     = ] < < < < 8 9 0 a b                                       ",
"                    @ $ , , , , , , { *     c ] < < < < < < d e f g                                     ",
"                    @ $ , , , , , , { *     h ] < < < < < < < i j k l m                                 ",
"                    @ % , , , , , , { *     n ] < < < < < < < < < o p q r                               ",
"                    s t , , , , , , { u     v ] < < < < < < < < < < < w x y z                           ",
"                    A t , , , , , , { B     C ] < < < < < < < D E F G H I w J K L                       ",
"                    M N , , , , , , O P     Q R S T U V W X Y Z Z Z Z Z Z `  ...+.                      ",
"                    @.#.$.%.&.*.=.-., ;.    >.,.Z Z Z Z Z Z Z Z Z Z Z Z '.).!.~.                        ",
"                    {.].^.^.^.^.^.^., /.    (.,.Z Z Z Z Z Z Z Z Z Z _.:.<.[.                            ",
"                    }.].^.^.^.^.^.^., |.    1.,.Z Z Z Z Z Z Z Z 2.3.4.5.6.                              ",
"                    7.].^.^.^.^.^.^., 8.    9.,.Z Z Z Z Z Z Z 0.a.b.c.                                  ",
"                    d.].^.^.^.^.^.^., e.    f.g.Z Z Z Z Z h.i.j.k.l.                                    ",
"                    m.].^.^.^.^.^.^., n.    o.g.Z Z Z Z p.q.r.s.                                        ",
"                    t.].^.^.^.^.^.^., u.    v.g.Z Z w.x.y.z.A.                                          ",
"                    B.].^.^.^.^.^.^., C.    D.g.Z E.).F.G.                                              ",
"                    H.].^.^.^.^.^.^., I.    J.K.p L.M.                                                  ",
"                    N.#.$.$.$.$.$.$.O.P.    Q.R.S.T.                                                    ",
"                    U.V.V.V.V.V.V.V.V.W.    X.Y.                                                        ",
"                    Z.`.`.`.`.`.`.`.`. +                                                                ",
"                                                                                                        ",
"            .+.+.+      .+.+.+.+          .+.+.+.+  .+.+      .+.+  .+.+.+.+      .+.+  .+.+.+.+.+      ",
"            .+.+.+      .+.+  .+.+      .+.+    .+  .+.+      .+.+  .+.+  .+      .+    .+.+            ",
"            .+.+.+      .+.+  .+.+    .+.+          .+.+      .+.+  .+.+  .+.+  .+.+    .+.+            ",
"          .+.+.+.+.+    .+.+.+.+      .+.+          .+.+.+.+.+.+.+  .+.+  .+.+  .+.+    .+.+.+.+.+      ",
"          .+.+  .+.+    .+.+  .+.+    .+.+          .+.+      .+.+  .+.+    .+.+.+      .+.+            ",
"          .+.+.+.+.+    .+.+  .+.+      .+.+    .+  .+.+      .+.+  .+.+    .+.+.+      .+.+            ",
"        .+.+      .+.+  .+.+    .+.+      .+.+.+.+  .+.+      .+.+  .+.+    .+.+.+      .+.+.+.+.+      ",
"                                                                                                        ",
"                                                                                                        ",
"                                                                                                        ",
"                                                                                                        ",
"                                                                                                        ",
"                                                                                                        ",
"                                                                                                        ",
"                                                                                                        ",
"                                                                                                        "};
