/* XPM */
static const char * play_live_xpm[] = {
"52 52 227 2",
"  	c None",
". 	c #494B47",
"+ 	c #636562",
"@ 	c #B9B9B8",
"# 	c #BDBDBC",
"$ 	c #A8A9A7",
"% 	c #747672",
"& 	c #414352",
"* 	c #656662",
"= 	c #F3F3F3",
"- 	c #D7D7D7",
"; 	c #D8D8D8",
"> 	c #D9D9D9",
", 	c #DADADA",
"' 	c #DFDFDF",
") 	c #777875",
"! 	c #8B8BB6",
"~ 	c #9090B7",
"{ 	c #424458",
"] 	c #F1F1F1",
"^ 	c #D4D4D4",
"/ 	c #9999C9",
"( 	c #CACAFF",
"_ 	c #D3D3F7",
": 	c #747491",
"< 	c #3E3E50",
"[ 	c #656762",
"} 	c #777975",
"| 	c #A0A0FF",
"1 	c #9797FF",
"2 	c #C3C3FF",
"3 	c #BFBFEB",
"4 	c #5E5F74",
"5 	c #383844",
"6 	c #656764",
"7 	c #F2F2F2",
"8 	c #9494FF",
"9 	c #9D9DFF",
"0 	c #D2D2FE",
"a 	c #A4A4D3",
"b 	c #4D4D5F",
"c 	c #D3D3D3",
"d 	c #787975",
"e 	c #9595FF",
"f 	c #A5A5FF",
"g 	c #D9D9FB",
"h 	c #8A8AB2",
"i 	c #424355",
"j 	c #B2B2FF",
"k 	c #D0D0F6",
"l 	c #71718C",
"m 	c #3F4051",
"n 	c #9898FF",
"o 	c #BABAE8",
"p 	c #5B5B6E",
"q 	c #3F414B",
"r 	c #666764",
"s 	c #787977",
"t 	c #999AC9",
"u 	c #D3D3FD",
"v 	c #A0A0D0",
"w 	c #4C4D5E",
"x 	c #676966",
"y 	c #D2D2D2",
"z 	c #DFE0DF",
"A 	c #797B78",
"B 	c #9F9FFF",
"C 	c #D3D3FB",
"D 	c #8686AD",
"E 	c #454658",
"F 	c #6B6D6A",
"G 	c #E0E1E0",
"H 	c #7E7F7B",
"I 	c #9292FF",
"J 	c #8B8BFF",
"K 	c #7E7EFF",
"L 	c #6E6EFF",
"M 	c #5E5EFF",
"N 	c #4E4EFF",
"O 	c #3E3EFF",
"P 	c #2E2EFF",
"Q 	c #2A2AFF",
"R 	c #3434FF",
"S 	c #9A9AFF",
"T 	c #CCCCF5",
"U 	c #6B6B85",
"V 	c #47495C",
"W 	c #717370",
"X 	c #CFCFCF",
"Y 	c #CDCDCD",
"Z 	c #CBCBCB",
"` 	c #C9C9C9",
" .	c #C7C7C7",
"..	c #C5C5C5",
"+.	c #C3C3C3",
"@.	c #E1E2E1",
"#.	c #838481",
"$.	c #9A9AC9",
"%.	c #7070FF",
"&.	c #3737FF",
"*.	c #3232FF",
"=.	c #2C2CFF",
"-.	c #4242FF",
";.	c #B4B4FF",
">.	c #B9B9E9",
",.	c #5D5E71",
"'.	c #F0F0F0",
").	c #AAAAAA",
"!.	c #AFAFAF",
"~.	c #E3E3E2",
"{.	c #888985",
"].	c #9B9BCB",
"^.	c #6666FF",
"/.	c #9696FF",
"(.	c #CDCDF6",
"_.	c #757592",
":.	c #515162",
"<.	c #7B7D7A",
"[.	c #E4E4E3",
"}.	c #8B8E8A",
"|.	c #9C9DCC",
"1.	c #2B2BFF",
"2.	c #7676FF",
"3.	c #D4D4FB",
"4.	c #8E8EB7",
"5.	c #545465",
"6.	c #81837E",
"7.	c #E5E5E4",
"8.	c #90918E",
"9.	c #9E9ECD",
"0.	c #5858FF",
"a.	c #CACAFE",
"b.	c #A5A5D7",
"c.	c #5E5E70",
"d.	c #858884",
"e.	c #E6E6E5",
"f.	c #949693",
"g.	c #9F9FCE",
"h.	c #4141FF",
"i.	c #B1B1FF",
"j.	c #BDBEEC",
"k.	c #6D6E81",
"l.	c #6C6C78",
"m.	c #8A8D88",
"n.	c #E7E7E6",
"o.	c #999B96",
"p.	c #A1A1D0",
"q.	c #CFCFF8",
"r.	c #81839F",
"s.	c #656879",
"t.	c #90928E",
"u.	c #E8E8E7",
"v.	c #9DA09B",
"w.	c #A2A2D1",
"x.	c #7474FF",
"y.	c #D4D4FC",
"z.	c #9797C2",
"A.	c #646578",
"B.	c #949892",
"C.	c #E9E9E8",
"D.	c #A2A4A0",
"E.	c #A3A5D2",
"F.	c #5555FF",
"G.	c #C8C8FE",
"H.	c #ACACDE",
"I.	c #6C6D80",
"J.	c #9A9D98",
"K.	c #EAEAE9",
"L.	c #A7A9A4",
"M.	c #A5A6D4",
"N.	c #D2D2FF",
"O.	c #C2C2F0",
"P.	c #7B7D91",
"Q.	c #7D7F8A",
"R.	c #9EA29C",
"S.	c #F6F6F6",
"T.	c #EBEBEA",
"U.	c #ACAEA9",
"V.	c #9192B9",
"W.	c #8C8EAD",
"X.	c #747486",
"Y.	c #A3A5A0",
"Z.	c #CED0CD",
"`.	c #D1D2CE",
" +	c #C5C8C4",
".+	c #ACAFAA",
"++	c #757687",
"@+	c #57534F",
"#+	c #777775",
"$+	c #A3A5A3",
"%+	c #747572",
"&+	c #56534F",
"*+	c #000000",
"=+	c #646461",
"-+	c #D8DAD9",
";+	c #DFE0E0",
">+	c #DBDBDB",
",+	c #D5D7D6",
"'+	c #636460",
")+	c #706965",
"!+	c #9A9B98",
"~+	c #DCDCDC",
"{+	c #D6D6D6",
"]+	c #D5D5D5",
"^+	c #DDDDDD",
"/+	c #969895",
"(+	c #6E6B65",
"_+	c #7D7974",
":+	c #CACDCB",
"<+	c #BDBDBD",
"[+	c #B9B9B9",
"}+	c #C5C8C6",
"|+	c #7E7D77",
"1+	c #A9ABA7",
"2+	c #D2D3D3",
"3+	c #A7A8A4",
"4+	c #888680",
"5+	c #979A94",
"6+	c #DDDEDD",
"7+	c #C3C3C2",
"8+	c #DBDDDB",
"9+	c #999C95",
"0+	c #A2A39C",
"a+	c #B5B8B2",
"b+	c #C9CBC7",
"c+	c #B4B6B1",
"d+	c #A3A79E",
"                                                                                                        ",
"                                                                                                        ",
"                                                                                                        ",
"                                                                                                        ",
"                                                                                                        ",
"                                                                                                        ",
"                                                                                                        ",
"                                                                                                        ",
"                                                                                                        ",
"                      . . . . . . . . .                                                                 ",
"                    + @ # # # # # # # $ %     &                                                         ",
"                    * = - ; ; ; > > , ' )     ! ~ {                                                     ",
"                    * ] ^ ^ ^ ^ ^ ^ ^ ' )     / ( _ : <                                                 ",
"                    [ ] ^ ^ ^ ^ ^ ^ ^ ' }     / | 1 2 3 4 5                                             ",
"                    6 7 ^ ^ ^ ^ ^ ^ ^ ' }     / | 8 8 9 0 a b                                           ",
"                    6 7 ^ ^ ^ ^ ^ ^ c ' d     / | 8 8 8 e f g h i                                       ",
"                    6 7 ^ ^ ^ ^ ^ ^ c ' d     / | 8 8 8 8 8 e j k l m                                   ",
"                    6 7 ^ ^ ^ ^ ^ ^ c ' d     / | 8 8 8 8 8 8 8 n 2 o p q                               ",
"                    r = ^ ^ ^ ^ ^ ^ c ' s     t | 8 8 8 8 8 8 8 8 8 9 u v w                             ",
"                    x = ^ ^ ^ ^ ^ ^ y z A     t | 8 8 8 8 8 8 8 8 8 8 e B C D E                         ",
"                    F = ^ ^ ^ ^ ^ ^ y G H     t | 8 8 8 I J K L M N O P Q R S T U V                     ",
"                    W = X Y Z `  ...+.@.#.    $.%.&.*.=.Q Q Q Q Q Q Q Q Q -.;.>.,.                      ",
"                    } '.).).).).).).!.~.{.    ].^.Q Q Q Q Q Q Q Q Q Q *./.(._.:.                        ",
"                    <.'.).).).).).).!.[.}.    |.^.Q Q Q Q Q Q Q Q 1.2.3.4.5.                            ",
"                    6.] ).).).).).).!.7.8.    9.^.Q Q Q Q Q Q Q 0.a.b.c.                                ",
"                    d.] ).).).).).).!.e.f.    g.^.Q Q Q Q Q h.i.j.k.l.                                  ",
"                    m.] ).).).).).).!.n.o.    p.^.Q Q Q *.I q.r.s.                                      ",
"                    t.] ).).).).).).!.u.v.    w.^.Q Q x.y.z.A.                                          ",
"                    B.] ).).).).).).!.C.D.    E.^.F.G.H.I.                                              ",
"                    J.] ).).).).).).!.K.L.    M.N.O.P.Q.                                                ",
"                    R.S.X X X X X X y T.U.    V.W.X.                                                    ",
"                    Y.Z.`.`.`.`.`.`.`. +.+    ++                                                        ",
"                                                                                                        ",
"                                                                                                        ",
"                                                                                                        ",
"                          @+#+$+%+&+      *+*+        *+*+*+*+      *+*+  *+*+*+*+*+                    ",
"                        =+-+;+>+;+,+'+    *+*+        *+*+  *+      *+    *+*+                          ",
"                      )+!+~+{+{+]+^+/+(+  *+*+        *+*+  *+*+  *+*+    *+*+                          ",
"                      _+:+` <+[+!.<+}+|+  *+*+        *+*+  *+*+  *+*+    *+*+*+*+*+                    ",
"                        1+2+).).).c 3+4+  *+*+        *+*+    *+*+*+      *+*+                          ",
"                        5+6+- 7+- 8+9+    *+*+        *+*+    *+*+*+      *+*+                          ",
"                          0+a+b+c+d+      *+*+*+*+*+  *+*+    *+*+*+      *+*+*+*+*+                    ",
"                                                                                                        ",
"                                                                                                        ",
"                                                                                                        ",
"                                                                                                        ",
"                                                                                                        ",
"                                                                                                        ",
"                                                                                                        ",
"                                                                                                        ",
"                                                                                                        ",
"                                                                                                        "};
