/* XPM */
static const char * play_off_xpm[] = {
"28 32 123 2",
"  	c None",
". 	c #464744",
"+ 	c #4B4C49",
"@ 	c #3F3F3D",
"# 	c #EFF0EF",
"$ 	c #91918F",
"% 	c #494A47",
"& 	c #FFFFFF",
"* 	c #F1F1F1",
"= 	c #E1E1E0",
"- 	c #727270",
"; 	c #484A47",
"> 	c #D4D4D4",
", 	c #DCDCDC",
"' 	c #F7F7F7",
") 	c #CCCCCB",
"! 	c #5A5B59",
"~ 	c #464643",
"{ 	c #E1E1E1",
"] 	c #B2B3B2",
"^ 	c #4D4E4A",
"/ 	c #3F413D",
"( 	c #D6D6D6",
"_ 	c #E9E9E9",
": 	c #959695",
"< 	c #D8D8D8",
"[ 	c #F0F0F0",
"} 	c #E3E3E3",
"| 	c #757674",
"1 	c #494A48",
"2 	c #DBDBDB",
"3 	c #F6F6F6",
"4 	c #CECFCE",
"5 	c #5C5D5B",
"6 	c #474744",
"7 	c #F8F8F8",
"8 	c #B6B7B6",
"9 	c #4E4F4C",
"0 	c #444442",
"a 	c #E8E8E8",
"b 	c #F3F3F3",
"c 	c #9A9A99",
"d 	c #D7D7D7",
"e 	c #EFEFEF",
"f 	c #E6E6E5",
"g 	c #797A78",
"h 	c #4B4C48",
"i 	c #D1D2D1",
"j 	c #5F605D",
"k 	c #4C4C49",
"l 	c #D3D3D3",
"m 	c #CCCCCC",
"n 	c #C6C6C6",
"o 	c #C0C0C0",
"p 	c #B9B9B9",
"q 	c #B5B5B5",
"r 	c #B9BAB9",
"s 	c #50514E",
"t 	c #4D4D4B",
"u 	c #D1D1D1",
"v 	c #CECECE",
"w 	c #CACACA",
"x 	c #C8C8C8",
"y 	c #C5C5C5",
"z 	c #C2C2C2",
"A 	c #BBBBBB",
"B 	c #AEAEAE",
"C 	c #AAAAAA",
"D 	c #B4B4B4",
"E 	c #F4F4F4",
"F 	c #6E6F6C",
"G 	c #484946",
"H 	c #EBEBEB",
"I 	c #EAEAEA",
"J 	c #848483",
"K 	c #4F4F4D",
"L 	c #B3B3B3",
"M 	c #DFDFDF",
"N 	c #F5F5F5",
"O 	c #A5A6A5",
"P 	c #51534F",
"Q 	c #4F504D",
"R 	c #ADADAD",
"S 	c #C1C1C0",
"T 	c #5B5C59",
"U 	c #5D5D5B",
"V 	c #525450",
"W 	c #C7C7C7",
"X 	c #70716D",
"Y 	c #5E5F5B",
"Z 	c #565754",
"` 	c #BCBCBC",
" .	c #ECECEC",
"..	c #8B8B88",
"+.	c #5A5B57",
"@.	c #E0E0E0",
"#.	c #A9AAA8",
"$.	c #5E605C",
"%.	c #5D5F5B",
"&.	c #C3C3C2",
"*.	c #686865",
"=.	c #71736E",
"-.	c #61625E",
";.	c #797A77",
">.	c #6D6E6C",
",.	c #656662",
"'.	c #929390",
").	c #6B6E69",
"!.	c #686A65",
"~.	c #ADAEAC",
"{.	c #6C6D69",
"].	c #D5D5D5",
"^.	c #C5C6C4",
"/.	c #747571",
"(.	c #7F807B",
"_.	c #6F716C",
":.	c #FEFEFE",
"<.	c #D9D9D9",
"[.	c #838581",
"}.	c #797B77",
"|.	c #737570",
"1.	c #999B97",
"2.	c #787A75",
"                                                        ",
"                                                        ",
"  . + @                                                 ",
"  . # $ %                                               ",
"  . & * = - ;                                           ",
"  . & > , ' ) ! ~                                       ",
"  . & > > > { ' ] ^ /                                   ",
"  . & > > > > ( _ * : %                                 ",
"  . & > > > > > > < [ } | 1                             ",
"  . & > > > > > > > > 2 3 4 5 6                         ",
"  . & > > > > > > > > > > { 7 8 9 0                     ",
"  . & > > > > > > > > > > > ( a b c 1                   ",
"  . & > > > > > > > > > > > > > d e f g h               ",
"  . & > > > > > > > > > > > > > > > 2 3 i j k           ",
"  . & > > > > > > > > > > > l m n o p q ( 7 r s t       ",
"  . & l u v m w x y z A q B C C C C C C C D b E F ^     ",
"  G & C C C C C C C C C C C C C C C C C A H I J K       ",
"  + & C C C C C C C C C C C C C C C L M N O P           ",
"  Q & C C C C C C C C C C C C C R l 7 S T U             ",
"  V & C C C C C C C C C C C C W N < X Y                 ",
"  Z & C C C C C C C C C C `  .I ..Y                     ",
"  +.& C C C C C C C C L @.N #.$.                        ",
"  %.& C C C C C C R > 7 &.*.=.                          ",
"  -.& C C C C C x N < ;.>.                              ",
"  ,.& C C C `  .I '.).                                  ",
"  !.& C L { E ~.{.                                      ",
"  {.& ].7 ^./.(.                                        ",
"  _.:.<.[.}.                                            ",
"  |.1.2.                                                ",
"  [.                                                    ",
"                                                        ",
"                                                        "};
