/* XPM */
static char * stepfwd_archive_xpm[] = {
"52 52 212 2",
"  	c None",
". 	c #444546",
"+ 	c #3D3F42",
"@ 	c #3C3E46",
"# 	c #8282AC",
"$ 	c #D4D5F3",
"% 	c #BEBEE3",
"& 	c #424353",
"* 	c #5F5F72",
"= 	c #4F505C",
"- 	c #3F4144",
"; 	c #9495B3",
"> 	c #E8E8FF",
", 	c #CACAFF",
"' 	c #E5E5FF",
") 	c #E3E3EE",
"! 	c #434353",
"~ 	c #8989B2",
"{ 	c #ECECFD",
"] 	c #8585B0",
"^ 	c #424350",
"/ 	c #414144",
"( 	c #CBCBFF",
"_ 	c #A1A1FF",
": 	c #D0D0FF",
"< 	c #B7B7FF",
"[ 	c #C6C6FF",
"} 	c #CBCBF3",
"| 	c #636478",
"1 	c #3F404C",
"2 	c #414346",
"3 	c #434453",
"4 	c #ABABFF",
"5 	c #9494FF",
"6 	c #9E9EFF",
"7 	c #E0E0FE",
"8 	c #A3A3D7",
"9 	c #4C4C59",
"0 	c #434448",
"a 	c #9595FF",
"b 	c #B1B1FF",
"c 	c #E1E1FC",
"d 	c #7D7DA5",
"e 	c #434552",
"f 	c #444448",
"g 	c #434454",
"h 	c #9898FF",
"i 	c #CDCDFF",
"j 	c #C4C4EF",
"k 	c #5E5E71",
"l 	c #434551",
"m 	c #45474A",
"n 	c #C9C9FF",
"o 	c #A2A2FF",
"p 	c #E3E3FE",
"q 	c #9C9CCE",
"r 	c #494A57",
"s 	c #47474A",
"t 	c #444454",
"u 	c #9696FF",
"v 	c #B6B6FF",
"w 	c #DDDDFB",
"x 	c #77789A",
"y 	c #464755",
"z 	c #47484C",
"A 	c #C8C8FF",
"B 	c #9A9AFF",
"C 	c #D3D3FF",
"D 	c #BDBDEC",
"E 	c #595A69",
"F 	c #4D4E57",
"G 	c #484A4E",
"H 	c #444654",
"I 	c #A6A6FF",
"J 	c #E5E5FE",
"K 	c #9595C7",
"L 	c #4B4B4E",
"M 	c #C7C7FF",
"N 	c #898AB3",
"O 	c #9292FF",
"P 	c #8888FF",
"Q 	c #B0B0FF",
"R 	c #D9D9FA",
"S 	c #707190",
"T 	c #4A4B5A",
"U 	c #4B4C50",
"V 	c #8F8FFF",
"W 	c #7E7EFF",
"X 	c #6E6EFF",
"Y 	c #5D5DFF",
"Z 	c #4B4BFF",
"` 	c #3B3BFF",
" .	c #2C2CFF",
"..	c #2A2AFF",
"+.	c #5656FF",
"@.	c #D4D4FF",
"#.	c #B4B4E6",
"$.	c #555665",
"%.	c #4E5052",
"&.	c #9596B4",
"*.	c #9C9CFF",
"=.	c #E3E3EF",
"-.	c #474958",
";.	c #8A8AB3",
">.	c #4444FF",
",.	c #3E3EFF",
"'.	c #3838FF",
").	c #3232FF",
"!.	c #B5B5E7",
"~.	c #585867",
"{.	c #555758",
"].	c #9899B7",
"^.	c #BEBEFF",
"/.	c #3333FF",
"(.	c #4E505E",
"_.	c #8D8DB5",
":.	c #3737FF",
"<.	c #A7A7FF",
"[.	c #757694",
"}.	c #525461",
"|.	c #5D5E60",
"1.	c #9B9CBA",
"2.	c #BDBDFF",
"3.	c #E3E4EF",
"4.	c #545665",
"5.	c #8E8FB6",
"6.	c #7878FF",
"7.	c #999ACB",
"8.	c #545560",
"9.	c #646567",
"0.	c #9E9FBD",
"a.	c #E4E4F0",
"b.	c #5B5C6A",
"c.	c #9090B8",
"d.	c #4D4DFF",
"e.	c #BFBFED",
"f.	c #666776",
"g.	c #686870",
"h.	c #6B6B6E",
"i.	c #A1A2BF",
"j.	c #E5E5F0",
"k.	c #636371",
"l.	c #9192B9",
"m.	c #DFDFFC",
"n.	c #8283A7",
"o.	c #5C5D6A",
"p.	c #727273",
"q.	c #A4A4C2",
"r.	c #E5E6F1",
"s.	c #686977",
"t.	c #9393BB",
"u.	c #6D6DFF",
"v.	c #A5A5D7",
"w.	c #5F606C",
"x.	c #797B7B",
"y.	c #A7A8C5",
"z.	c #E6E6F2",
"A.	c #6F717D",
"B.	c #9495BC",
"C.	c #4646FF",
"D.	c #C0C0FF",
"E.	c #C9C9F3",
"F.	c #737486",
"G.	c #6C6E77",
"H.	c #808282",
"I.	c #AAABC8",
"J.	c #E7E7F2",
"K.	c #767784",
"L.	c #9696BE",
"M.	c #2F2FFF",
"N.	c #9191FF",
"O.	c #E2E2FD",
"P.	c #8F8FB7",
"Q.	c #636671",
"R.	c #868789",
"S.	c #ADADCA",
"T.	c #E7E8F3",
"U.	c #7C7D8B",
"V.	c #9798C1",
"W.	c #6161FF",
"X.	c #DBDBFF",
"Y.	c #AEAEE1",
"Z.	c #6C6E79",
"`.	c #8D8E90",
" +	c #AFB0CD",
".+	c #E8E8F4",
"++	c #828490",
"@+	c #9999C2",
"#+	c #B5B5FF",
"$+	c #D2D2F7",
"%+	c #808197",
"&+	c #72747E",
"*+	c #959798",
"=+	c #B2B3D0",
"-+	c #E9E9F4",
";+	c #888B97",
">+	c #9A9BC3",
",+	c #F0F0FE",
"'+	c #9A9BC6",
")+	c #6E707A",
"!+	c #9C9E9E",
"~+	c #9C9DC7",
"{+	c #C0C1EA",
"]+	c #B5B6E2",
"^+	c #8F919C",
"/+	c #838596",
"(+	c #797B85",
"_+	c #86888C",
":+	c #8B8EAD",
"<+	c #8F92B3",
"[+	c #80828A",
"}+	c #000000",
"                                                                                                        ",
"                                                                                                        ",
"                                                                                                        ",
"                                                                                                        ",
"                                                                                                        ",
"                                                                                                        ",
"                                                                                                        ",
"                      . . . . . . . +         @                                                         ",
"                    + # $ $ $ $ $ % &         * =                                                       ",
"                    - ; > , , , ' ) !         ~ { ] ^                                                   ",
"                    / ; ( _ _ _ : ) !         ~ < [ } | 1                                               ",
"                    2 ; ( _ _ _ : ) 3         ~ 4 5 6 7 8 9                                             ",
"                    0 ; , _ _ _ : ) 3         ~ 4 5 5 a b c d e                                         ",
"                    f ; , _ _ _ : ) g         ~ 4 5 5 5 5 h i j k l                                     ",
"                    m ; n _ _ _ : ) g         ~ 4 5 5 5 5 5 5 o p q r                                   ",
"                    s ; n _ _ _ : ) t         ~ 4 5 5 5 5 5 5 5 u v w x y                               ",
"                    z ; A _ _ _ : ) t         ~ 4 5 5 5 5 5 5 5 5 5 B C D E F                           ",
"                    G ; A _ _ _ : ) H         ~ 4 5 5 5 5 5 5 5 5 5 5 a I J K r                         ",
"                    L ; M _ _ _ : ) H         N 4 5 5 5 5 5 5 5 5 5 5 5 O P Q R S T                     ",
"                    U ; M _ _ _ : ) H         N 4 5 5 5 5 5 V W X Y Z `  .....+.@.#.$.                  ",
"                    %.&.M _ _ *.n =.-.        ;.O >.,.'.). ...................+.@.!.~.                  ",
"                    {.].^./. ...a ) (.        _.P ........................:.<.R [.}.                    ",
"                    |.1.2.......a 3.4.        5.P ......................6.p 7.8.                        ",
"                    9.0.2.......a a.b.        c.P ..................d., e.f.g.                          ",
"                    h.i.2.......a j.k.        l.P ..............).*.m.n.o.                              ",
"                    p.q.2.......a r.s.        t.P ............u.7 v.w.                                  ",
"                    x.y.2.......a z.A.        B.P ........C.D.E.F.G.                                    ",
"                    H.I.2.......a J.K.        L.P ....M.N.O.P.Q.                                        ",
"                    R.S.2.......a T.U.        V.P ..W.X.Y.Z.                                            ",
"                    `. +2.......a .+++        @+*.#+$+%+&+                                              ",
"                    *+=+> v v v X.-+;+        >+,+'+)+                                                  ",
"                    !+~+{+{+{+{+{+]+^+        /+(+_+                                                    ",
"                      :+:+:+:+:+:+:+<+        [+                                                        ",
"                                                                                                        ",
"          }+}+}+      }+}+}+}+          }+}+}+}+  }+}+      }+}+  }+}+}+}+      }+}+  }+}+}+}+}+        ",
"          }+}+}+      }+}+  }+}+      }+}+    }+  }+}+      }+}+  }+}+  }+      }+    }+}+              ",
"          }+}+}+      }+}+  }+}+    }+}+          }+}+      }+}+  }+}+  }+}+  }+}+    }+}+              ",
"        }+}+}+}+}+    }+}+}+}+      }+}+          }+}+}+}+}+}+}+  }+}+  }+}+  }+}+    }+}+}+}+}+        ",
"        }+}+  }+}+    }+}+  }+}+    }+}+          }+}+      }+}+  }+}+    }+}+}+      }+}+              ",
"        }+}+}+}+}+    }+}+  }+}+      }+}+    }+  }+}+      }+}+  }+}+    }+}+}+      }+}+              ",
"      }+}+      }+}+  }+}+    }+}+      }+}+}+}+  }+}+      }+}+  }+}+    }+}+}+      }+}+}+}+}+        ",
"                                                                                                        ",
"                                                                                                        ",
"                                                                                                        ",
"                                                                                                        ",
"                                                                                                        ",
"                                                                                                        ",
"                                                                                                        ",
"                                                                                                        ",
"                                                                                                        ",
"                                                                                                        ",
"                                                                                                        "};
