/* XPM */
static const char * stepback_off_xpm[] = {
"43 32 230 2",
"  	c None",
". 	c #3E3E3C",
"+ 	c #444543",
"@ 	c #454643",
"# 	c #3A3A38",
"$ 	c #484946",
"% 	c #646563",
"& 	c #494A47",
"* 	c #3D3D3B",
"= 	c #717270",
"- 	c #D1D1D1",
"; 	c #8A8A89",
"> 	c #424441",
", 	c #494946",
"' 	c #70706F",
") 	c #DFDFDF",
"! 	c #D6D6D5",
"~ 	c #7C7C7B",
"{ 	c #FFFFFF",
"] 	c #F9F9F9",
"^ 	c #F6F6F6",
"/ 	c #9D9D9C",
"( 	c #434441",
"_ 	c #454644",
": 	c #585956",
"< 	c #CACACA",
"[ 	c #F8F8F8",
"} 	c #EBEBEB",
"| 	c #3F3F3E",
"1 	c #E4E4E4",
"2 	c #D9D9D9",
"3 	c #444542",
"4 	c #40403E",
"5 	c #4C4D4A",
"6 	c #B2B2B1",
"7 	c #E3E3E3",
"8 	c #D4D4D4",
"9 	c #DCDCDC",
"0 	c #41413F",
"a 	c #444643",
"b 	c #959695",
"c 	c #F1F1F1",
"d 	c #E9E9E9",
"e 	c #D6D6D6",
"f 	c #424240",
"g 	c #454744",
"h 	c #494A46",
"i 	c #767875",
"j 	c #D8D8D8",
"k 	c #434341",
"l 	c #464744",
"m 	c #464745",
"n 	c #5E5F5C",
"o 	c #D0D0D0",
"p 	c #F7F7F7",
"q 	c #454543",
"r 	c #464845",
"s 	c #4F504D",
"t 	c #B9B9B9",
"u 	c #E1E1E1",
"v 	c #D5D5D5",
"w 	c #494A48",
"x 	c #464644",
"y 	c #474845",
"z 	c #9D9E9D",
"A 	c #F3F3F3",
"B 	c #E8E8E8",
"C 	c #4A4C49",
"D 	c #474745",
"E 	c #4A4A48",
"F 	c #7F7F7E",
"G 	c #EFEFEF",
"H 	c #D7D7D7",
"I 	c #4B4D4A",
"J 	c #484846",
"K 	c #484A47",
"L 	c #4B4C48",
"M 	c #636462",
"N 	c #DBDBDB",
"O 	c #4C4E4B",
"P 	c #494947",
"Q 	c #525350",
"R 	c #BFC0BF",
"S 	c #E0E0E0",
"T 	c #4D4F4C",
"U 	c #494B48",
"V 	c #4C4C4B",
"W 	c #4A4B48",
"X 	c #A6A6A4",
"Y 	c #F5F5F5",
"Z 	c #B7B7B7",
"` 	c #B8B8B8",
" .	c #BEBEBE",
"..	c #C5C5C5",
"+.	c #CBCBCB",
"@.	c #4E504D",
"#.	c #4B4B49",
"$.	c #4E4F4D",
"%.	c #5D5E5B",
"&.	c #BDBDBD",
"*.	c #AAAAAA",
"=.	c #ADADAD",
"-.	c #B3B3B3",
";.	c #BABABA",
">.	c #C0C0C0",
",.	c #C8C8C8",
"'.	c #CCCCCC",
").	c #CFCFCF",
"!.	c #D3D3D3",
"~.	c #4F514E",
"{.	c #4C4C4A",
"].	c #50514D",
"^.	c #7B7C7B",
"/.	c #E5E5E5",
"(.	c #F0F0F0",
"_.	c #52534F",
":.	c #51534F",
"<.	c #9F9F9E",
"[.	c #51524E",
"}.	c #9C9C9A",
"|.	c #F2F2F2",
"1.	c #555754",
"2.	c #828381",
"3.	c #C2C2C2",
"4.	c #A2A2A1",
"5.	c #565654",
"6.	c #5E5E5A",
"7.	c #575855",
"8.	c #B8B8B7",
"9.	c #DADADA",
"0.	c #B0B0B0",
"a.	c #D7D7D6",
"b.	c #5A5C58",
"c.	c #5E605C",
"d.	c #868785",
"e.	c #A4A5A3",
"f.	c #5C5E59",
"g.	c #666765",
"h.	c #CECFCE",
"i.	c #ABABAB",
"j.	c #5E5F5D",
"k.	c #656763",
"l.	c #8A8B88",
"m.	c #A7A8A6",
"n.	c #626460",
"o.	c #60605C",
"p.	c #7F7F7C",
"q.	c #E2E2E1",
"r.	c #C3C3C3",
"s.	c #D8D8D7",
"t.	c #636360",
"u.	c #6B6D69",
"v.	c #8E8E8C",
"w.	c #AAAAA9",
"x.	c #696966",
"y.	c #5F605C",
"z.	c #9B9B99",
"A.	c #676864",
"B.	c #72746E",
"C.	c #91928F",
"D.	c #ADADAB",
"E.	c #6F716C",
"F.	c #727471",
"G.	c #B5B6B5",
"H.	c #DDDDDD",
"I.	c #B1B1B1",
"J.	c #6A6C68",
"K.	c #787A74",
"L.	c #959693",
"M.	c #AFB0AE",
"N.	c #747771",
"O.	c #70716D",
"P.	c #6E6F6C",
"Q.	c #CBCCCB",
"R.	c #D2D2D2",
"S.	c #ACACAC",
"T.	c #D9D9D8",
"U.	c #6D706C",
"V.	c #7F7F7B",
"W.	c #989A97",
"X.	c #B2B3B1",
"Y.	c #7A7C77",
"Z.	c #6D706B",
"`.	c #828480",
" +	c #DEDEDE",
".+	c #F4F4F4",
"++	c #C6C6C6",
"@+	c #71736F",
"#+	c #858782",
"$+	c #9D9E9A",
"%+	c #B5B6B3",
"&+	c #81847E",
"*+	c #6D6E6B",
"=+	c #EDEDED",
"-+	c #BBBBBB",
";+	c #DADAD9",
">+	c #747571",
",+	c #8C8E88",
"'+	c #A0A19E",
")+	c #B8B8B6",
"!+	c #878984",
"~+	c #838581",
"{+	c #6E706B",
"]+	c #B4B5B3",
"^+	c #777975",
"/+	c #90928E",
"(+	c #A4A5A1",
"_+	c #BABBB8",
":+	c #8D8F89",
"<+	c #7F7F7A",
"[+	c #787974",
"}+	c #C9CAC8",
"|+	c #FCFCFC",
"1+	c #DADBDA",
"2+	c #797C77",
"3+	c #979B93",
"4+	c #A7A9A5",
"5+	c #BDBEBB",
"6+	c #94978F",
"7+	c #7B7D78",
"8+	c #888986",
"9+	c #7D7F7B",
"0+	c #9DA19A",
"a+	c #ABADA8",
"b+	c #BFC1BE",
"c+	c #999C96",
"d+	c #7B7C77",
"e+	c #9C9E97",
"f+	c #9D9F98",
"g+	c #A3A59E",
"                                                                                      ",
"                                                  .             + @ @ @ @ @ @ @ @ #   ",
"                                                $ % &         * = - - - - - - - ; >   ",
"                                            , ' ) ! &         . ~ { ] ^ ^ ^ ^ { / (   ",
"                                        _ : < [ } ! &         | ~ { 1 2 2 2 2 { / 3   ",
"                                    4 5 6 [ 7 8 9 ! &         0 ~ { 1 2 2 2 2 { / a   ",
"                                  & b c d e 8 8 9 ! &         f ~ { 1 2 2 2 2 { / g   ",
"                              h i 1 c j 8 8 8 8 9 ! &         k ~ { 1 2 2 2 2 { / l   ",
"                          m n o p 9 8 8 8 8 8 8 9 ! &         q ~ { 1 2 2 2 2 { / r   ",
"                      k s t [ u v 8 8 8 8 8 8 8 9 ! w         x ~ { 1 2 2 2 2 { / y   ",
"                    & z A B v 8 8 8 8 8 8 8 8 8 9 ! C         D ~ { 1 2 2 2 2 { / $   ",
"                E F B G H 8 8 8 8 8 8 8 8 8 8 8 9 ! I         J ~ { 1 2 2 2 2 { / K   ",
"            L M e ^ N 8 8 8 8 8 8 8 8 8 8 8 8 8 9 ! O         P ~ { 1 2 2 2 2 { / &   ",
"        C Q R ] S 8 8 8 8 8 8 8 8 8 8 8 8 8 8 8 9 ! T         E ~ { 1 2 2 2 2 { / U   ",
"    V W X Y S Z `  ...+.- 8 8 8 8 8 8 8 8 8 8 8 9 ! @.        #.~ { 1 2 2 2 2 { / W   ",
"  $.%.} ] &.*.*.*.*.*.*.*.=.-.;.>...,.< '.).- !.9 ! ~.        {.~ { 1 2 2 2 2 { / C   ",
"    ].^./.(.>.*.*.*.*.*.*.*.*.*.*.*.*.*.*.*.*.*.< e _.        :.F { j '.).- 8 { <.~.  ",
"        [.}.|./.Z *.*.*.*.*.*.*.*.*.*.*.*.*.*.*.< e 1.        : 2.{ 3.*.*.*.*.{ 4.5.  ",
"          6.7.8.[ 9.0.*.*.*.*.*.*.*.*.*.*.*.*.*.< a.b.        c.d.{ 3.*.*.*.*.{ e.f.  ",
"              n g.h.p ).i.*.*.*.*.*.*.*.*.*.*.*.< H j.        k.l.{ 3.*.*.*.*.{ m.n.  ",
"                  o.p.q.|.r.*.*.*.*.*.*.*.*.*.*.< s.t.        u.v.{ 3.*.*.*.*.{ w.x.  ",
"                      y.z.(.B t *.*.*.*.*.*.*.*.< j A.        B.C.{ 3.*.*.*.*.{ D.E.  ",
"                        F.n.G.p H.I.*.*.*.*.*.*.< j J.        K.L.{ 3.*.*.*.*.{ M.N.  ",
"                            O.P.Q.[ R.S.*.*.*.*.< T.U.        V.W.{ 3.*.*.*.*.{ X.Y.  ",
"                                Z.`. +.+++*.*.*.< 2 @+        #+$+{ 3.*.*.*.*.{ %+&+  ",
"                                    *+z.=+} -+*.< ;+>+        ,+'+{ 3.*.*.*.*.{ )+!+  ",
"                                      ~+{+]+^ S !.9.^+        /+(+{ 3.*.*.*.*.{ _+:+  ",
"                                          <+[+}+|+1+2+        3+4+{ B ) ) ) ) { 5+6+  ",
"                                              7+8+X.9+        0+a+{ { { { { { { b+c+  ",
"                                                  d+#+          e+f+f+f+f+f+f+f+e+g+  ",
"                                                                                      ",
"                                                                                      "};
