/* XPM */
static const char * stepfwd_off_xpm[] = {
"43 32 231 2",
"  	c None",
". 	c #3A3A38",
"+ 	c #454643",
"@ 	c #444543",
"# 	c #3E3E3C",
"$ 	c #424441",
"% 	c #8A8A89",
"& 	c #D1D1D1",
"* 	c #717270",
"= 	c #3D3D3B",
"- 	c #494A47",
"; 	c #646563",
"> 	c #484946",
", 	c #434441",
"' 	c #9D9D9C",
") 	c #FFFFFF",
"! 	c #F6F6F6",
"~ 	c #F9F9F9",
"{ 	c #7C7C7B",
"] 	c #D6D6D5",
"^ 	c #DFDFDF",
"/ 	c #70706F",
"( 	c #494946",
"_ 	c #444542",
": 	c #D9D9D9",
"< 	c #E4E4E4",
"[ 	c #3F3F3E",
"} 	c #EBEBEB",
"| 	c #F8F8F8",
"1 	c #CACACA",
"2 	c #585956",
"3 	c #454644",
"4 	c #444643",
"5 	c #41413F",
"6 	c #DCDCDC",
"7 	c #D4D4D4",
"8 	c #E3E3E3",
"9 	c #B2B2B1",
"0 	c #4C4D4A",
"a 	c #40403E",
"b 	c #454744",
"c 	c #424240",
"d 	c #D6D6D6",
"e 	c #E9E9E9",
"f 	c #F1F1F1",
"g 	c #959695",
"h 	c #464744",
"i 	c #434341",
"j 	c #D8D8D8",
"k 	c #767875",
"l 	c #494A46",
"m 	c #464845",
"n 	c #454543",
"o 	c #F7F7F7",
"p 	c #D0D0D0",
"q 	c #5E5F5C",
"r 	c #464745",
"s 	c #474845",
"t 	c #464644",
"u 	c #494A48",
"v 	c #D5D5D5",
"w 	c #E1E1E1",
"x 	c #B9B9B9",
"y 	c #4F504D",
"z 	c #474745",
"A 	c #4A4C49",
"B 	c #E8E8E8",
"C 	c #F3F3F3",
"D 	c #9D9E9D",
"E 	c #484A47",
"F 	c #484846",
"G 	c #4B4D4A",
"H 	c #D7D7D7",
"I 	c #EFEFEF",
"J 	c #7F7F7E",
"K 	c #4A4A48",
"L 	c #494947",
"M 	c #4C4E4B",
"N 	c #DBDBDB",
"O 	c #636462",
"P 	c #4B4C48",
"Q 	c #494B48",
"R 	c #4D4F4C",
"S 	c #E0E0E0",
"T 	c #BFC0BF",
"U 	c #525350",
"V 	c #4A4B48",
"W 	c #4B4B49",
"X 	c #4E504D",
"Y 	c #CBCBCB",
"Z 	c #C5C5C5",
"` 	c #BEBEBE",
" .	c #B8B8B8",
"..	c #B7B7B7",
"+.	c #F5F5F5",
"@.	c #A6A6A4",
"#.	c #4C4C4B",
"$.	c #4C4C4A",
"%.	c #4F514E",
"&.	c #D3D3D3",
"*.	c #CFCFCF",
"=.	c #CCCCCC",
"-.	c #C8C8C8",
";.	c #C0C0C0",
">.	c #BABABA",
",.	c #B3B3B3",
"'.	c #ADADAD",
").	c #AAAAAA",
"!.	c #BDBDBD",
"~.	c #5D5E5B",
"{.	c #4E4F4D",
"].	c #9F9F9E",
"^.	c #CDCDCD",
"/.	c #51534F",
"(.	c #52534F",
"_.	c #F0F0F0",
":.	c #E5E5E5",
"<.	c #7B7C7B",
"[.	c #50514D",
"}.	c #565654",
"|.	c #A2A2A1",
"1.	c #C2C2C2",
"2.	c #828381",
"3.	c #555754",
"4.	c #F2F2F2",
"5.	c #9C9C9A",
"6.	c #51524E",
"7.	c #5C5E59",
"8.	c #A4A5A3",
"9.	c #868785",
"0.	c #5E605C",
"a.	c #5A5C58",
"b.	c #D7D7D6",
"c.	c #B0B0B0",
"d.	c #DADADA",
"e.	c #B8B8B7",
"f.	c #575855",
"g.	c #5E5E5A",
"h.	c #626460",
"i.	c #A7A8A6",
"j.	c #8A8B88",
"k.	c #656763",
"l.	c #5E5F5D",
"m.	c #ABABAB",
"n.	c #CECFCE",
"o.	c #666765",
"p.	c #696966",
"q.	c #AAAAA9",
"r.	c #8E8E8C",
"s.	c #6B6D69",
"t.	c #636360",
"u.	c #D8D8D7",
"v.	c #C3C3C3",
"w.	c #E2E2E1",
"x.	c #7F7F7C",
"y.	c #60605C",
"z.	c #6F716C",
"A.	c #ADADAB",
"B.	c #91928F",
"C.	c #72746E",
"D.	c #676864",
"E.	c #9B9B99",
"F.	c #5F605C",
"G.	c #747771",
"H.	c #AFB0AE",
"I.	c #959693",
"J.	c #787A74",
"K.	c #6A6C68",
"L.	c #B1B1B1",
"M.	c #DDDDDD",
"N.	c #B5B6B5",
"O.	c #727471",
"P.	c #7A7C77",
"Q.	c #B2B3B1",
"R.	c #989A97",
"S.	c #7F7F7B",
"T.	c #6D706C",
"U.	c #D9D9D8",
"V.	c #ACACAC",
"W.	c #D2D2D2",
"X.	c #CBCCCB",
"Y.	c #6E6F6C",
"Z.	c #70716D",
"`.	c #81847E",
" +	c #B5B6B3",
".+	c #9D9E9A",
"++	c #858782",
"@+	c #71736F",
"#+	c #C6C6C6",
"$+	c #F4F4F4",
"%+	c #DEDEDE",
"&+	c #828480",
"*+	c #6D706B",
"=+	c #878984",
"-+	c #B8B8B6",
";+	c #A0A19E",
">+	c #8C8E88",
",+	c #747571",
"'+	c #DADAD9",
")+	c #BBBBBB",
"!+	c #EDEDED",
"~+	c #6D6E6B",
"{+	c #8D8F89",
"]+	c #BABBB8",
"^+	c #A4A5A1",
"/+	c #90928E",
"(+	c #777975",
"_+	c #B4B5B3",
":+	c #6E706B",
"<+	c #838581",
"[+	c #94978F",
"}+	c #BDBEBB",
"|+	c #A7A9A5",
"1+	c #979B93",
"2+	c #797C77",
"3+	c #DADBDA",
"4+	c #FCFCFC",
"5+	c #C9CAC8",
"6+	c #787974",
"7+	c #7F7F7A",
"8+	c #999C96",
"9+	c #BFC1BE",
"0+	c #ABADA8",
"a+	c #9DA19A",
"b+	c #7D7F7B",
"c+	c #888986",
"d+	c #7B7D78",
"e+	c #A3A59E",
"f+	c #9C9E97",
"g+	c #9D9F98",
"h+	c #7B7C77",
"                                                                                      ",
"  . + + + + + + + + @             #                                                   ",
"  $ % & & & & & & & * =         - ; >                                                 ",
"  , ' ) ! ! ! ! ~ ) { #         - ] ^ / (                                             ",
"  _ ' ) : : : : < ) { [         - ] } | 1 2 3                                         ",
"  4 ' ) : : : : < ) { 5         - ] 6 7 8 | 9 0 a                                     ",
"  b ' ) : : : : < ) { c         - ] 6 7 7 d e f g -                                   ",
"  h ' ) : : : : < ) { i         - ] 6 7 7 7 7 j f < k l                               ",
"  m ' ) : : : : < ) { n         - ] 6 7 7 7 7 7 7 6 o p q r                           ",
"  s ' ) : : : : < ) { t         u ] 6 7 7 7 7 7 7 7 v w | x y i                       ",
"  > ' ) j : : : < ) { z         A ] 6 7 7 7 7 7 7 7 7 7 v B C D -                     ",
"  E ' ) j : : : < ) { F         G ] 6 7 7 7 7 7 7 7 7 7 7 7 H I B J K                 ",
"  - ' ) H : : : < ) { L         M ] 6 7 7 7 7 7 7 7 7 7 7 7 7 7 N ! d O P             ",
"  Q ' ) d : : : < ) { K         R ] 6 7 7 7 7 7 7 7 7 7 7 7 7 7 7 7 S ~ T U A         ",
"  V ' ) v : : : < ) { W         X ] 6 7 7 7 7 7 7 7 7 7 7 7 & Y Z `  ...S +.@.V #.    ",
"  A ' ) v : : : < ) { $.        %.] 6 &.& *.=.1 -.Z ;.>.,.'.).).).).).).).!.~ } ~.{.  ",
"  %.].) p &.p ^.: ) J /.        (.d 1 ).).).).).).).).).).).).).).).).).;._.:.<.[.    ",
"  }.|.) ).).).).1.) 2.2         3.d 1 ).).).).).).).).).).).).).).)...:.4.5.6.        ",
"  7.8.) ).).).).1.) 9.0.        a.b.1 ).).).).).).).).).).).).).c.d.| e.f.g.          ",
"  h.i.) ).).).).1.) j.k.        l.H 1 ).).).).).).).).).).).m.*.o n.o.q               ",
"  p.q.) ).).).).1.) r.s.        t.u.1 ).).).).).).).).).).v.4.w.x.y.                  ",
"  z.A.) ).).).).1.) B.C.        D.j 1 ).).).).).).).).x B _.E.F.                      ",
"  G.H.) ).).).).1.) I.J.        K.j 1 ).).).).).).L.M.o N.h.O.                        ",
"  P.Q.) ).).).).1.) R.S.        T.U.1 ).).).).V.W.| X.Y.Z.                            ",
"  `. +) ).).).).1.) .+++        @+: 1 ).).).#+$+%+&+*+                                ",
"  =+-+) ).).).).1.) ;+>+        ,+'+1 ).)+} !+E.~+                                    ",
"  {+]+) ).).).).1.) ^+/+        (+d.&.S ! _+:+<+                                      ",
"  [+}+) ^ ^ ^ ^ B ) |+1+        2+3+4+5+6+7+                                          ",
"  8+9+) ) ) ) ) ) ) 0+a+        b+Q.c+d+                                              ",
"  e+f+g+g+g+g+g+g+g+f+          ++h+                                                  ",
"                                                                                      ",
"                                                                                      "};
