/* XPM */
static char * stepback_archive_xpm[] = {
"54 54 242 2",
"  	c None",
". 	c #3B3B46",
"+ 	c #3A3C3E",
"@ 	c #444546",
"# 	c #454651",
"$ 	c #656684",
"% 	c #3A3C3F",
"& 	c #404156",
"* 	c #9999C7",
"= 	c #D4D5F3",
"- 	c #8F8FB7",
"; 	c #3F4046",
"> 	c #3F414D",
", 	c #6B6C88",
"' 	c #D8D8F9",
") 	c #ADAEE0",
"! 	c #414156",
"~ 	c #B3B4D0",
"{ 	c #EBEBFF",
"] 	c #CACAFF",
"^ 	c #E5E5FF",
"/ 	c #A6A6BE",
"( 	c #414248",
"_ 	c #4F505E",
": 	c #ACACE2",
"< 	c #D9D9FF",
"[ 	c #ADADFF",
"} 	c #414357",
"| 	c #DBDBFF",
"1 	c #A1A1FF",
"2 	c #C4C4FF",
"3 	c #424248",
"4 	c #42424F",
"5 	c #8484B0",
"6 	c #E2E2FD",
"7 	c #ABABFF",
"8 	c #9595FF",
"9 	c #9F9FFF",
"0 	c #42444A",
"a 	c #3E3E49",
"b 	c #606175",
"c 	c #C9C9F3",
"d 	c #C6C6FF",
"e 	c #9797FF",
"f 	c #9494FF",
"g 	c #434357",
"h 	c #C3C3FF",
"i 	c #44444A",
"j 	c #484956",
"k 	c #9D9DD2",
"l 	c #E0E0FE",
"m 	c #A0A0FF",
"n 	c #434458",
"o 	c #C2C2FF",
"p 	c #41414F",
"q 	c #747599",
"r 	c #DDDDFB",
"s 	c #B3B3FF",
"t 	c #9696FF",
"u 	c #3C3C41",
"v 	c #434459",
"w 	c #44464C",
"x 	c #3E4047",
"y 	c #565766",
"z 	c #B8B9EA",
"A 	c #D1D1FF",
"B 	c #9999FF",
"C 	c #3F4145",
"D 	c #444459",
"E 	c #C1C1FF",
"F 	c #46464C",
"G 	c #464753",
"H 	c #8E8EC0",
"I 	c #E2E2FE",
"J 	c #A5A5FF",
"K 	c #434349",
"L 	c #44465A",
"M 	c #C0C0FF",
"N 	c #46484E",
"O 	c #444453",
"P 	c #686882",
"Q 	c #D2D2F7",
"R 	c #BDBDFF",
"S 	c #45474C",
"T 	c #48494F",
"U 	c #A8A8DC",
"V 	c #D7D7FF",
"W 	c #8A8AFF",
"X 	c #8D8DFF",
"Y 	c #494A4E",
"Z 	c #BFBFFF",
"` 	c #454655",
" .	c #7E80A9",
"..	c #E0E0FC",
"+.	c #8C8CFF",
"@.	c #2D2DFF",
"#.	c #2A2AFF",
"$.	c #3434FF",
"%.	c #4646FF",
"&.	c #5656FF",
"*.	c #6868FF",
"=.	c #7979FF",
"-.	c #4A4C50",
";.	c #46465A",
">.	c #49494F",
",.	c #484955",
"'.	c #8182AB",
").	c #2B2BFF",
"!.	c #3030FF",
"~.	c #3737FF",
"{.	c #3C3CFF",
"].	c #4343FF",
"^.	c #6D6DFF",
"/.	c #AEAEE0",
"(.	c #4E5054",
"_.	c #48495E",
":.	c #B4B4D1",
"<.	c #D6D6FF",
"[.	c #9B9BFF",
"}.	c #BEBEFF",
"|.	c #A7A7C0",
"1.	c #4C4E54",
"2.	c #545461",
"3.	c #AAAADE",
"4.	c #5A5AFF",
"5.	c #5959FF",
"6.	c #AEAFE1",
"7.	c #565659",
"8.	c #4F5064",
"9.	c #B6B6D3",
"0.	c #B0B0FF",
"a.	c #3232FF",
"b.	c #B2B2FF",
"c.	c #A9AAC2",
"d.	c #52565A",
"e.	c #545561",
"f.	c #707089",
"g.	c #D3D3F8",
"h.	c #AAAAFF",
"i.	c #3838FF",
"j.	c #AFAFE2",
"k.	c #5B5D61",
"l.	c #55576A",
"m.	c #B8B8D4",
"n.	c #ABACC4",
"o.	c #5B5C61",
"p.	c #545560",
"q.	c #9494C5",
"r.	c #E1E1FE",
"s.	c #7878FF",
"t.	c #B0B0E2",
"u.	c #636366",
"v.	c #5B5D71",
"w.	c #B9BAD6",
"x.	c #AEAFC7",
"y.	c #616369",
"z.	c #67676E",
"A.	c #676875",
"B.	c #BDBDED",
"C.	c #C8C8FF",
"D.	c #4B4BFF",
"E.	c #B0B1E3",
"F.	c #686A6E",
"G.	c #626477",
"H.	c #BBBCD8",
"I.	c #B1B1C9",
"J.	c #69696F",
"K.	c #5D606B",
"L.	c #8384A7",
"M.	c #DEDEFC",
"N.	c #3131FF",
"O.	c #B1B1E4",
"P.	c #707073",
"Q.	c #68697C",
"R.	c #BDBDD9",
"S.	c #B3B3CB",
"T.	c #6F7175",
"U.	c #636570",
"V.	c #A7A7DA",
"W.	c #DCDCFF",
"X.	c #6464FF",
"Y.	c #B2B2E4",
"Z.	c #75757B",
"`.	c #6F6F83",
" +	c #BFBFDB",
".+	c #B5B6CE",
"++	c #78787C",
"@+	c #6D6F78",
"#+	c #797A8C",
"$+	c #CECEF6",
"%+	c #B5B5FF",
"&+	c #3D3DFF",
"*+	c #B2B3E5",
"=+	c #79797D",
"-+	c #747789",
";+	c #C1C1DD",
">+	c #B8B9D0",
",+	c #7C8083",
"'+	c #676873",
")+	c #9696C1",
"!+	c #8282FF",
"~+	c #2C2CFF",
"{+	c #B3B3E6",
"]+	c #7D7D80",
"^+	c #7B7E90",
"/+	c #C2C3DF",
"(+	c #BABBD2",
"_+	c #848689",
":+	c #818387",
"<+	c #747580",
"[+	c #B7B8EA",
"}+	c #D0D0FF",
"|+	c #8181FF",
"1+	c #B4B4E6",
"2+	c #7F8084",
"3+	c #818395",
"4+	c #C4C5E0",
"5+	c #BDBDD5",
"6+	c #8B8C91",
"7+	c #72737E",
"8+	c #898BA6",
"9+	c #DEDEFB",
"0+	c #B4B5E7",
"a+	c #828486",
"b+	c #898A9C",
"c+	c #C6C6E2",
"d+	c #E4E4FF",
"e+	c #B6B6FF",
"f+	c #BFC0D7",
"g+	c #929398",
"h+	c #73757E",
"i+	c #8687A2",
"j+	c #86868A",
"k+	c #8E90A1",
"l+	c #A4A5D4",
"m+	c #C0C1EA",
"n+	c #A2A3CC",
"o+	c #989A9D",
"p+	c #82848C",
"q+	c #9395B4",
"r+	c #8B8CAD",
"s+	c #000000",
"                                                                                                            ",
"                                                                                                            ",
"                                                                                                            ",
"                                                                                                            ",
"                                                                                                            ",
"                                                                                                            ",
"                                                                                                            ",
"                                                                                                            ",
"                                                                                                            ",
"                                                                                                            ",
"                                                            .         + @ @ @ @ @ @ @                       ",
"                                                          # $ %       & * = = = = = - ;                     ",
"                                                      > , ' ) %       ! ~ { ] ] ] ^ / (                     ",
"                                                    _ : < [ ) %       } ~ | 1 1 1 2 / 3                     ",
"                                                4 5 6 7 8 9 ) %       } ~ | 1 1 1 2 / 0                     ",
"                                            a b c d e f f 9 ) %       g ~ | 1 1 1 h / i                     ",
"                                          j k l m f f f f 9 ) %       n ~ | 1 1 1 o / i                     ",
"                                      p q r s t f f f f f 9 ) u       v ~ | 1 1 1 o / w                     ",
"                                  x y z A B f f f f f f f 9 ) C       D ~ | 1 1 1 E / F                     ",
"                                G H I J f f f f f f f f f 9 ) K       L ~ | 1 1 1 M / N                     ",
"                            O P Q R t f f f f f f f f f f 9 ) S       L ~ | 1 1 1 M / T                     ",
"                          _ U V W X f f f f f f f f f f f 9 ) Y       L ~ | 1 1 1 Z / T                     ",
"                      `  ...+.@.#.#.$.%.&.*.=.W f f f f f 9 ) -.      ;.~ | 1 1 1 Z / >.                    ",
"                      ,.'...+.@.#.#.#.#.#.#.#.#.).!.~.{.].^./.(.      _.:.<.[.1 1 }.|.1.                    ",
"                          2.3.V 4.#.#.#.#.#.#.#.#.#.#.#.#.5.6.7.      8.9.0.#.).a.b.c.d.                    ",
"                            e.f.g.h.i.#.#.#.#.#.#.#.#.#.#.5.j.k.      l.m.0.#.#.#.0.n.o.                    ",
"                                p.q.r.s.#.#.#.#.#.#.#.#.#.5.t.u.      v.w.0.#.#.#.0.x.y.                    ",
"                                  z.A.B.C.D.#.#.#.#.#.#.#.5.E.F.      G.H.0.#.#.#.0.I.J.                    ",
"                                      K.L.M.t N.#.#.#.#.#.5.O.P.      Q.R.0.#.#.#.0.S.T.                    ",
"                                          U.V.W.X.#.#.#.#.5.Y.Z.      `. +0.#.#.#.0..+++                    ",
"                                            @+#+$+%+&+#.#.5.*+=+      -+;+0.#.#.#.0.>+,+                    ",
"                                                '+)+6 !+~+5.{+]+      ^+/+0.#.#.#.0.(+_+                    ",
"                                                  :+<+[+}+|+1+2+      3+4+0.#.#.#.0.5+6+                    ",
"                                                      7+8+9+0+a+      b+c+d+e+e+e+d+f+g+                    ",
"                                                          h+i+j+      k+l+m+m+m+m+m+n+o+                    ",
"                                                            p+        q+r+r+r+r+r+r+r+                      ",
"                                                                                                            ",
"                                                                                                            ",
"            s+s+s+      s+s+s+s+          s+s+s+s+  s+s+      s+s+  s+s+s+s+      s+s+  s+s+s+s+s+          ",
"            s+s+s+      s+s+  s+s+      s+s+    s+  s+s+      s+s+  s+s+  s+      s+    s+s+                ",
"            s+s+s+      s+s+  s+s+    s+s+          s+s+      s+s+  s+s+  s+s+  s+s+    s+s+                ",
"          s+s+s+s+s+    s+s+s+s+      s+s+          s+s+s+s+s+s+s+  s+s+  s+s+  s+s+    s+s+s+s+s+          ",
"          s+s+  s+s+    s+s+  s+s+    s+s+          s+s+      s+s+  s+s+    s+s+s+      s+s+                ",
"          s+s+s+s+s+    s+s+  s+s+      s+s+    s+  s+s+      s+s+  s+s+    s+s+s+      s+s+                ",
"        s+s+      s+s+  s+s+    s+s+      s+s+s+s+  s+s+      s+s+  s+s+    s+s+s+      s+s+s+s+s+          ",
"                                                                                                            ",
"                                                                                                            ",
"                                                                                                            ",
"                                                                                                            ",
"                                                                                                            ",
"                                                                                                            ",
"                                                                                                            ",
"                                                                                                            ",
"                                                                                                            "};
