/* XPM */
static const char * stepback_on_xpm[] = {
"43 32 287 2",
"  	c None",
". 	c #3B3D3D",
"+ 	c #444544",
"@ 	c #454643",
"# 	c #3A3A38",
"$ 	c #444449",
"% 	c #5A5B6C",
"& 	c #40404C",
"* 	c #3D3D3B",
"= 	c #535484",
"- 	c #BBBBE2",
"; 	c #6C6C9D",
"> 	c #404142",
", 	c #41434B",
"' 	c #626378",
") 	c #C6C6F1",
"! 	c #BABAE9",
"~ 	c #3E3E3C",
"{ 	c #5D5D90",
"] 	c #FFFFFF",
"^ 	c #F0F0FF",
"/ 	c #EBEBFF",
"( 	c #8585AD",
"_ 	c #414243",
": 	c #404047",
"< 	c #52535B",
"[ 	c #ACACDF",
"} 	c #EFEFFF",
"| 	c #CECEFF",
"1 	c #3F3F3E",
"2 	c #BBBBFF",
"3 	c #A1A1FF",
"4 	c #414344",
"5 	c #3C3D41",
"6 	c #48494D",
"7 	c #9494C7",
"8 	c #EFEFFE",
"9 	c #BABAFF",
"0 	c #9696FF",
"a 	c #A8A8FF",
"b 	c #41413F",
"c 	c #424445",
"d 	c #43444A",
"e 	c #7D7EA6",
"f 	c #E2E2FB",
"g 	c #CCCCFF",
"h 	c #9999FF",
"i 	c #9494FF",
"j 	c #424240",
"k 	c #434445",
"l 	c #42444B",
"m 	c #686880",
"n 	c #CDCDF4",
"o 	c #DFDFFF",
"p 	c #9F9FFF",
"q 	c #434341",
"r 	c #444546",
"s 	c #414249",
"t 	c #575862",
"u 	c #B3B3E4",
"v 	c #EDEDFF",
"w 	c #A9A9FF",
"x 	c #9595FF",
"y 	c #454543",
"z 	c #444646",
"A 	c #3F3F44",
"B 	c #4C4D50",
"C 	c #9B9BCD",
"D 	c #F0F0FE",
"E 	c #B6B6FF",
"F 	c #9797FF",
"G 	c #41414D",
"H 	c #464644",
"I 	c #A0A0FF",
"J 	c #454647",
"K 	c #45464B",
"L 	c #8383AF",
"M 	c #E7E7FD",
"N 	c #C7C7FF",
"O 	c #42424E",
"P 	c #474745",
"Q 	c #9E9EFF",
"R 	c #454748",
"S 	c #43444C",
"T 	c #6D6E89",
"U 	c #D3D3F7",
"V 	c #DADAFF",
"W 	c #43434F",
"X 	c #484846",
"Y 	c #9D9DFF",
"Z 	c #464848",
"` 	c #44444D",
" .	c #5B5C69",
"..	c #EAEAFF",
"+.	c #A6A6FF",
"@.	c #444450",
"#.	c #494947",
"$.	c #9B9BFF",
"%.	c #474849",
"&.	c #45464D",
"*.	c #4F5054",
"=.	c #A0A0D3",
"-.	c #F1F1FF",
";.	c #B3B3FF",
">.	c #454551",
",.	c #4A4A48",
"'.	c #474949",
").	c #4A4A4C",
"!.	c #46474B",
"~.	c #8989B8",
"{.	c #EAEAFD",
"].	c #4E4EFF",
"^.	c #5E5EFF",
"/.	c #6E6EFF",
"(.	c #7E7EFF",
"_.	c #8D8DFF",
":.	c #464652",
"<.	c #4B4B49",
"[.	c #48494A",
"}.	c #474751",
"|.	c #555662",
"1.	c #D8D8F8",
"2.	c #5A5AFF",
"3.	c #2A2AFF",
"4.	c #3232FF",
"5.	c #4242FF",
"6.	c #5252FF",
"7.	c #6262FF",
"8.	c #6F6FFF",
"9.	c #7676FF",
"0.	c #7B7BFF",
"a.	c #8181FF",
"b.	c #8787FF",
"c.	c #8C8CFF",
"d.	c #9292FF",
"e.	c #A7A7FF",
"f.	c #474753",
"g.	c #4C4C4A",
"h.	c #484A4B",
"i.	c #494952",
"j.	c #6B6C85",
"k.	c #CFCFF5",
"l.	c #D9D9FF",
"m.	c #6363FF",
"n.	c #494955",
"o.	c #51534F",
"p.	c #606093",
"q.	c #8282FF",
"r.	c #8989FF",
"s.	c #9090FF",
"t.	c #8A8AFF",
"u.	c #8787AF",
"v.	c #4D4F50",
"w.	c #4B4C52",
"x.	c #8283AC",
"y.	c #E4E4FC",
"z.	c #C0C0FF",
"A.	c #4B4BFF",
"B.	c #7A7AFF",
"C.	c #BABAEA",
"D.	c #4D4D5A",
"E.	c #585956",
"F.	c #636496",
"G.	c #6666FF",
"H.	c #8A8AB2",
"I.	c #545456",
"J.	c #585A5D",
"K.	c #545558",
"L.	c #9999CB",
"M.	c #A3A3FF",
"N.	c #3939FF",
"O.	c #BBBBEA",
"P.	c #51525E",
"Q.	c #5E605C",
"R.	c #67689A",
"S.	c #8C8DB4",
"T.	c #5A5B5B",
"U.	c #585960",
"V.	c #606169",
"W.	c #B0B1E3",
"X.	c #2E2EFF",
"Y.	c #BBBBEB",
"Z.	c #545662",
"`.	c #656763",
" +	c #6B6C9D",
".+	c #8F90B7",
"++	c #606261",
"@+	c #575961",
"#+	c #707187",
"$+	c #C9C9F3",
"%+	c #6A6AFF",
"&+	c #BBBCEB",
"*+	c #595B65",
"=+	c #6B6D69",
"-+	c #6F6FA1",
";+	c #9292BA",
">+	c #676768",
",+	c #595B60",
"'+	c #8384A9",
")+	c #DFDFFB",
"!+	c #5050FF",
"~+	c #BCBCEB",
"{+	c #5D5E6A",
"]+	c #72746E",
"^+	c #7273A4",
"/+	c #9595BC",
"(+	c #6D6E6E",
"_+	c #717374",
":+	c #5E6064",
"<+	c #9797C8",
"[+	c #EEEEFE",
"}+	c #ABABFF",
"|+	c #3D3DFF",
"1+	c #BCBCEC",
"2+	c #62626E",
"3+	c #787A74",
"4+	c #7677A8",
"5+	c #9798BF",
"6+	c #727573",
"7+	c #6A6B71",
"8+	c #696A6F",
"9+	c #ADADE0",
"0+	c #8E8EFF",
"a+	c #3030FF",
"b+	c #BDBDEC",
"c+	c #656672",
"d+	c #7F7F7B",
"e+	c #797BAC",
"f+	c #9A9BC2",
"g+	c #787A79",
"h+	c #67696F",
"i+	c #777789",
"j+	c #C4C4F1",
"k+	c #E4E4FF",
"l+	c #7272FF",
"m+	c #686975",
"n+	c #858782",
"o+	c #7E7FAF",
"p+	c #9D9EC4",
"q+	c #7F827F",
"r+	c #67686F",
"s+	c #8687A9",
"t+	c #DBDBFA",
"u+	c #5656FF",
"v+	c #BDBEED",
"w+	c #6A6D78",
"x+	c #8C8E88",
"y+	c #8182B3",
"z+	c #A0A0C7",
"A+	c #858686",
"B+	c #828482",
"C+	c #6A6C6E",
"D+	c #9899C6",
"E+	c #ECECFE",
"F+	c #B2B2FF",
"G+	c #BEBEED",
"H+	c #6E707A",
"I+	c #90928E",
"J+	c #8586B6",
"K+	c #A2A3C9",
"L+	c #8B8D8B",
"M+	c #797A7E",
"N+	c #757678",
"O+	c #AAAADD",
"P+	c #F9F9FF",
"Q+	c #BEBFEE",
"R+	c #71727D",
"S+	c #979B93",
"T+	c #888ABA",
"U+	c #C6C6FF",
"V+	c #AFAFFF",
"W+	c #A5A6CC",
"X+	c #929591",
"Y+	c #73767C",
"Z+	c #7E808D",
"`+	c #9596C6",
" @	c #747681",
".@	c #9DA19A",
"+@	c #8C8EBD",
"@@	c #A7A9CF",
"#@	c #969997",
"$@	c #75767C",
"%@	c #7D7F88",
"&@	c #999B98",
"*@	c #96989C",
"=@	c #989A99",
"-@	c #A0A2A0",
"                                                                                      ",
"                                                  .             + @ @ @ @ @ @ @ @ #   ",
"                                                $ % &         * = - - - - - - - ; >   ",
"                                            , ' ) ! &         ~ { ] ^ / / / / ] ( _   ",
"                                        : < [ } | ! &         1 { ] 2 3 3 3 3 ] ( 4   ",
"                                    5 6 7 8 9 0 a ! &         b { ] 2 3 3 3 3 ] ( c   ",
"                                  d e f g h i i a ! &         j { ] 2 3 3 3 3 ] ( k   ",
"                              l m n o p i i i i a ! &         q { ] 2 3 3 3 3 ] ( r   ",
"                          s t u v w x i i i i i a ! &         y { ] 2 3 3 3 3 ] ( z   ",
"                      A B C D E F i i i i i i i a ! G         H { ] 2 3 3 3 I ] ( J   ",
"                    K L M N h i i i i i i i i i a ! O         P { ] 2 3 3 3 Q ] ( R   ",
"                S T U V Q i i i i i i i i i i i a ! W         X { ] 2 3 3 3 Y ] ( Z   ",
"            `  .! ..+.x i i i i i i i i i i i i a ! @.        #.{ ] 2 3 3 3 $.] ( %.  ",
"        &.*.=.-.;.0 i i i i i i i i i i i i i i a ! >.        ,.{ ] 2 3 3 3 h ] ( '.  ",
"    ).!.~.{.;.].].^./.(._.i i i i i i i i i i i a ! :.        <.{ ] 2 3 3 3 F ] ( [.  ",
"  }.|.1.-.2.3.3.3.3.3.3.3.4.5.6.7.8.9.0.a.b.c.d.e.! f.        g.{ ] 2 3 3 3 x ] ( h.  ",
"    i.j.k.l.m.3.3.3.3.3.3.3.3.3.3.3.3.3.3.3.3.3.0.! n.        o.p.] I q.r.s.t.] u.v.  ",
"        w.x.y.z.A.3.3.3.3.3.3.3.3.3.3.3.3.3.3.3.B.C.D.        E.F.] G.3.3.3.3.] H.I.  ",
"          J.K.L.8 M.N.3.3.3.3.3.3.3.3.3.3.3.3.3.B.O.P.        Q.R.] G.3.3.3.3.] S.T.  ",
"              U.V.W.v b.X.3.3.3.3.3.3.3.3.3.3.3.B.Y.Z.        `. +] G.3.3.3.3.] .+++  ",
"                  @+#+$+o %+3.3.3.3.3.3.3.3.3.3.B.&+*+        =+-+] G.3.3.3.3.] ;+>+  ",
"                      ,+'+)+N !+3.3.3.3.3.3.3.3.B.~+{+        ]+^+] G.3.3.3.3.] /+(+  ",
"                        _+:+<+[+}+|+3.3.3.3.3.3.B.1+2+        3+4+] G.3.3.3.3.] 5+6+  ",
"                            7+8+9+} 0+a+3.3.3.3.B.b+c+        d+e+] G.3.3.3.3.] f+g+  ",
"                                h+i+j+k+l+3.3.3.B.b+m+        n+o+] G.3.3.3.3.] p+q+  ",
"                                    r+s+t+| u+3.B.v+w+        x+y+] G.3.3.3.3.] z+A+  ",
"                                      B+C+D+E+F+d.G+H+        I+J+] G.3.3.3.3.] K+L+  ",
"                                          M+N+O+P+Q+R+        S+T+] U+V+V+V+V+] W+X+  ",
"                                              Y+Z+`+ @        .@+@] ] ] ] ] ] ] @@#@  ",
"                                                  $@%@          &@*@*@*@*@*@*@*@=@-@  ",
"                                                                                      ",
"                                                                                      "};
