/* XPM */
static const char * stepfwd_on_xpm[] = {
"43 32 287 2",
"  	c None",
". 	c #3A3A38",
"+ 	c #454643",
"@ 	c #444544",
"# 	c #3B3D3D",
"$ 	c #404142",
"% 	c #6C6C9D",
"& 	c #BBBBE2",
"* 	c #535484",
"= 	c #3D3D3B",
"- 	c #40404C",
"; 	c #5A5B6C",
"> 	c #444449",
", 	c #414243",
"' 	c #8585AD",
") 	c #FFFFFF",
"! 	c #EBEBFF",
"~ 	c #F0F0FF",
"{ 	c #5D5D90",
"] 	c #3E3E3C",
"^ 	c #BABAE9",
"/ 	c #C6C6F1",
"( 	c #626378",
"_ 	c #41434B",
": 	c #414344",
"< 	c #A1A1FF",
"[ 	c #BBBBFF",
"} 	c #3F3F3E",
"| 	c #CECEFF",
"1 	c #EFEFFF",
"2 	c #ACACDF",
"3 	c #52535B",
"4 	c #404047",
"5 	c #424445",
"6 	c #41413F",
"7 	c #A8A8FF",
"8 	c #9696FF",
"9 	c #BABAFF",
"0 	c #EFEFFE",
"a 	c #9494C7",
"b 	c #48494D",
"c 	c #3C3D41",
"d 	c #434445",
"e 	c #424240",
"f 	c #9494FF",
"g 	c #9999FF",
"h 	c #CCCCFF",
"i 	c #E2E2FB",
"j 	c #7D7EA6",
"k 	c #43444A",
"l 	c #444546",
"m 	c #434341",
"n 	c #9F9FFF",
"o 	c #DFDFFF",
"p 	c #CDCDF4",
"q 	c #686880",
"r 	c #42444B",
"s 	c #444646",
"t 	c #454543",
"u 	c #9595FF",
"v 	c #A9A9FF",
"w 	c #EDEDFF",
"x 	c #B3B3E4",
"y 	c #575862",
"z 	c #414249",
"A 	c #454647",
"B 	c #A0A0FF",
"C 	c #464644",
"D 	c #41414D",
"E 	c #9797FF",
"F 	c #B6B6FF",
"G 	c #F0F0FE",
"H 	c #9B9BCD",
"I 	c #4C4D50",
"J 	c #3F3F44",
"K 	c #454748",
"L 	c #9E9EFF",
"M 	c #474745",
"N 	c #42424E",
"O 	c #C7C7FF",
"P 	c #E7E7FD",
"Q 	c #8383AF",
"R 	c #45464B",
"S 	c #464848",
"T 	c #9D9DFF",
"U 	c #484846",
"V 	c #43434F",
"W 	c #DADAFF",
"X 	c #D3D3F7",
"Y 	c #6D6E89",
"Z 	c #43444C",
"` 	c #474849",
" .	c #9B9BFF",
"..	c #494947",
"+.	c #444450",
"@.	c #A6A6FF",
"#.	c #EAEAFF",
"$.	c #5B5C69",
"%.	c #44444D",
"&.	c #474949",
"*.	c #4A4A48",
"=.	c #454551",
"-.	c #B3B3FF",
";.	c #F1F1FF",
">.	c #A0A0D3",
",.	c #4F5054",
"'.	c #45464D",
").	c #48494A",
"!.	c #4B4B49",
"~.	c #464652",
"{.	c #8D8DFF",
"].	c #7E7EFF",
"^.	c #6E6EFF",
"/.	c #5E5EFF",
"(.	c #4E4EFF",
"_.	c #EAEAFD",
":.	c #8989B8",
"<.	c #46474B",
"[.	c #4A4A4C",
"}.	c #484A4B",
"|.	c #4C4C4A",
"1.	c #474753",
"2.	c #A7A7FF",
"3.	c #9292FF",
"4.	c #8C8CFF",
"5.	c #8787FF",
"6.	c #8181FF",
"7.	c #7B7BFF",
"8.	c #7676FF",
"9.	c #6F6FFF",
"0.	c #6262FF",
"a.	c #5252FF",
"b.	c #4242FF",
"c.	c #3232FF",
"d.	c #2A2AFF",
"e.	c #5A5AFF",
"f.	c #D8D8F8",
"g.	c #555662",
"h.	c #474751",
"i.	c #4D4F50",
"j.	c #8787AF",
"k.	c #8A8AFF",
"l.	c #9090FF",
"m.	c #8989FF",
"n.	c #8282FF",
"o.	c #606093",
"p.	c #51534F",
"q.	c #494955",
"r.	c #6363FF",
"s.	c #D9D9FF",
"t.	c #CFCFF5",
"u.	c #6B6C85",
"v.	c #494952",
"w.	c #545456",
"x.	c #8A8AB2",
"y.	c #6666FF",
"z.	c #636496",
"A.	c #585956",
"B.	c #4D4D5A",
"C.	c #BABAEA",
"D.	c #7A7AFF",
"E.	c #4B4BFF",
"F.	c #C0C0FF",
"G.	c #E4E4FC",
"H.	c #8283AC",
"I.	c #4B4C52",
"J.	c #5A5B5B",
"K.	c #8C8DB4",
"L.	c #67689A",
"M.	c #5E605C",
"N.	c #51525E",
"O.	c #BBBBEA",
"P.	c #3939FF",
"Q.	c #A3A3FF",
"R.	c #9999CB",
"S.	c #545558",
"T.	c #585A5D",
"U.	c #606261",
"V.	c #8F90B7",
"W.	c #6B6C9D",
"X.	c #656763",
"Y.	c #545662",
"Z.	c #BBBBEB",
"`.	c #2E2EFF",
" +	c #B0B1E3",
".+	c #606169",
"++	c #585960",
"@+	c #676768",
"#+	c #9292BA",
"$+	c #6F6FA1",
"%+	c #6B6D69",
"&+	c #595B65",
"*+	c #BBBCEB",
"=+	c #6A6AFF",
"-+	c #C9C9F3",
";+	c #707187",
">+	c #575961",
",+	c #6D6E6E",
"'+	c #9595BC",
")+	c #7273A4",
"!+	c #72746E",
"~+	c #5D5E6A",
"{+	c #BCBCEB",
"]+	c #5050FF",
"^+	c #DFDFFB",
"/+	c #8384A9",
"(+	c #595B60",
"_+	c #727573",
":+	c #9798BF",
"<+	c #7677A8",
"[+	c #787A74",
"}+	c #62626E",
"|+	c #BCBCEC",
"1+	c #3D3DFF",
"2+	c #ABABFF",
"3+	c #EEEEFE",
"4+	c #9797C8",
"5+	c #5E6064",
"6+	c #717374",
"7+	c #787A79",
"8+	c #9A9BC2",
"9+	c #797BAC",
"0+	c #7F7F7B",
"a+	c #656672",
"b+	c #BDBDEC",
"c+	c #3030FF",
"d+	c #8E8EFF",
"e+	c #ADADE0",
"f+	c #696A6F",
"g+	c #6A6B71",
"h+	c #7F827F",
"i+	c #9D9EC4",
"j+	c #7E7FAF",
"k+	c #858782",
"l+	c #686975",
"m+	c #7272FF",
"n+	c #E4E4FF",
"o+	c #C4C4F1",
"p+	c #777789",
"q+	c #67696F",
"r+	c #858686",
"s+	c #A0A0C7",
"t+	c #8182B3",
"u+	c #8C8E88",
"v+	c #6A6D78",
"w+	c #BDBEED",
"x+	c #5656FF",
"y+	c #DBDBFA",
"z+	c #8687A9",
"A+	c #67686F",
"B+	c #8B8D8B",
"C+	c #A2A3C9",
"D+	c #8586B6",
"E+	c #90928E",
"F+	c #6E707A",
"G+	c #BEBEED",
"H+	c #B2B2FF",
"I+	c #ECECFE",
"J+	c #9899C6",
"K+	c #6A6C6E",
"L+	c #828482",
"M+	c #929591",
"N+	c #A5A6CC",
"O+	c #AFAFFF",
"P+	c #C6C6FF",
"Q+	c #888ABA",
"R+	c #979B93",
"S+	c #71727D",
"T+	c #BEBFEE",
"U+	c #F9F9FF",
"V+	c #AAAADD",
"W+	c #757678",
"X+	c #797A7E",
"Y+	c #969997",
"Z+	c #A7A9CF",
"`+	c #8C8EBD",
" @	c #9DA19A",
".@	c #747681",
"+@	c #9596C6",
"@@	c #7E808D",
"#@	c #73767C",
"$@	c #A0A2A0",
"%@	c #989A99",
"&@	c #96989C",
"*@	c #999B98",
"=@	c #7D7F88",
"-@	c #75767C",
"                                                                                      ",
"  . + + + + + + + + @             #                                                   ",
"  $ % & & & & & & & * =         - ; >                                                 ",
"  , ' ) ! ! ! ! ~ ) { ]         - ^ / ( _                                             ",
"  : ' ) < < < < [ ) { }         - ^ | 1 2 3 4                                         ",
"  5 ' ) < < < < [ ) { 6         - ^ 7 8 9 0 a b c                                     ",
"  d ' ) < < < < [ ) { e         - ^ 7 f f g h i j k                                   ",
"  l ' ) < < < < [ ) { m         - ^ 7 f f f f n o p q r                               ",
"  s ' ) < < < < [ ) { t         - ^ 7 f f f f f u v w x y z                           ",
"  A ' ) B < < < [ ) { C         D ^ 7 f f f f f f f E F G H I J                       ",
"  K ' ) L < < < [ ) { M         N ^ 7 f f f f f f f f f g O P Q R                     ",
"  S ' ) T < < < [ ) { U         V ^ 7 f f f f f f f f f f f L W X Y Z                 ",
"  ` ' )  .< < < [ ) { ..        +.^ 7 f f f f f f f f f f f f u @.#.^ $.%.            ",
"  &.' ) g < < < [ ) { *.        =.^ 7 f f f f f f f f f f f f f f 8 -.;.>.,.'.        ",
"  ).' ) E < < < [ ) { !.        ~.^ 7 f f f f f f f f f f f {.].^./.(.(.-._.:.<.[.    ",
"  }.' ) u < < < [ ) { |.        1.^ 2.3.4.5.6.7.8.9.0.a.b.c.d.d.d.d.d.d.d.e.;.f.g.h.  ",
"  i.j.) k.l.m.n.B ) o.p.        q.^ 7.d.d.d.d.d.d.d.d.d.d.d.d.d.d.d.d.d.r.s.t.u.v.    ",
"  w.x.) d.d.d.d.y.) z.A.        B.C.D.d.d.d.d.d.d.d.d.d.d.d.d.d.d.d.E.F.G.H.I.        ",
"  J.K.) d.d.d.d.y.) L.M.        N.O.D.d.d.d.d.d.d.d.d.d.d.d.d.d.P.Q.0 R.S.T.          ",
"  U.V.) d.d.d.d.y.) W.X.        Y.Z.D.d.d.d.d.d.d.d.d.d.d.d.`.5.w  +.+++              ",
"  @+#+) d.d.d.d.y.) $+%+        &+*+D.d.d.d.d.d.d.d.d.d.d.=+o -+;+>+                  ",
"  ,+'+) d.d.d.d.y.) )+!+        ~+{+D.d.d.d.d.d.d.d.d.]+O ^+/+(+                      ",
"  _+:+) d.d.d.d.y.) <+[+        }+|+D.d.d.d.d.d.d.1+2+3+4+5+6+                        ",
"  7+8+) d.d.d.d.y.) 9+0+        a+b+D.d.d.d.d.c+d+1 e+f+g+                            ",
"  h+i+) d.d.d.d.y.) j+k+        l+b+D.d.d.d.m+n+o+p+q+                                ",
"  r+s+) d.d.d.d.y.) t+u+        v+w+D.d.x+| y+z+A+                                    ",
"  B+C+) d.d.d.d.y.) D+E+        F+G+3.H+I+J+K+L+                                      ",
"  M+N+) O+O+O+O+P+) Q+R+        S+T+U+V+W+X+                                          ",
"  Y+Z+) ) ) ) ) ) ) `+ @        .@+@@@#@                                              ",
"  $@%@&@&@&@&@&@&@&@*@          =@-@                                                  ",
"                                                                                      ",
"                                                                                      "};
