/* XPM */
static const char * stop_record_xpm[] = {
"52 52 216 2",
"  	c None",
". 	c #6D6E6B",
"+ 	c #A7A8A6",
"@ 	c #777976",
"# 	c #464746",
"$ 	c #494A47",
"% 	c #898B88",
"& 	c #BDBDFF",
"* 	c #9F9FFF",
"= 	c #A0A0FF",
"- 	c #A1A1FF",
"; 	c #A2A2FF",
"> 	c #A3A3FF",
", 	c #BABAFF",
"' 	c #9FA09E",
") 	c #4E4E4B",
"! 	c #C1C2C1",
"~ 	c #696B68",
"{ 	c #404240",
"] 	c #B1B1FF",
"^ 	c #9494FF",
"/ 	c #AAAAFF",
"( 	c #EDEDED",
"_ 	c #ECECEC",
": 	c #C1C1C0",
"< 	c #585957",
"[ 	c #B3B3FF",
"} 	c #EAEAEA",
"| 	c #D4D4D4",
"1 	c #DADADA",
"2 	c #A3A3A2",
"3 	c #4E4F4D",
"4 	c #B4B4FF",
"5 	c #A9A9FF",
"6 	c #D5D5D5",
"7 	c #E0E0E0",
"8 	c #E6E6E6",
"9 	c #818180",
"0 	c #484A47",
"a 	c #B6B6FF",
"b 	c #D6D6D6",
"c 	c #E8E8E8",
"d 	c #676765",
"e 	c #40403E",
"f 	c #8A8B88",
"g 	c #B8B8FF",
"h 	c #A8A8FF",
"i 	c #4E4F4C",
"j 	c #D8D8D8",
"k 	c #BCBCBB",
"l 	c #575755",
"m 	c #B9B9FF",
"n 	c #50504E",
"o 	c #DCDCDC",
"p 	c #9D9E9D",
"q 	c #4F514E",
"r 	c #BBBBFF",
"s 	c #50524F",
"t 	c #E1E1E1",
"u 	c #E4E4E4",
"v 	c #7D7D7C",
"w 	c #4F4F4D",
"x 	c #8A8D89",
"y 	c #A7A7FF",
"z 	c #A0A19E",
"A 	c #535352",
"B 	c #E9E9E9",
"C 	c #D2D2D2",
"D 	c #656664",
"E 	c #8F918D",
"F 	c #BEBEFF",
"G 	c #A3A4A1",
"H 	c #555552",
"I 	c #CFCFCF",
"J 	c #C8C8C8",
"K 	c #C2C2C2",
"L 	c #BCBCBC",
"M 	c #B5B5B5",
"N 	c #AFAFAF",
"O 	c #AAAAAA",
"P 	c #C1C1C1",
"Q 	c #B8B8B7",
"R 	c #575855",
"S 	c #939491",
"T 	c #C0C0FF",
"U 	c #9191FF",
"V 	c #8D8DFF",
"W 	c #8888FF",
"X 	c #8383FF",
"Y 	c #7E7EFF",
"Z 	c #7979FF",
"` 	c #9D9DFF",
" .	c #A6A7A5",
"..	c #575756",
"+.	c #B7B7B7",
"@.	c #B2B2B2",
"#.	c #B0B0B0",
"$.	c #ADADAD",
"%.	c #ABABAB",
"&.	c #B8B8B8",
"*.	c #E7E7E7",
"=.	c #CECECE",
"-.	c #616260",
";.	c #979895",
">.	c #2A2AFF",
",.	c #8787FF",
"'.	c #A9AAA7",
").	c #5B5D5A",
"!.	c #DBDBDB",
"~.	c #E2E2E2",
"{.	c #7C7D7A",
"].	c #5E5E5B",
"^.	c #9A9C99",
"/.	c #ACAEAB",
"(.	c #61625F",
"_.	c #EBEBEB",
":.	c #9E9E9C",
"<.	c #5F5F5C",
"[.	c #9E9F9C",
"}.	c #AFB1AE",
"|.	c #666664",
"1.	c #BDBDBC",
"2.	c #666763",
"3.	c #A2A3A0",
"4.	c #B3B4B1",
"5.	c #6C6D6A",
"6.	c #B6B6B6",
"7.	c #E5E5E5",
"8.	c #757673",
"9.	c #A5A8A3",
"0.	c #B6B7B4",
"a.	c #71716E",
"b.	c #E6E6E5",
"c.	c #8D8F8C",
"d.	c #737471",
"e.	c #AAABA8",
"f.	c #B9BAB7",
"g.	c #757773",
"h.	c #CBCBCB",
"i.	c #ABACAA",
"j.	c #6F726D",
"k.	c #ADAFAB",
"l.	c #BCBDBA",
"m.	c #787B77",
"n.	c #EAEBEA",
"o.	c #BFBFBF",
"p.	c #C6C6C5",
"q.	c #787875",
"r.	c #B1B3AF",
"s.	c #BFC1BD",
"t.	c #7C7F7B",
"u.	c #ECEDEC",
"v.	c #E3E3E3",
"w.	c #868883",
"x.	c #878783",
"y.	c #B5B7B3",
"z.	c #AFAFFF",
"A.	c #5F5FFF",
"B.	c #A5A5FF",
"C.	c #C3C4C0",
"D.	c #80827D",
"E.	c #D9D9D9",
"F.	c #9D9E9B",
"G.	c #E8E8E7",
"H.	c #BBBDB9",
"I.	c #898B86",
"J.	c #7E807C",
"K.	c #A0A39C",
"L.	c #A1A29D",
"M.	c #A1A39E",
"N.	c #56504D",
"O.	c #6A6B68",
"P.	c #A5A7A5",
"Q.	c #969896",
"R.	c #60605F",
"S.	c #544F4B",
"T.	c #000000",
"U.	c #64605B",
"V.	c #A8A9A7",
"W.	c #EEBEBD",
"X.	c #F09494",
"Y.	c #F09797",
"Z.	c #EECCCC",
"`.	c #8A8A87",
" +	c #655F5A",
".+	c #72746F",
"++	c #EBDBDB",
"@+	c #F18383",
"#+	c #F18282",
"$+	c #EF7A7A",
"%+	c #D6D9D7",
"&+	c #71726D",
"*+	c #979A96",
"=+	c #EDA9A9",
"-+	c #E83131",
";+	c #E72F2F",
">+	c #E41313",
",+	c #E20000",
"'+	c #EDCFCF",
")+	c #80837C",
"!+	c #8B8E86",
"~+	c #E6E1E0",
"{+	c #E31111",
"]+	c #E53535",
"^+	c #D0D4D2",
"/+	c #8C8E88",
"(+	c #B7B9B4",
"_+	c #EBD3D3",
":+	c #E87A7A",
"<+	c #EA8B8B",
"[+	c #E7D9D9",
"}+	c #A9ABA6",
"|+	c #AAACA5",
"1+	c #C1C3BE",
"2+	c #BBBEB8",
"3+	c #A8ACA4",
"                                                                                                        ",
"                                                                                                        ",
"                                                                                                        ",
"                                                                                                        ",
"                                                                                                        ",
"                                                                                                        ",
"                                                                                                        ",
"                                                                                                        ",
"                                                                                                        ",
"                                                                                                        ",
"                    . + + + + + + + + @     # $                                                         ",
"                    % & * = - - ; > , '     ) ! ~ {                                                     ",
"                    % ] ^ ^ ^ ^ ^ ^ / '     ) ( _ : <                                                   ",
"                    % [ ^ ^ ^ ^ ^ ^ / '     ) } | 1 ( 2 3                                               ",
"                    % 4 ^ ^ ^ ^ ^ ^ 5 '     ) } | | 6 7 8 9 0                                           ",
"                    % a ^ ^ ^ ^ ^ ^ 5 '     ) } | | | | b c b d e                                       ",
"                    f g ^ ^ ^ ^ ^ ^ h '     i } | | | | | | j ( k l                                     ",
"                    f m ^ ^ ^ ^ ^ ^ h '     n } | | | | | | | 6 o ( p q                                 ",
"                    f r ^ ^ ^ ^ ^ ^ h '     s } | | | | | | | | | 6 t u v w                             ",
"                    x & ^ ^ ^ ^ ^ ^ y z     A } | | | | | | | | | | | b B C D                           ",
"                    E F ^ ^ ^ ^ ^ ^ y G     H } | | | | | | I J K L M N O P _ Q R                       ",
"                    S T U V W X Y Z `  .    ..B +.M @.#.$.%.O O O O O O O &.*.=.-.                      ",
"                    ;.^ >.>.>.>.>.>.,.'.    ).B O O O O O O O O O O O #.!.~.{.].                        ",
"                    ^.^ >.>.>.>.>.>.,./.    (.} O O O O O O O O O %.=._.:.<.                            ",
"                    [.^ >.>.>.>.>.>.,.}.    |.} O O O O O O O O P _ 1.2.                                ",
"                    3.^ >.>.>.>.>.>.,.4.    5.} O O O O O O 6.7.6 8.                                    ",
"                    9.^ >.>.>.>.>.>.,.0.    a.} O O O O N j b.c.d.                                      ",
"                    e.^ >.>.>.>.>.>.,.f.    g.} O O %.h.( i.j.                                          ",
"                    k.^ >.>.>.>.>.>.,.l.    m.n.O o._.p.q.                                              ",
"                    r.^ >.>.>.>.>.>.,.s.    t.u.v.!.w.x.                                                ",
"                    y.z.A.A.A.A.A.A.B.C.    D.E.F.D.                                                    ",
"                    r.G.G.G.G.G.G.G.G.H.    I.J.                                                        ",
"                    K.L.L.L.L.L.L.L.L.M.                                                                ",
"                                                                                                        ",
"                                                                                                        ",
"                        N.O.P.Q.R.S.      T.T.        T.T.T.T.      T.T.  T.T.T.T.T.                    ",
"                      U.V.W.X.Y.Z.`. +    T.T.        T.T.  T.      T.    T.T.                          ",
"                      .+++@+@+#+$+%+&+    T.T.        T.T.  T.T.  T.T.    T.T.                          ",
"                      *+=+-+;+>+,+'+)+    T.T.        T.T.  T.T.  T.T.    T.T.T.T.T.                    ",
"                      !+~+{+,+,+]+^+/+    T.T.        T.T.    T.T.T.      T.T.                          ",
"                        (+_+:+<+[+}+      T.T.        T.T.    T.T.T.      T.T.                          ",
"                          |+1+2+3+        T.T.T.T.T.  T.T.    T.T.T.      T.T.T.T.T.                    ",
"                                                                                                        ",
"                                                                                                        ",
"                                                                                                        ",
"                                                                                                        ",
"                                                                                                        ",
"                                                                                                        ",
"                                                                                                        ",
"                                                                                                        ",
"                                                                                                        ",
"                                                                                                        "};
