/* XPM */
static char * stop_archive_xpm[] = {
"52 52 175 2",
"  	c None",
". 	c #626360",
"+ 	c #939491",
"@ 	c #6C6E6A",
"# 	c #424440",
"$ 	c #7D7F7C",
"% 	c #CDCDFF",
"& 	c #A8A8FF",
"* 	c #A9A9FF",
"= 	c #AAAAFF",
"- 	c #ABABFF",
"; 	c #C6C6FF",
"> 	c #9A9B98",
", 	c #4E4E4C",
"' 	c #989897",
") 	c #4E4E4D",
"! 	c #7E7F7C",
"~ 	c #B4B4FF",
"{ 	c #9494FF",
"] 	c #F1F1F1",
"^ 	c #E6E6E6",
"/ 	c #747473",
"( 	c #444544",
"_ 	c #B5B5FF",
": 	c #E8E8E8",
"< 	c #D7D7D7",
"[ 	c #F0F0F0",
"} 	c #C1C1C0",
"| 	c #545452",
"1 	c #B7B7FF",
"2 	c #A7A7FF",
"3 	c #D4D4D4",
"4 	c #D5D5D5",
"5 	c #DFDFDF",
"6 	c #EDEDED",
"7 	c #888987",
"8 	c #484947",
"9 	c #B8B8FF",
"0 	c #D6D6D6",
"a 	c #ECECEC",
"b 	c #D2D2D2",
"c 	c #5C5C5A",
"d 	c #BABAFF",
"e 	c #DBDBDB",
"f 	c #9E9F9D",
"g 	c #4B4D4A",
"h 	c #BBBBFF",
"i 	c #4E4F4D",
"j 	c #E0E0E0",
"k 	c #696A68",
"l 	c #444442",
"m 	c #BDBDFF",
"n 	c #4F514E",
"o 	c #D9D9D9",
"p 	c #B4B4B4",
"q 	c #50524F",
"r 	c #BEBEFF",
"s 	c #A6A6FF",
"t 	c #51524F",
"u 	c #E1E1E1",
"v 	c #EAEAE9",
"w 	c #7B7B7A",
"x 	c #4D4E4B",
"y 	c #7E807D",
"z 	c #BFBFFF",
"A 	c #9A9B99",
"B 	c #525351",
"C 	c #EEEEEE",
"D 	c #C7C7C7",
"E 	c #595A56",
"F 	c #828380",
"G 	c #C1C1FF",
"H 	c #A5A5FF",
"I 	c #9D9E9C",
"J 	c #535552",
"K 	c #D3D3D3",
"L 	c #CDCDCD",
"M 	c #C6C6C6",
"N 	c #BFBFBF",
"O 	c #B8B8B8",
"P 	c #B0B0B0",
"Q 	c #ACACAC",
"R 	c #CECECE",
"S 	c #EFEFEF",
"T 	c #90918F",
"U 	c #51514F",
"V 	c #858784",
"W 	c #C3C3FF",
"X 	c #9090FF",
"Y 	c #A3A3FF",
"Z 	c #A0A19F",
"` 	c #555552",
" .	c #E7E7E7",
"..	c #BEBEBE",
"+.	c #BBBBBB",
"@.	c #B9B9B9",
"#.	c #B6B6B6",
"$.	c #AAAAAA",
"%.	c #E5E5E5",
"&.	c #595A57",
"*.	c #898C88",
"=.	c #4141FF",
"-.	c #3B3BFF",
";.	c #3636FF",
">.	c #3030FF",
",.	c #2B2BFF",
"'.	c #2A2AFF",
").	c #8787FF",
"!.	c #A3A4A2",
"~.	c #585A57",
"{.	c #C8C8C8",
"].	c #A3A3A2",
"^.	c #565755",
"/.	c #8E908D",
"(.	c #9B9BFF",
"_.	c #A6A8A5",
":.	c #5E5F5B",
"<.	c #E7E7E6",
"[.	c #B5B5B5",
"}.	c #676864",
"|.	c #929490",
"1.	c #A9ABA8",
"2.	c #636460",
"3.	c #ABABAB",
"4.	c #D0D0D0",
"5.	c #939391",
"6.	c #636360",
"7.	c #969794",
"8.	c #ADAEAB",
"9.	c #C7C7C6",
"0.	c #686965",
"a.	c #9B9C98",
"b.	c #B0B1AE",
"c.	c #6A6C69",
"d.	c #ADADAD",
"e.	c #E9E9E9",
"f.	c #878886",
"g.	c #72726E",
"h.	c #9EA09C",
"i.	c #B3B4B1",
"j.	c #6F716D",
"k.	c #C2C2C2",
"l.	c #B9BAB9",
"m.	c #A2A3A0",
"n.	c #B6B7B4",
"o.	c #737571",
"p.	c #B1B1B1",
"q.	c #E1E2E1",
"r.	c #80827D",
"s.	c #7F807D",
"t.	c #A5A8A3",
"u.	c #B9BAB7",
"v.	c #777775",
"w.	c #E8E8E7",
"x.	c #CACACA",
"y.	c #ACACAA",
"z.	c #747571",
"A.	c #AAACA8",
"B.	c #BCBDBA",
"C.	c #7A7C77",
"D.	c #7E7F7B",
"E.	c #AEB0AB",
"F.	c #AEAEFF",
"G.	c #5151FF",
"H.	c #9D9DFF",
"I.	c #BFC0BD",
"J.	c #E3E3E3",
"K.	c #9FA09D",
"L.	c #7D7F7A",
"M.	c #B0B2AE",
"N.	c #FCFCFC",
"O.	c #C0C2BF",
"P.	c #82837F",
"Q.	c #7D7E79",
"R.	c #000000",
"                                                                                                        ",
"                                                                                                        ",
"                                                                                                        ",
"                                                                                                        ",
"                                                                                                        ",
"                                                                                                        ",
"                                                                                                        ",
"                                                                                                        ",
"                                                                                                        ",
"                                                                                                        ",
"                        . + + + + + + + + @     #                                                       ",
"                        $ % & * * = = - ; >     , ' )                                                   ",
"                        ! ~ { { { { { { & >     , ] ^ / (                                               ",
"                        ! _ { { { { { { & >     , : < [ } |                                             ",
"                        ! 1 { { { { { { 2 >     , : 3 4 5 6 7 8                                         ",
"                        ! 9 { { { { { { 2 >     , : 3 3 3 0 a b c                                       ",
"                        ! d { { { { { { 2 >     , : 3 3 3 3 3 e ] f g                                   ",
"                        ! h { { { { { { 2 >     i : 3 3 3 3 3 3 0 ^ j k l                               ",
"                        ! m { { { { { { 2 >     n : 3 3 3 3 3 3 3 3 o [ p q                             ",
"                        ! r { { { { { { s >     t : 3 3 3 3 3 3 3 3 3 4 u v w x                         ",
"                        y z { { { { { { s A     B : 3 3 3 3 3 3 3 3 3 3 3 < C D E                       ",
"                        F G { { { { { { H I     J : 3 3 3 3 3 3 K L M N O P Q R S T U                   ",
"                        V W { { { { { X Y Z     `  ...+.@.#.p P $.$.$.$.$.$.$.P %.u &.                  ",
"                        *.H =.-.;.>.,.'.).!.    ~.^ $.$.$.$.$.$.$.$.$.$.$.$.{.[ ].^.                    ",
"                        /.(.'.'.'.'.'.'.)._.    :.<.$.$.$.$.$.$.$.$.$.$.[. .4 }.                        ",
"                        |.(.'.'.'.'.'.'.).1.    2. .$.$.$.$.$.$.$.$.3.4.C 5.6.                          ",
"                        7.(.'.'.'.'.'.'.).8.    }. .$.$.$.$.$.$.$.+.6 9.0.                              ",
"                        a.(.'.'.'.'.'.'.).b.    c. .$.$.$.$.$.d.o e.f.g.                                ",
"                        h.(.'.'.'.'.'.'.).i.    j. .$.$.$.$.k.[ l.@                                     ",
"                        m.(.'.'.'.'.'.'.).n.    o. .$.$.p.u q.r.s.                                      ",
"                        t.(.'.'.'.'.'.'.).u.    v.w.$.x.[ y.z.                                          ",
"                        A.(.'.'.'.'.'.'.).B.    C.a : 0 D.                                              ",
"                        E.F.G.G.G.G.G.G.H.I.    D.J.K.L.                                                ",
"                        M.N.N.N.N.N.N.N.N.O.    P.Q.                                                    ",
"                                                                                                        ",
"                                                                                                        ",
"                                                                                                        ",
"            R.R.R.      R.R.R.R.          R.R.R.R.  R.R.      R.R.  R.R.R.R.      R.R.  R.R.R.R.R.      ",
"            R.R.R.      R.R.  R.R.      R.R.    R.  R.R.      R.R.  R.R.  R.      R.    R.R.            ",
"            R.R.R.      R.R.  R.R.    R.R.          R.R.      R.R.  R.R.  R.R.  R.R.    R.R.            ",
"          R.R.R.R.R.    R.R.R.R.      R.R.          R.R.R.R.R.R.R.  R.R.  R.R.  R.R.    R.R.R.R.R.      ",
"          R.R.  R.R.    R.R.  R.R.    R.R.          R.R.      R.R.  R.R.    R.R.R.      R.R.            ",
"          R.R.R.R.R.    R.R.  R.R.      R.R.    R.  R.R.      R.R.  R.R.    R.R.R.      R.R.            ",
"        R.R.      R.R.  R.R.    R.R.      R.R.R.R.  R.R.      R.R.  R.R.    R.R.R.      R.R.R.R.R.      ",
"                                                                                                        ",
"                                                                                                        ",
"                                                                                                        ",
"                                                                                                        ",
"                                                                                                        ",
"                                                                                                        ",
"                                                                                                        ",
"                                                                                                        "};
