/* XPM */
static const char * stop_live_xpm[] = {
"52 52 196 2",
"  	c None",
". 	c #6D6F6B",
"+ 	c #A0A19F",
"@ 	c #727370",
"# 	c #484846",
"$ 	c #474746",
"% 	c #919290",
"& 	c #BEBEFF",
"* 	c #A1A1FF",
"= 	c #A2A2FF",
"- 	c #A3A3FF",
"; 	c #A4A4FF",
"> 	c #BFBFFF",
", 	c #9A9B98",
"' 	c #4F504E",
") 	c #BBBCBB",
"! 	c #61625F",
"~ 	c #AFAFFF",
"{ 	c #9494FF",
"] 	c #ACACFF",
"^ 	c #EFF0EF",
"/ 	c #ECECEC",
"( 	c #B3B3B3",
"_ 	c #535351",
": 	c #B1B1FF",
"< 	c #D5D5D5",
"[ 	c #DCDCDC",
"} 	c #EAEAEA",
"| 	c #949491",
"1 	c #4C4C4B",
"2 	c #B3B3FF",
"3 	c #ABABFF",
"4 	c #D4D4D4",
"5 	c #E3E3E3",
"6 	c #DFDFDF",
"7 	c #747572",
"8 	c #464644",
"9 	c #B5B5FF",
"0 	c #D6D6D6",
"a 	c #CACACA",
"b 	c #5F605D",
"c 	c #B7B7FF",
"d 	c #AAAAFF",
"e 	c #D8D8D8",
"f 	c #AFB0AF",
"g 	c #515350",
"h 	c #B8B8FF",
"i 	c #50514F",
"j 	c #DDDDDD",
"k 	c #8E8F8D",
"l 	c #4D4E4C",
"m 	c #BABAFF",
"n 	c #A9A9FF",
"o 	c #535350",
"p 	c #E4E4E4",
"q 	c #70716F",
"r 	c #4B4D49",
"s 	c #929391",
"t 	c #BCBCFF",
"u 	c #9A9B99",
"v 	c #545451",
"w 	c #EBEBEB",
"x 	c #C7C7C6",
"y 	c #5C5E5B",
"z 	c #959694",
"A 	c #A8A8FF",
"B 	c #9D9E9C",
"C 	c #545553",
"D 	c #D1D1D1",
"E 	c #CBCBCB",
"F 	c #C4C4C4",
"G 	c #BEBEBE",
"H 	c #B8B8B8",
"I 	c #B1B1B1",
"J 	c #ABABAB",
"K 	c #C6C6C6",
"L 	c #EDEDEC",
"M 	c #ABABAA",
"N 	c #535452",
"O 	c #999A97",
"P 	c #C0C0FF",
"Q 	c #9292FF",
"R 	c #8D8DFF",
"S 	c #8888FF",
"T 	c #8383FF",
"U 	c #7E7EFF",
"V 	c #A1A2A0",
"W 	c #575754",
"X 	c #B6B6B6",
"Y 	c #B4B4B4",
"Z 	c #B2B2B2",
"` 	c #B0B0B0",
" .	c #ADADAD",
"..	c #AAAAAA",
"+.	c #666764",
"@.	c #9C9E9B",
"#.	c #9191FF",
"$.	c #2D2DFF",
"%.	c #2A2AFF",
"&.	c #A4A6A3",
"*.	c #5B5C59",
"=.	c #E7E7E7",
"-.	c #898A86",
";.	c #A0A19E",
">.	c #A7A9A6",
",.	c #61615F",
"'.	c #C8C8C8",
").	c #A9AAA8",
"!.	c #60615E",
"~.	c #A3A5A1",
"{.	c #ABACA9",
"].	c #656764",
"^.	c #BCBCBC",
"/.	c #E9E9E9",
"(.	c #C6C6C5",
"_.	c #6A6C69",
":.	c #A6A8A5",
"<.	c #AEB0AD",
"[.	c #6A6C68",
"}.	c #EBEBEA",
"|.	c #7D7D7B",
"1.	c #747472",
"2.	c #AAABA8",
"3.	c #B2B3B0",
"4.	c #70716E",
"5.	c #ACACAC",
"6.	c #D2D2D2",
"7.	c #E8E9E8",
"8.	c #989895",
"9.	c #717370",
"0.	c #ADB0AC",
"a.	c #B4B6B3",
"b.	c #747571",
"c.	c #C5C5C5",
"d.	c #B4B5B3",
"e.	c #71726E",
"f.	c #B2B4B0",
"g.	c #B8BAB6",
"h.	c #787975",
"i.	c #B9B9B9",
"j.	c #CCCDCC",
"k.	c #7A7B78",
"l.	c #B6B7B3",
"m.	c #BCBDB9",
"n.	c #7C7D79",
"o.	c #EDEDED",
"p.	c #E0E0DF",
"q.	c #8B8D8A",
"r.	c #848480",
"s.	c #B9BBB7",
"t.	c #5151FF",
"u.	c #BFC0BD",
"v.	c #80817D",
"w.	c #E1E2E1",
"x.	c #A4A5A3",
"y.	c #7D807C",
"z.	c #B7B9B5",
"A.	c #EFEFEE",
"B.	c #868783",
"C.	c #7D807B",
"D.	c #A1A49E",
"E.	c #A1A39E",
"F.	c #564F4A",
"G.	c #656661",
"H.	c #9D9D9B",
"I.	c #8B8B89",
"J.	c #5A5A57",
"K.	c #524D49",
"L.	c #000000",
"M.	c #635E5B",
"N.	c #A5A6A4",
"O.	c #E5E6E6",
"P.	c #DADADA",
"Q.	c #E5E7E7",
"R.	c #7D7D7A",
"S.	c #70736E",
"T.	c #CACFCD",
"U.	c #6F706B",
"V.	c #9B9C99",
"W.	c #D8D9D9",
"X.	c #BDBDBD",
"Y.	c #E6E8E8",
"Z.	c #7E817B",
"`.	c #8B8D87",
" +	c #E4E6E6",
".+	c #CED2D0",
"++	c #9A9993",
"@+	c #BEC1BD",
"#+	c #E1E2E2",
"$+	c #CCCCCC",
"%+	c #E4E5E4",
"&+	c #A8ABA5",
"*+	c #ADB1A9",
"=+	c #C6C9C5",
"-+	c #BEC0BB",
";+	c #AAAEA6",
"                                                                                                        ",
"                                                                                                        ",
"                                                                                                        ",
"                                                                                                        ",
"                                                                                                        ",
"                                                                                                        ",
"                                                                                                        ",
"                                                                                                        ",
"                                                                                                        ",
"                                                                                                        ",
"                    . + + + + + + + + @     # $                                                         ",
"                    % & * = = - - ; > ,     ' ) !                                                       ",
"                    % ~ { { { { { { ] ,     ' ^ / ( _                                                   ",
"                    % : { { { { { { ] ,     ' / < [ } | 1                                               ",
"                    % 2 { { { { { { 3 ,     ' / 4 4 < 5 6 7 8                                           ",
"                    % 9 { { { { { { 3 ,     ' / 4 4 4 4 0 } a b                                         ",
"                    % c { { { { { { d ,     ' / 4 4 4 4 4 4 e / f g                                     ",
"                    % h { { { { { { d ,     i / 4 4 4 4 4 4 4 < j } k l                                 ",
"                    % m { { { { { { n ,     o / 4 4 4 4 4 4 4 4 4 < p j q r                             ",
"                    s t { { { { { { n u     v / 4 4 4 4 4 4 4 4 4 4 4 0 w x y                           ",
"                    z & { { { { { { A B     C / 4 4 4 4 4 4 D E F G H I J K L M N                       ",
"                    O P { Q R S T U * V     W w H X Y Z `  ...............Y p e +.                      ",
"                    @.#.$.%.%.%.%.%.R &.    *.} ...................... .< =.-.y                         ",
"                    ;.R %.%.%.%.%.%.R >.    ,.} ....................'./ ).!.                            ",
"                    ~.R %.%.%.%.%.%.R {.    ].} ................^./.(._.                                ",
"                    :.R %.%.%.%.%.%.R <.    [.}.............Z 6 [ |.1.                                  ",
"                    2.R %.%.%.%.%.%.R 3.    4.w ........5.6.7.8.9.                                      ",
"                    0.R %.%.%.%.%.%.R a.    b.w ......c./ d.e.                                          ",
"                    f.R %.%.%.%.%.%.R g.    h.w ..i.=.j.k.                                              ",
"                    l.R %.%.%.%.%.%.R m.    n.o.[ p.q.r.                                                ",
"                    s.- t.t.t.t.t.t.- u.    v.w.x.y.                                                    ",
"                    z.A.A.A.A.A.A.A.A.m.    B.C.                                                        ",
"                    D.E.E.E.E.E.E.E.E.D.                                                                ",
"                                                                                                        ",
"                                                                                                        ",
"                        F.G.H.I.J.K.      L.L.        L.L.L.L.      L.L.  L.L.L.L.L.                    ",
"                      M.N.O.P.[ Q.R.      L.L.        L.L.  L.      L.    L.L.                          ",
"                      S.Q.0 0 0 0 T.U.    L.L.        L.L.  L.L.  L.L.    L.L.                          ",
"                      V.W.G X.Y J Y.Z.    L.L.        L.L.  L.L.  L.L.    L.L.L.L.L.                    ",
"                      `. +5.....i..+`.    L.L.        L.L.    L.L.L.      L.L.                          ",
"                      ++@+#+K $+%+&+      L.L.        L.L.    L.L.L.      L.L.                          ",
"                          *+=+-+;+        L.L.L.L.L.  L.L.    L.L.L.      L.L.L.L.L.                    ",
"                                                                                                        ",
"                                                                                                        ",
"                                                                                                        ",
"                                                                                                        ",
"                                                                                                        ",
"                                                                                                        ",
"                                                                                                        ",
"                                                                                                        ",
"                                                                                                        ",
"                                                                                                        "};
