/* XPM */
static const char * stop_off_xpm[] = {
"31 32 91 1",
" 	c None",
".	c #565854",
"+	c #747672",
"@	c #545652",
"#	c #636561",
"$	c #FFFFFF",
"%	c #575955",
"&	c #636562",
"*	c #F5F5F5",
"=	c #E9E9E9",
"-	c #F2F2F2",
";	c #585A56",
">	c #646662",
",	c #ECECEC",
"'	c #D4D4D4",
")	c #E0E0E0",
"!	c #646663",
"~	c #595A57",
"{	c #656764",
"]	c #595B57",
"^	c #666764",
"/	c #5A5B58",
"(	c #666864",
"_	c #5A5C58",
":	c #666865",
"<	c #DFDFDF",
"[	c #5A5C59",
"}	c #676965",
"|	c #5B5D59",
"1	c #676966",
"2	c #686966",
"3	c #5C5D5A",
"4	c #686A66",
"5	c #5C5E5A",
"6	c #6C6E6A",
"7	c #60625E",
"8	c #70716E",
"9	c #DEDEDE",
"0	c #696B66",
"a	c #787A76",
"b	c #D2D2D2",
"c	c #CFCFCF",
"d	c #CCCCCC",
"e	c #C9C9C9",
"f	c #C6C6C6",
"g	c #C2C2C2",
"h	c #BFBFBF",
"i	c #BCBCBC",
"j	c #B9B9B9",
"k	c #D3D3D3",
"l	c #6D6F6A",
"m	c #7C7D7A",
"n	c #D0D0D0",
"o	c #CDCDCD",
"p	c #C3C3C3",
"q	c #C0C0C0",
"r	c #BDBDBD",
"s	c #BABABA",
"t	c #B7B7B7",
"u	c #B4B4B4",
"v	c #B1B1B1",
"w	c #AEAEAE",
"x	c #AAAAAA",
"y	c #71736F",
"z	c #7F817E",
"A	c #DADADA",
"B	c #757773",
"C	c #838682",
"D	c #797C77",
"E	c #888985",
"F	c #7E807B",
"G	c #8B8D89",
"H	c #82847F",
"I	c #8F918C",
"J	c #868883",
"K	c #939590",
"L	c #8A8C87",
"M	c #969994",
"N	c #8E908B",
"O	c #9B9C98",
"P	c #929490",
"Q	c #9EA09C",
"R	c #969893",
"S	c #A2A5A0",
"T	c #E7E7E7",
"U	c #9A9D97",
"V	c #A6A8A3",
"W	c #9EA19B",
"X	c #9DA09A",
"Y	c #A6A9A3",
"Z	c #9C9F99",
"                               ",
" .+++++++++++++++++++++++++++@ ",
" #$$$$$$$$$$$$$$$$$$$$$$$$$$$% ",
" &$*=======================-$; ",
" >$,''''''''''''''''''''''')$; ",
" !$,''''''''''''''''''''''')$~ ",
" {$,''''''''''''''''''''''')$] ",
" ^$,''''''''''''''''''''''')$/ ",
" ($,''''''''''''''''''''''')$_ ",
" :$,'''''''''''''''''''''''<$[ ",
" }$,'''''''''''''''''''''''<$| ",
" 1$,'''''''''''''''''''''''<$| ",
" 2$,'''''''''''''''''''''''<$3 ",
" 4$,'''''''''''''''''''''''<$5 ",
" 6$,'''''''''''''''''''''''<$7 ",
" 8$,'''''''''''''''''''''''<$> ",
" +$,'''''''''''''''''''''''9$0 ",
" a$,''''''''''''''bcdefghijk$l ",
" m$,knoefpqrstuvwxxxxxxxxxxc$y ",
" z$Axxxxxxxxxxxxxxxxxxxxxxxc$B ",
" C$Axxxxxxxxxxxxxxxxxxxxxxxc$D ",
" E$Axxxxxxxxxxxxxxxxxxxxxxxc$F ",
" G$Axxxxxxxxxxxxxxxxxxxxxxxc$H ",
" I$Axxxxxxxxxxxxxxxxxxxxxxxc$J ",
" K$Axxxxxxxxxxxxxxxxxxxxxxxc$L ",
" M$Axxxxxxxxxxxxxxxxxxxxxxxc$N ",
" O$Axxxxxxxxxxxxxxxxxxxxxxxc$P ",
" Q$Axxxxxxxxxxxxxxxxxxxxxxxc$R ",
" S$,'''''''''''''''''''''''T$U ",
" V$$$$$$$$$$$$$$$$$$$$$$$$$$$W ",
" XYYYYYYYYYYYYYYYYYYYYYYYYYYYZ ",
"                               "};
