/* XPM */
static const char * stop_on_xpm[] = {
"31 32 110 2",
"  	c None",
". 	c #565854",
"+ 	c #747672",
"@ 	c #545652",
"# 	c #636561",
"$ 	c #FFFFFF",
"% 	c #575955",
"& 	c #636562",
"* 	c #E7E7FF",
"= 	c #C8C8FF",
"- 	c #C9C9FF",
"; 	c #CACAFF",
"> 	c #DFDFFF",
", 	c #585A56",
"' 	c #646662",
") 	c #CFCFFF",
"! 	c #9494FF",
"~ 	c #B3B3FF",
"{ 	c #646663",
"] 	c #B2B2FF",
"^ 	c #595A57",
"/ 	c #656764",
"( 	c #CECEFF",
"_ 	c #B1B1FF",
": 	c #595B57",
"< 	c #666764",
"[ 	c #CDCDFF",
"} 	c #AFAFFF",
"| 	c #5A5B58",
"1 	c #666864",
"2 	c #5A5C58",
"3 	c #666865",
"4 	c #AEAEFF",
"5 	c #5A5C59",
"6 	c #676965",
"7 	c #CCCCFF",
"8 	c #ADADFF",
"9 	c #5B5D59",
"0 	c #676966",
"a 	c #ACACFF",
"b 	c #686966",
"c 	c #CBCBFF",
"d 	c #ABABFF",
"e 	c #5C5D5A",
"f 	c #686A66",
"g 	c #AAAAFF",
"h 	c #5C5E5A",
"i 	c #6C6E6A",
"j 	c #A9A9FF",
"k 	c #60625E",
"l 	c #70716E",
"m 	c #A8A8FF",
"n 	c #A7A7FF",
"o 	c #696B66",
"p 	c #787A76",
"q 	c #9090FF",
"r 	c #8B8BFF",
"s 	c #8686FF",
"t 	c #8080FF",
"u 	c #7B7BFF",
"v 	c #7676FF",
"w 	c #7171FF",
"x 	c #6B6BFF",
"y 	c #6666FF",
"z 	c #6161FF",
"A 	c #5C5CFF",
"B 	c #5757FF",
"C 	c #5252FF",
"D 	c #4D4DFF",
"E 	c #6D6F6A",
"F 	c #7C7D7A",
"G 	c #5454FF",
"H 	c #4F4FFF",
"I 	c #4A4AFF",
"J 	c #4444FF",
"K 	c #3F3FFF",
"L 	c #3A3AFF",
"M 	c #3535FF",
"N 	c #2F2FFF",
"O 	c #2A2AFF",
"P 	c #8787FF",
"Q 	c #71736F",
"R 	c #7F817E",
"S 	c #A1A1FF",
"T 	c #757773",
"U 	c #838682",
"V 	c #797C77",
"W 	c #888985",
"X 	c #7E807B",
"Y 	c #8B8D89",
"Z 	c #82847F",
"` 	c #8F918C",
" .	c #868883",
"..	c #939590",
"+.	c #8A8C87",
"@.	c #969994",
"#.	c #8E908B",
"$.	c #9B9C98",
"%.	c #929490",
"&.	c #9EA09C",
"*.	c #969893",
"=.	c #A2A5A0",
"-.	c #D0D0FF",
";.	c #C3C3FF",
">.	c #9A9D97",
",.	c #A6A8A3",
"'.	c #9EA19B",
").	c #9DA09A",
"!.	c #A6A9A3",
"~.	c #9C9F99",
"                                                              ",
"  . + + + + + + + + + + + + + + + + + + + + + + + + + + + @   ",
"  # $ $ $ $ $ $ $ $ $ $ $ $ $ $ $ $ $ $ $ $ $ $ $ $ $ $ $ %   ",
"  & $ * = = = = = - - - - - - - - - - - - - ; ; ; ; ; > $ ,   ",
"  ' $ ) ! ! ! ! ! ! ! ! ! ! ! ! ! ! ! ! ! ! ! ! ! ! ! ~ $ ,   ",
"  { $ ) ! ! ! ! ! ! ! ! ! ! ! ! ! ! ! ! ! ! ! ! ! ! ! ] $ ^   ",
"  / $ ( ! ! ! ! ! ! ! ! ! ! ! ! ! ! ! ! ! ! ! ! ! ! ! _ $ :   ",
"  < $ [ ! ! ! ! ! ! ! ! ! ! ! ! ! ! ! ! ! ! ! ! ! ! ! } $ |   ",
"  1 $ [ ! ! ! ! ! ! ! ! ! ! ! ! ! ! ! ! ! ! ! ! ! ! ! } $ 2   ",
"  3 $ [ ! ! ! ! ! ! ! ! ! ! ! ! ! ! ! ! ! ! ! ! ! ! ! 4 $ 5   ",
"  6 $ 7 ! ! ! ! ! ! ! ! ! ! ! ! ! ! ! ! ! ! ! ! ! ! ! 8 $ 9   ",
"  0 $ 7 ! ! ! ! ! ! ! ! ! ! ! ! ! ! ! ! ! ! ! ! ! ! ! a $ 9   ",
"  b $ c ! ! ! ! ! ! ! ! ! ! ! ! ! ! ! ! ! ! ! ! ! ! ! d $ e   ",
"  f $ c ! ! ! ! ! ! ! ! ! ! ! ! ! ! ! ! ! ! ! ! ! ! ! g $ h   ",
"  i $ ; ! ! ! ! ! ! ! ! ! ! ! ! ! ! ! ! ! ! ! ! ! ! ! j $ k   ",
"  l $ - ! ! ! ! ! ! ! ! ! ! ! ! ! ! ! ! ! ! ! ! ! ! ! m $ '   ",
"  + $ - ! ! ! ! ! ! ! ! ! ! ! ! ! ! ! ! ! ! ! ! ! ! ! n $ o   ",
"  p $ - ! ! ! ! ! ! ! ! ! q r s t u v w x y z A B C D q $ E   ",
"  F $ ] G H I J K L M N O O O O O O O O O O O O O O O P $ Q   ",
"  R $ S O O O O O O O O O O O O O O O O O O O O O O O P $ T   ",
"  U $ S O O O O O O O O O O O O O O O O O O O O O O O P $ V   ",
"  W $ S O O O O O O O O O O O O O O O O O O O O O O O P $ X   ",
"  Y $ S O O O O O O O O O O O O O O O O O O O O O O O P $ Z   ",
"  ` $ S O O O O O O O O O O O O O O O O O O O O O O O P $  .  ",
"  ..$ S O O O O O O O O O O O O O O O O O O O O O O O P $ +.  ",
"  @.$ S O O O O O O O O O O O O O O O O O O O O O O O P $ #.  ",
"  $.$ S O O O O O O O O O O O O O O O O O O O O O O O P $ %.  ",
"  &.$ S O O O O O O O O O O O O O O O O O O O O O O O P $ *.  ",
"  =.$ -.! ! ! ! ! ! ! ! ! ! ! ! ! ! ! ! ! ! ! ! ! ! ! ;.$ >.  ",
"  ,.$ $ $ $ $ $ $ $ $ $ $ $ $ $ $ $ $ $ $ $ $ $ $ $ $ $ $ '.  ",
"  ).!.!.!.!.!.!.!.!.!.!.!.!.!.!.!.!.!.!.!.!.!.!.!.!.!.!.!.~.  ",
"                                                              "};
