/* XPM */
static const char * timeplayrecord_xpm[] = {
"28 28 6 1",
" 	c None",
".	c #DBD7D7",
"+	c #B5B1B1",
"@	c #000000",
"#	c #FF8707",
"$	c #4C39FF",
"...........  ..             ",
".+++++++++@  .#..           ",
".+++++++++@  .###..         ",
".+++++++++@  .#####.        ",
".+++++++++@  .######..      ",
".+++++++++@  .########..    ",
".+++++++++@  .##########.   ",
".+++++++++@  .###########.. ",
".+++++++++@  .#############.",
".+++++++++@  .#############@",
".+++++++++@  .###########@@ ",
".+++++++++@  .##########@   ",
".+++++++++@  .########@@    ",
".+++++++++@  .######@@      ",
".+++++++++@  .#####@        ",
".+++++++++@  .###@@         ",
".+++++++++@  .#@@           ",
".@@@@@@@@@@  @@             ",
"                            ",
"   ...                      ",
" ..$$$.@   @    @ @   @ @@@@",
" .$$$$$@   @    @ @   @ @   ",
" .$$$$$$@  @    @ @   @ @   ",
".$$$$$$$@  @    @ @   @ @@@ ",
" .$$$$$$@  @    @ @   @ @   ",
" .$$$$$@   @    @ @@ @@ @   ",
" @@$$$@@   @@@@ @  @@@  @@@@",
"   @@@                      "};
